<?xml version="1.0" encoding="UTF-8" standalone="no"?>
<!-- Created with Inkscape (http://www.inkscape.org/) -->

<svg
   xmlns:dc="http://purl.org/dc/elements/1.1/"
   xmlns:cc="http://creativecommons.org/ns#"
   xmlns:rdf="http://www.w3.org/1999/02/22-rdf-syntax-ns#"
   xmlns:svg="http://www.w3.org/2000/svg"
   xmlns="http://www.w3.org/2000/svg"
   xmlns:sodipodi="http://sodipodi.sourceforge.net/DTD/sodipodi-0.dtd"
   xmlns:inkscape="http://www.inkscape.org/namespaces/inkscape"
   width="163.24547"
   height="45.930836"
   id="svg3402"
   version="1.1"
   inkscape:version="0.48.3.1 r9886"
   sodipodi:docname="logo_SmartCampus_white.svg">
  <defs
     id="defs3404" />
  <sodipodi:namedview
     id="base"
     pagecolor="#ffffff"
     bordercolor="#666666"
     borderopacity="1.0"
     inkscape:pageopacity="0.0"
     inkscape:pageshadow="2"
     inkscape:zoom="5.6"
     inkscape:cx="46.354882"
     inkscape:cy="22.965414"
     inkscape:document-units="px"
     inkscape:current-layer="layer1"
     showgrid="false"
     inkscape:window-width="1366"
     inkscape:window-height="688"
     inkscape:window-x="0"
     inkscape:window-y="27"
     inkscape:window-maximized="1"
     fit-margin-top="0"
     fit-margin-left="0"
     fit-margin-right="0"
     fit-margin-bottom="0" />
  <metadata
     id="metadata3407">
    <rdf:RDF>
      <cc:Work
         rdf:about="">
        <dc:format>image/svg+xml</dc:format>
        <dc:type
           rdf:resource="http://purl.org/dc/dcmitype/StillImage" />
        <dc:title />
      </cc:Work>
    </rdf:RDF>
  </metadata>
  <g
     inkscape:label="Calque 1"
     inkscape:groupmode="layer"
     id="layer1"
     transform="translate(-293.37726,-509.39676)">
    <g
       transform="matrix(0.14835699,0,0,0.14835699,466.28044,442.41509)"
       id="g4555"
       style="fill:#ffffff;fill-opacity:1">
      <path
         inkscape:connector-curvature="0"
         style="fill:#ffffff;fill-opacity:1;stroke:none"
         d="m -1015.2977,497.67105 c -5.1477,0 -8.1293,0.053 -10.5938,0.2813 l 0,89.75008 -71.4688,0 c 0.1308,3.5152 0.4207,5.8081 1.0313,8.84371 2.1619,10.7487 4.8954,17.38681 13.5312,32.75002 2.8932,5.14701 6.248,11.48161 7.4688,14.09371 4.4749,9.57611 7.793,21.06582 9.2187,32.06263 0.9466,7.3024 2.0784,9.60421 5.4687,10.96871 0.8226,0.3306 17.1842,0.4712 45.9377,0.4063 44.52189,-0.1005 44.67479,-0.1067 46.125,-1.1876 2.4263,-1.80871 3.2879,-3.90941 4.0937,-10.06241 1.0131,-7.73731 2.4223,-13.92491 4.8125,-21.09382 2.5585,-7.6735 5.36661,-13.64021 11.87501,-25.21882 11.07851,-19.70851 14.02871,-28.71442 14.75001,-44.87503 1.0891,-24.39822 -7.1502,-45.98525 -24.00002,-62.84376 -11.7196,-11.72571 -25.44452,-19.09961 -42.40623,-22.75002 -4.49027,-0.9663 -6.88407,-1.125 -15.84377,-1.125 z m -18.0939,197.62516 c -16.4794,0.01 -24.8201,0.1587 -25.7812,0.4375 -2.3371,0.6779 -4.9232,3.49801 -5.375,5.90621 -0.7306,3.8941 1.2458,7.8484 4.6562,9.34381 1.2781,0.5599 9.6994,0.6857 45.1877,0.5938 43.17699,-0.1123 43.65459,-0.1361 45.06239,-1.1876 2.70411,-2.01901 3.56261,-3.67861 3.56261,-6.93741 0,-3.2589 -0.8586,-4.8872 -3.56261,-6.90631 -1.4063,-1.0501 -1.9065,-1.0665 -44.53119,-1.2187 -7.3293,-0.026 -13.7256,-0.034 -19.2189,-0.031 z m 0,24.71872 c -16.4794,0.01 -24.8201,0.1586 -25.7812,0.4376 -2.3371,0.678 -4.9232,3.52901 -5.375,5.93741 -0.7306,3.8941 1.2458,7.8483 4.6562,9.34381 1.2781,0.5598 9.6994,0.6545 45.1877,0.5625 43.17699,-0.112 43.65459,-0.1049 45.06239,-1.1563 2.70411,-2.01901 3.56261,-3.67871 3.56261,-6.93741 0,-3.259 -0.8586,-4.9185 -3.56261,-6.93761 -1.4063,-1.0501 -1.9065,-1.0665 -44.53119,-1.2187 -7.3293,-0.026 -13.7256,-0.034 -19.2189,-0.031 z m -14.875,24.68762 0,1.1874 c 0,2.15131 1.4854,6.33471 3.0313,8.46881 2.0041,2.7666 4.6769,4.7341 7.9375,5.87501 2.419,0.8462 4.5246,0.9248 22.7813,0.8125 19.30227,-0.1187 20.18098,-0.1609 22.46878,-1.21871 5.0605,-2.3398 8.8014,-7.3251 9.5312,-12.68761 l 0.3438,-2.4374 -33.06248,0 -33.0314,0 z"
         id="path4557" />
      <path
         id="path4559"
         d="m -1044.1678,571.3222 9.0407,0 0,9.04074 -9.0407,0 z"
         style="fill:#ffffff;fill-opacity:1;stroke:none"
         inkscape:connector-curvature="0" />
      <path
         id="path4561"
         d="m -1044.1678,559.3222 9.0407,0 0,9.04074 -9.0407,0 z"
         style="fill:#ffffff;fill-opacity:1;stroke:none"
         inkscape:connector-curvature="0" />
      <path
         id="path4563"
         d="m -1044.1678,547.3222 9.0407,0 0,9.04074 -9.0407,0 z"
         style="fill:#ffffff;fill-opacity:1;stroke:none"
         inkscape:connector-curvature="0" />
      <path
         id="path4565"
         d="m -1044.1678,535.32214 9.0407,0 0,9.04074 -9.0407,0 z"
         style="fill:#ffffff;fill-opacity:1;stroke:none"
         inkscape:connector-curvature="0" />
      <path
         id="path4567"
         d="m -1044.1678,523.32214 9.0407,0 0,9.04074 -9.0407,0 z"
         style="fill:#ffffff;fill-opacity:1;stroke:none"
         inkscape:connector-curvature="0" />
      <path
         id="path4569"
         d="m -1044.1678,511.32214 9.0407,0 0,9.04074 -9.0407,0 z"
         style="fill:#ffffff;fill-opacity:1;stroke:none"
         inkscape:connector-curvature="0" />
      <path
         id="path4571"
         d="m -1044.1678,499.32214 9.0407,0 0,9.04074 -9.0407,0 z"
         style="fill:#ffffff;fill-opacity:1;stroke:none"
         inkscape:connector-curvature="0" />
      <path
         id="path4573"
         d="m -1056.1678,571.3222 9.0407,0 0,9.04074 -9.0407,0 z"
         style="fill:#ffffff;fill-opacity:1;stroke:none"
         inkscape:connector-curvature="0" />
      <path
         id="path4575"
         d="m -1056.1678,559.3222 9.0407,0 0,9.04074 -9.0407,0 z"
         style="fill:#ffffff;fill-opacity:1;stroke:none"
         inkscape:connector-curvature="0" />
      <path
         id="path4577"
         d="m -1056.1678,547.3222 9.0407,0 0,9.04074 -9.0407,0 z"
         style="fill:#ffffff;fill-opacity:1;stroke:none"
         inkscape:connector-curvature="0" />
      <path
         id="path4579"
         d="m -1056.1678,535.32214 9.0407,0 0,9.04074 -9.0407,0 z"
         style="fill:#ffffff;fill-opacity:1;stroke:none"
         inkscape:connector-curvature="0" />
      <path
         id="path4581"
         d="m -1056.1678,523.32214 9.0407,0 0,9.04074 -9.0407,0 z"
         style="fill:#ffffff;fill-opacity:1;stroke:none"
         inkscape:connector-curvature="0" />
      <path
         id="path4583"
         d="m -1056.1678,511.32214 9.0407,0 0,9.04074 -9.0407,0 z"
         style="fill:#ffffff;fill-opacity:1;stroke:none"
         inkscape:connector-curvature="0" />
      <path
         id="path4585"
         d="m -962.97491,666.01624 9.04073,0 0,9.04073 -9.04073,0 z"
         style="fill:#ffffff;fill-opacity:1;stroke:none"
         transform="matrix(0.98639393,0.16439898,-0.16439898,0.98639393,0,0)"
         inkscape:connector-curvature="0" />
      <path
         id="path4587"
         d="m -1068.1678,571.3222 9.0407,0 0,9.04074 -9.0407,0 z"
         style="fill:#ffffff;fill-opacity:1;stroke:none"
         inkscape:connector-curvature="0" />
      <path
         id="path4589"
         d="m -1068.1678,559.3222 9.0407,0 0,9.04074 -9.0407,0 z"
         style="fill:#ffffff;fill-opacity:1;stroke:none"
         inkscape:connector-curvature="0" />
      <path
         id="path4591"
         d="m -1074.4269,546.9743 9.0408,0 0,9.04074 -9.0408,0 z"
         style="fill:#ffffff;fill-opacity:1;stroke:none"
         inkscape:connector-curvature="0" />
      <path
         id="path4593"
         d="m -1070.1678,535.32214 9.0407,0 0,9.04074 -9.0407,0 z"
         style="fill:#ffffff;fill-opacity:1;stroke:none"
         inkscape:connector-curvature="0" />
      <path
         id="path4595"
         d="m -1189.9843,89.79483 9.0408,0 0,9.040734 -9.0408,0 z"
         style="fill:#ffffff;fill-opacity:1;stroke:none"
         transform="matrix(0.9284767,-0.37139066,0.37139066,0.9284767,0,0)"
         inkscape:connector-curvature="0" />
      <path
         id="path4597"
         d="m -1076.1678,511.32214 9.0407,0 0,9.04074 -9.0407,0 z"
         style="fill:#ffffff;fill-opacity:1;stroke:none"
         inkscape:connector-curvature="0" />
      <path
         id="path4599"
         d="m -1080.1678,571.3222 9.0407,0 0,9.04074 -9.0407,0 z"
         style="fill:#ffffff;fill-opacity:1;stroke:none"
         inkscape:connector-curvature="0" />
      <path
         id="path4601"
         d="m -1083.2111,558.01776 9.0408,0 0,9.04073 -9.0408,0 z"
         style="fill:#ffffff;fill-opacity:1;stroke:none"
         inkscape:connector-curvature="0" />
      <path
         id="path4603"
         d="m -1166.9779,239.5618 9.0407,0 0,9.04073 -9.0407,0 z"
         style="fill:#ffffff;fill-opacity:1;stroke:none"
         transform="matrix(0.97341717,-0.22903933,0.22903933,0.97341717,0,0)"
         inkscape:connector-curvature="0" />
      <path
         id="path4605"
         d="m -1092.1678,571.3222 9.0407,0 0,9.04074 -9.0407,0 z"
         style="fill:#ffffff;fill-opacity:1;stroke:none"
         inkscape:connector-curvature="0" />
      <path
         id="path4607"
         d="m -887.72272,836.5824 9.04074,0 0,9.04073 -9.04074,0 z"
         style="fill:#ffffff;fill-opacity:1;stroke:none"
         transform="matrix(0.95782629,0.28734787,-0.28734787,0.95782629,0,0)"
         inkscape:connector-curvature="0" />
      <path
         id="path4609"
         d="m -1204.11,141.90765 9.0407,0 0,9.04074 -9.0407,0 z"
         style="fill:#ffffff;fill-opacity:1;stroke:none"
         transform="matrix(0.94242775,-0.33440983,0.33440983,0.94242775,0,0)"
         inkscape:connector-curvature="0" />
      <path
         id="path4611"
         d="m -955.22284,742.32947 9.04073,0 0,9.04073 -9.04073,0 z"
         style="fill:#ffffff;fill-opacity:1;stroke:none"
         transform="matrix(0.97717637,0.21242963,-0.21242963,0.97717637,0,0)"
         inkscape:connector-curvature="0" />
      <path
         id="path4613"
         d="m -1092.1678,511.32214 9.0407,0 0,9.04074 -9.0407,0 z"
         style="fill:#ffffff;fill-opacity:1;stroke:none"
         inkscape:connector-curvature="0" />
      <path
         id="path4615"
         d="m -1173.0421,262.66693 9.0407,0 0,9.04073 -9.0407,0 z"
         style="fill:#ffffff;fill-opacity:1;stroke:none"
         transform="matrix(0.97823413,-0.2075042,0.2075042,0.97823413,0,0)"
         inkscape:connector-curvature="0" />
      <path
         id="path4617"
         d="m -1211.4543,260.90527 9.0407,0 0,9.04074 -9.0407,0 z"
         style="fill:#ffffff;fill-opacity:1;stroke:none"
         transform="matrix(0.96707454,-0.25449328,0.25449328,0.96707454,0,0)"
         inkscape:connector-curvature="0" />
      <path
         id="path4619"
         d="m -835.0343,906.16443 9.04073,0 0,9.04073 -9.04073,0 z"
         style="fill:#ffffff;fill-opacity:1;stroke:none"
         transform="matrix(0.93334561,0.35897907,-0.35897907,0.93334561,0,0)"
         inkscape:connector-curvature="0" />
      <path
         id="path4621"
         d="m -746.6546,970.10675 9.04073,0 0,9.04073 -9.04073,0 z"
         style="fill:#ffffff;fill-opacity:1;stroke:none"
         transform="matrix(0.8944272,0.44721358,-0.44721358,0.8944272,0,0)"
         inkscape:connector-curvature="0" />
      <path
         id="path4623"
         d="m -1211.0737,151.22182 9.0407,0 0,9.04073 -9.0407,0 z"
         style="fill:#ffffff;fill-opacity:1;stroke:none"
         transform="matrix(0.95358267,-0.30113136,0.30113136,0.95358267,0,0)"
         inkscape:connector-curvature="0" />
      <path
         id="path4625"
         d="m -826.08917,898.85236 9.04073,0 0,9.04073 -9.04073,0 z"
         style="fill:#ffffff;fill-opacity:1;stroke:none"
         transform="matrix(0.91381156,0.40613844,-0.40613844,0.91381156,0,0)"
         inkscape:connector-curvature="0" />
      <path
         id="path4627"
         d="m -1249.1323,25.77215 9.0407,0 0,9.040733 -9.0407,0 z"
         style="fill:#ffffff;fill-opacity:1;stroke:none"
         transform="matrix(0.90731061,-0.420461,0.420461,0.90731061,0,0)"
         inkscape:connector-curvature="0" />
      <path
         id="path4629"
         d="m -1172.299,-414.51041 9.0408,0 0,9.04074 -9.0408,0 z"
         style="fill:#ffffff;fill-opacity:1;stroke:none"
         transform="matrix(0.70710679,-0.70710677,0.70710677,0.70710679,0,0)"
         inkscape:connector-curvature="0" />
      <path
         id="path4631"
         d="m -1234.6124,98.981659 9.0407,0 0,9.040731 -9.0407,0 z"
         style="fill:#ffffff;fill-opacity:1;stroke:none"
         transform="matrix(0.93912286,-0.34358152,0.34358152,0.93912286,0,0)"
         inkscape:connector-curvature="0" />
      <path
         id="path4633"
         d="m -762.40369,970.70435 9.04074,0 0,9.04073 -9.04074,0 z"
         style="fill:#ffffff;fill-opacity:1;stroke:none"
         transform="matrix(0.88235295,0.47058822,-0.47058822,0.88235295,0,0)"
         inkscape:connector-curvature="0" />
      <path
         id="path4635"
         d="m -1252.9436,7.5211573 9.0407,0 0,9.0407337 -9.0407,0 z"
         style="fill:#ffffff;fill-opacity:1;stroke:none"
         transform="matrix(0.90731061,-0.420461,0.420461,0.90731061,0,0)"
         inkscape:connector-curvature="0" />
      <path
         id="path4637"
         d="m -667.77893,1054.932 9.04073,0 0,9.0407 -9.04073,0 z"
         style="fill:#ffffff;fill-opacity:1;stroke:none"
         transform="matrix(0.82530728,0.56468389,-0.56468389,0.82530728,0,0)"
         inkscape:connector-curvature="0" />
      <path
         id="path4639"
         d="m -858.05743,798.43457 9.04073,0 0,9.04073 -9.04073,0 z"
         style="fill:#ffffff;fill-opacity:1;stroke:none"
         transform="matrix(0.9486833,0.31622775,-0.31622775,0.9486833,0,0)"
         inkscape:connector-curvature="0" />
      <path
         id="path4641"
         d="m -569.93256,1034.3422 9.04074,0 0,9.0407 -9.04074,0 z"
         style="fill:#ffffff;fill-opacity:1;stroke:none"
         transform="matrix(0.80000002,0.59999997,-0.59999997,0.80000002,0,0)"
         inkscape:connector-curvature="0" />
      <path
         id="path4643"
         d="m -1038.5121,621.46655 9.0407,0 0,9.04074 -9.0407,0 z"
         style="fill:#ffffff;fill-opacity:1;stroke:none"
         transform="matrix(0.9912279,0.13216372,-0.13216372,0.9912279,0,0)"
         inkscape:connector-curvature="0" />
      <path
         id="path4645"
         d="m -1232.2421,-26.624424 9.0408,0 0,9.040733 -9.0408,0 z"
         style="fill:#ffffff;fill-opacity:1;stroke:none"
         transform="matrix(0.91615734,-0.40081882,0.40081882,0.91615734,0,0)"
         inkscape:connector-curvature="0" />
      <path
         id="path4647"
         d="m -1185.515,131.38326 9.0407,0 0,9.04073 -9.0407,0 z"
         style="fill:#ffffff;fill-opacity:1;stroke:none"
         transform="matrix(0.95506414,-0.2963992,0.2963992,0.95506414,0,0)"
         inkscape:connector-curvature="0" />
      <path
         id="path4649"
         d="m -1176.4829,-371.82761 9.0407,0 0,9.04074 -9.0407,0 z"
         style="fill:#ffffff;fill-opacity:1;stroke:none"
         transform="matrix(0.77395731,-0.63323778,0.63323778,0.77395731,0,0)"
         inkscape:connector-curvature="0" />
      <path
         id="path4651"
         d="m -1253.7119,31.698668 9.0407,0 0,9.040732 -9.0407,0 z"
         style="fill:#ffffff;fill-opacity:1;stroke:none"
         transform="matrix(0.93834312,-0.34570534,0.34570534,0.93834312,0,0)"
         inkscape:connector-curvature="0" />
      <path
         id="path4653"
         d="m -1032.1678,571.3222 9.0407,0 0,9.04074 -9.0407,0 z"
         style="fill:#ffffff;fill-opacity:1;stroke:none"
         inkscape:connector-curvature="0" />
      <path
         id="path4655"
         d="m -1032.1678,559.3222 9.0407,0 0,9.04074 -9.0407,0 z"
         style="fill:#ffffff;fill-opacity:1;stroke:none"
         inkscape:connector-curvature="0" />
      <path
         id="path4657"
         d="m -1032.1678,547.3222 9.0407,0 0,9.04074 -9.0407,0 z"
         style="fill:#ffffff;fill-opacity:1;stroke:none"
         inkscape:connector-curvature="0" />
      <path
         id="path4659"
         d="m -1032.1678,535.32214 9.0407,0 0,9.04074 -9.0407,0 z"
         style="fill:#ffffff;fill-opacity:1;stroke:none"
         inkscape:connector-curvature="0" />
      <path
         id="path4661"
         d="m -1032.1678,523.32214 9.0407,0 0,9.04074 -9.0407,0 z"
         style="fill:#ffffff;fill-opacity:1;stroke:none"
         inkscape:connector-curvature="0" />
      <path
         id="path4663"
         d="m -1032.1678,511.32214 9.0407,0 0,9.04074 -9.0407,0 z"
         style="fill:#ffffff;fill-opacity:1;stroke:none"
         inkscape:connector-curvature="0" />
      <path
         id="path4665"
         d="m -1032.1678,499.32214 9.0407,0 0,9.04074 -9.0407,0 z"
         style="fill:#ffffff;fill-opacity:1;stroke:none"
         inkscape:connector-curvature="0" />
      <path
         id="path4667"
         d="m -1044.1678,583.3222 9.0407,0 0,9.04074 -9.0407,0 z"
         style="fill:#ffffff;fill-opacity:1;stroke:none"
         inkscape:connector-curvature="0" />
      <path
         id="path4669"
         d="m -1056.1678,583.3222 9.0407,0 0,9.04074 -9.0407,0 z"
         style="fill:#ffffff;fill-opacity:1;stroke:none"
         inkscape:connector-curvature="0" />
      <path
         id="path4671"
         d="m -1068.1678,583.3222 9.0407,0 0,9.04074 -9.0407,0 z"
         style="fill:#ffffff;fill-opacity:1;stroke:none"
         inkscape:connector-curvature="0" />
      <path
         id="path4673"
         d="m -1080.1678,583.3222 9.0407,0 0,9.04074 -9.0407,0 z"
         style="fill:#ffffff;fill-opacity:1;stroke:none"
         inkscape:connector-curvature="0" />
      <path
         id="path4675"
         d="m -1092.1678,583.3222 9.0407,0 0,9.04074 -9.0407,0 z"
         style="fill:#ffffff;fill-opacity:1;stroke:none"
         inkscape:connector-curvature="0" />
      <path
         id="path4677"
         d="m -1032.1678,583.3222 9.0407,0 0,9.04074 -9.0407,0 z"
         style="fill:#ffffff;fill-opacity:1;stroke:none"
         inkscape:connector-curvature="0" />
      <g
         id="g4679"
         style="font-size:40px;font-style:normal;font-variant:normal;font-weight:normal;font-stretch:normal;text-align:start;line-height:125%;letter-spacing:0px;word-spacing:0px;writing-mode:lr-tb;text-anchor:start;fill:#ffffff;fill-opacity:1;stroke:none;font-family:Downlink;-inkscape-font-specification:Downlink"
         transform="matrix(1.0000008,0,0,1.7707785,-748.81703,-134.06634)">
        <path
           id="path4681"
           style="font-size:100px;fill:#ffffff;fill-opacity:1"
           d="m -97.726562,424.81597 c 6.73822,4e-5 12.483657,1.90434 17.236328,5.71289 4.78508,3.80863 7.177656,8.41474 7.177734,13.81836 -7.8e-5,5.40366 -2.392654,10.00978 -7.177734,13.81836 -4.752671,3.8086 -10.498108,5.71289 -17.236328,5.71289 l -50.048828,0 c -2.44141,0 -3.66211,-1.2207 -3.66211,-3.66211 l 0,-2.4414 c 0,-2.4414 1.2207,-3.6621 3.66211,-3.66211 l 50.048828,0 c 3.385359,1e-5 6.266216,-0.944 8.642578,-2.83203 2.376237,-1.92056 3.564387,-4.23176 3.564453,-6.9336 -6.6e-5,-2.7018 -1.188216,-4.99672 -3.564453,-6.88476 -2.376362,-1.92055 -5.257219,-2.88083 -8.642578,-2.88086 l -29.296878,0 c -6.7383,3e-5 -12.50001,-1.90427 -17.28515,-5.71289 -4.75261,-3.80856 -7.12891,-8.41467 -7.12891,-13.81836 0,-5.40359 2.3763,-10.00971 7.12891,-13.81836 4.78514,-3.80853 10.54685,-5.71282 17.28515,-5.71289 l 50.048831,0 c 2.441329,7e-5 3.662031,1.22077 3.662109,3.66211 l 0,2.4414 c -7.8e-5,2.44147 -1.22078,3.66217 -3.662109,3.66211 l -50.048831,0 c -3.38544,6e-5 -6.26629,0.96035 -8.64258,2.88086 -2.37631,1.88808 -3.56446,4.183 -3.56445,6.88477 -1e-5,2.70187 1.18814,5.01306 3.56445,6.93359 2.37629,1.88806 5.25714,2.83207 8.64258,2.83203 l 29.296878,0"
           inkscape:connector-curvature="0" />
        <path
           id="path4683"
           style="font-size:100px;fill:#ffffff;fill-opacity:1"
           d="m -26.925781,429.69878 c -3.7e-5,-2.70178 -1.188187,-4.9967 -3.564453,-6.88476 -2.376333,-1.92053 -5.25719,-2.88082 -8.642578,-2.88086 -3.385438,4e-5 -6.266295,0.96033 -8.642579,2.88086 -2.376315,1.88806 -3.564465,4.18298 -3.564453,6.88476 l 0,30.51758 c -1.2e-5,2.44141 -1.220714,3.66211 -3.662109,3.66211 l -4.882813,0 c -2.441407,0 -3.662109,-1.2207 -3.662109,-3.66211 l 0,-30.51758 c 0,-5.4036 2.3763,-10.00972 7.128906,-13.81835 4.785145,-3.80855 10.546858,-5.71284 17.285157,-5.7129 6.73825,6e-5 12.499963,1.90435 17.285156,5.7129 0.358031,0.29301 0.699827,0.58598 1.02539,0.8789 0.325478,-0.29292 0.683551,-0.58589 1.074219,-0.8789 4.752556,-3.80855 10.4979927,-5.71284 17.2363282,-5.7129 6.7382135,6e-5 12.4836505,1.90435 17.2363278,5.7129 4.785074,3.80863 7.177649,8.41475 7.177735,13.81835 l 0,30.51758 c -8.6e-5,2.44141 -1.220788,3.66211 -3.66211,3.66211 l -4.882812,0 c -2.441481,0 -3.6621827,-1.2207 -3.6621095,-3.66211 l 0,-30.51758 c -7.32e-5,-2.70178 -1.1882231,-4.9967 -3.5644531,-6.88476 -2.3763694,-1.92053 -5.2572259,-2.88082 -8.6425782,-2.88086 -3.3854743,4e-5 -6.2663308,0.96033 -8.6425782,2.88086 -2.376352,1.88806 -3.564502,4.18298 -3.564453,6.88476 l 0,30.51758 c -4.9e-5,2.44141 -1.220751,3.66211 -3.662109,3.66211 l -4.882813,0 c -2.441444,0 -3.662146,-1.2207 -3.662109,-3.66211 l 0,-30.51758"
           inkscape:connector-curvature="0" />
        <path
           id="path4685"
           style="font-size:100px;fill:#ffffff;fill-opacity:1"
           d="m 51.296875,463.87847 c -5.40366,0 -10.009775,-1.54622 -13.818359,-4.63867 -3.808596,-3.09244 -5.712891,-6.83593 -5.712891,-11.23047 0,-4.39451 1.904295,-8.138 5.712891,-11.23047 3.808584,-3.09241 8.414699,-4.63864 13.818359,-4.63867 l 36.621094,0 0,-2.44141 c -5.6e-5,-2.70178 -1.188206,-4.9967 -3.564453,-6.88476 -2.376353,-1.92053 -5.257209,-2.88082 -8.642579,-2.88086 l -40.283203,0 c -2.441407,4e-5 -3.662109,-1.22066 -3.662109,-3.66211 l 0,-2.44141 c 0,-2.44135 1.220702,-3.66205 3.662109,-3.66211 l 40.283203,0 c 6.738231,6e-5 12.483668,1.90435 17.236329,5.7129 4.78509,3.80863 7.177664,8.41475 7.177734,13.81835 l 0,14.64844 c -7e-5,5.40366 -2.392644,10.00978 -7.177734,13.81836 -4.752661,3.8086 -10.498098,5.71289 -17.236329,5.71289 l -24.414062,0 m 24.414062,-9.76562 c 3.38537,1e-5 6.266226,-0.944 8.642579,-2.83203 2.376247,-1.92056 3.564397,-4.23176 3.564453,-6.9336 l 0,-2.4414 -36.621094,0 c -2.018247,2e-5 -3.743505,0.60223 -5.175781,1.80664 -1.432305,1.17189 -2.14845,2.60418 -2.148438,4.29687 -1.2e-5,1.69272 0.716133,3.14129 2.148438,4.3457 1.432276,1.17189 3.157534,1.75783 5.175781,1.75782 l 24.414062,0"
           inkscape:connector-curvature="0" />
        <path
           id="path4687"
           style="font-size:100px;fill:#ffffff;fill-opacity:1"
           d="m 109.89063,429.69878 c 0,-5.4036 2.37629,-10.00972 7.1289,-13.81835 4.78515,-3.80855 10.54686,-5.71284 17.28516,-5.7129 l 10.98633,0 c 2.44136,6e-5 3.66207,1.22076 3.6621,3.66211 l 0,2.44141 c -3e-5,2.44145 -1.22074,3.66215 -3.6621,3.66211 l -10.98633,0 c -3.38544,4e-5 -6.2663,0.96033 -8.64258,2.88086 -2.37632,1.88806 -3.56447,4.18298 -3.56445,6.88476 l 0,30.51758 c -2e-5,2.44141 -1.22072,3.66211 -3.66211,3.66211 l -4.88282,0 c -2.4414,0 -3.6621,-1.2207 -3.6621,-3.66211 l 0,-30.51758"
           inkscape:connector-curvature="0" />
        <path
           id="path4689"
           style="font-size:100px;fill:#ffffff;fill-opacity:1"
           d="m 170.92578,419.93316 0,24.41406 c -1e-5,2.70184 1.18814,5.01304 3.56445,6.9336 2.37629,1.88803 5.25714,2.83204 8.64258,2.83203 l 1.22071,0 c 2.44137,1e-5 3.66208,1.22071 3.6621,3.66211 l 0,2.4414 c -2e-5,2.44141 -1.22073,3.66211 -3.6621,3.66211 l -1.22071,0 c -6.7383,0 -12.50001,-1.90429 -17.28515,-5.71289 -4.75261,-3.80858 -7.12891,-8.4147 -7.12891,-13.81836 l 0,-45.16601 c 0,-2.44134 1.2207,-3.66204 3.66211,-3.66211 l 4.88281,0 c 2.4414,7e-5 3.6621,1.22077 3.66211,3.66211 l 0,10.98632 13.42774,0 c 2.44137,6e-5 3.66208,1.22076 3.6621,3.66211 l 0,2.44141 c -2e-5,2.44145 -1.22073,3.66215 -3.6621,3.66211 l -13.42774,0"
           inkscape:connector-curvature="0" />
        <path
           id="path4691"
           style="font-size:100px;fill:#ffffff;fill-opacity:1"
           d="m 272.24414,395.5191 c 2.44133,7e-5 3.66203,1.22077 3.66211,3.66211 l 0,2.4414 c -8e-5,2.44147 -1.22078,3.66217 -3.66211,3.66211 l -50.04883,0 c -3.38544,6e-5 -6.26629,0.96035 -8.64258,2.88086 -2.37631,1.88808 -3.56446,4.183 -3.56445,6.88477 l 0,29.29687 c -1e-5,2.70184 1.18814,5.01304 3.56445,6.9336 2.37629,1.88803 5.25714,2.83204 8.64258,2.83203 l 50.04883,0 c 2.44133,1e-5 3.66203,1.22071 3.66211,3.66211 l 0,2.4414 c -8e-5,2.44141 -1.22078,3.66211 -3.66211,3.66211 l -50.04883,0 c -6.7383,0 -12.50001,-1.90429 -17.28515,-5.71289 -4.75261,-3.80858 -7.12891,-8.4147 -7.12891,-13.81836 l 0,-29.29687 c 0,-5.40359 2.3763,-10.00971 7.12891,-13.81836 4.78514,-3.80853 10.54685,-5.71282 17.28515,-5.71289 l 50.04883,0"
           inkscape:connector-curvature="0" />
        <path
           id="path4693"
           style="font-size:100px;fill:#ffffff;fill-opacity:1"
           d="m 305.20312,463.87847 c -5.40365,0 -10.00977,-1.54622 -13.81835,-4.63867 -3.8086,-3.09244 -5.7129,-6.83593 -5.7129,-11.23047 0,-4.39451 1.9043,-8.138 5.7129,-11.23047 3.80858,-3.09241 8.4147,-4.63864 13.81835,-4.63867 l 36.6211,0 0,-2.44141 c -6e-5,-2.70178 -1.18821,-4.9967 -3.56445,-6.88476 -2.37636,-1.92053 -5.25721,-2.88082 -8.64258,-2.88086 l -40.28321,0 c -2.4414,4e-5 -3.66211,-1.22066 -3.66211,-3.66211 l 0,-2.44141 c 0,-2.44135 1.22071,-3.66205 3.66211,-3.66211 l 40.28321,0 c 6.73823,6e-5 12.48367,1.90435 17.23633,5.7129 4.78509,3.80863 7.17766,8.41475 7.17773,13.81835 l 0,14.64844 c -7e-5,5.40366 -2.39264,10.00978 -7.17773,13.81836 -4.75266,3.8086 -10.4981,5.71289 -17.23633,5.71289 l -24.41407,0 m 24.41407,-9.76562 c 3.38537,1e-5 6.26622,-0.944 8.64258,-2.83203 2.37624,-1.92056 3.56439,-4.23176 3.56445,-6.9336 l 0,-2.4414 -36.6211,0 c -2.01824,2e-5 -3.7435,0.60223 -5.17578,1.80664 -1.4323,1.17189 -2.14845,2.60418 -2.14843,4.29687 -2e-5,1.69272 0.71613,3.14129 2.14843,4.3457 1.43228,1.17189 3.15754,1.75783 5.17578,1.75782 l 24.41407,0"
           inkscape:connector-curvature="0" />
        <path
           id="path4695"
           style="font-size:100px;fill:#ffffff;fill-opacity:1"
           d="m 400.41797,429.69878 c -4e-5,-2.70178 -1.18819,-4.9967 -3.56445,-6.88476 -2.37634,-1.92053 -5.25719,-2.88082 -8.64258,-2.88086 -3.38544,4e-5 -6.2663,0.96033 -8.64258,2.88086 -2.37632,1.88806 -3.56447,4.18298 -3.56445,6.88476 l 0,30.51758 c -2e-5,2.44141 -1.22072,3.66211 -3.66211,3.66211 l -4.88282,0 c -2.4414,0 -3.66211,-1.2207 -3.66211,-3.66211 l 0,-30.51758 c 0,-5.4036 2.3763,-10.00972 7.12891,-13.81835 4.78515,-3.80855 10.54686,-5.71284 17.28516,-5.7129 6.73825,6e-5 12.49996,1.90435 17.28515,5.7129 0.35803,0.29301 0.69983,0.58598 1.02539,0.8789 0.32548,-0.29292 0.68355,-0.58589 1.07422,-0.8789 4.75256,-3.80855 10.498,-5.71284 17.23633,-5.7129 6.73821,6e-5 12.48365,1.90435 17.23633,5.7129 4.78507,3.80863 7.17765,8.41475 7.17773,13.81835 l 0,30.51758 c -8e-5,2.44141 -1.22078,3.66211 -3.66211,3.66211 l -4.88281,0 c -2.44148,0 -3.66218,-1.2207 -3.66211,-3.66211 l 0,-30.51758 c -7e-5,-2.70178 -1.18822,-4.9967 -3.56445,-6.88476 -2.37637,-1.92053 -5.25723,-2.88082 -8.64258,-2.88086 -3.38547,4e-5 -6.26633,0.96033 -8.64258,2.88086 -2.37635,1.88806 -3.5645,4.18298 -3.56445,6.88476 l 0,30.51758 c -5e-5,2.44141 -1.22075,3.66211 -3.66211,3.66211 l -4.88281,0 c -2.44145,0 -3.66215,-1.2207 -3.66211,-3.66211 l 0,-30.51758"
           inkscape:connector-curvature="0" />
        <path
           id="path4697"
           style="font-size:100px;fill:#ffffff;fill-opacity:1"
           d="m 471.31641,454.11285 31.73828,0 c 3.38537,1e-5 6.26622,-0.944 8.64258,-2.83203 2.37624,-1.92056 3.56439,-4.23176 3.56445,-6.9336 l 0,-14.64844 c -6e-5,-2.70178 -1.18821,-4.9967 -3.56445,-6.88476 -2.37636,-1.92053 -5.25721,-2.88082 -8.64258,-2.88086 l -19.53125,0 c -3.38544,4e-5 -6.2663,0.96033 -8.64258,2.88086 -2.37632,1.88806 -3.56447,4.18298 -3.56445,6.88476 l 0,24.41407 m 0,20.75195 c -2e-5,2.44139 -1.22072,3.6621 -3.66211,3.66211 l -4.88282,0 c -2.4414,-10e-6 -3.66211,-1.22072 -3.66211,-3.66211 l 0,-45.16602 c 0,-5.4036 2.3763,-10.00972 7.12891,-13.81835 4.78515,-3.80855 10.54686,-5.71284 17.28516,-5.7129 l 19.53125,0 c 6.73823,6e-5 12.48367,1.90435 17.23633,5.7129 4.78509,3.80863 7.17766,8.41475 7.17773,13.81835 l 0,14.64844 c -7e-5,5.40366 -2.39264,10.00978 -7.17773,13.81836 -4.75266,3.8086 -10.4981,5.71289 -17.23633,5.71289 l -31.73828,0.0488 0,10.9375"
           inkscape:connector-curvature="0" />
        <path
           id="path4699"
           style="font-size:100px;fill:#ffffff;fill-opacity:1"
           d="m 549.44141,444.34722 c -2e-5,2.70184 1.18813,5.01304 3.56445,6.9336 2.37628,1.88803 5.25714,2.83204 8.64258,2.83203 l 19.53125,0 c 3.38537,1e-5 6.26622,-0.944 8.64258,-2.83203 2.37624,-1.92056 3.56439,-4.23176 3.56445,-6.9336 l 0,-30.51758 c -6e-5,-2.44135 1.22064,-3.66205 3.66211,-3.66211 l 4.88281,0 c 2.44134,6e-5 3.66204,1.22076 3.66211,3.66211 l 0,30.51758 c -7e-5,5.40366 -2.39264,10.00978 -7.17773,13.81836 -4.75266,3.8086 -10.4981,5.71289 -17.23633,5.71289 l -19.53125,0 c -6.7383,0 -12.50001,-1.90429 -17.28516,-5.71289 -4.75261,-3.80858 -7.12891,-8.4147 -7.12891,-13.81836 l 0,-30.51758 c 0,-2.44135 1.22071,-3.66205 3.66211,-3.66211 l 4.88282,0 c 2.44139,6e-5 3.66209,1.22076 3.66211,3.66211 l 0,30.51758"
           inkscape:connector-curvature="0" />
        <path
           id="path4701"
           style="font-size:100px;fill:#ffffff;fill-opacity:1"
           d="m 634.89062,410.16753 45.16602,0 c 2.44134,6e-5 3.66204,1.22076 3.66211,3.66211 l 0,2.44141 c -7e-5,2.44145 -1.22077,3.66215 -3.66211,3.66211 l -45.16602,0 c -2.01824,4e-5 -3.7435,0.60226 -5.17578,1.80664 -1.4323,1.17192 -2.14845,2.60421 -2.14843,4.29688 -2e-5,1.69274 0.71613,3.14131 2.14843,4.3457 1.43228,1.17191 3.15754,1.75784 5.17578,1.75781 l 29.29688,0 c 5.40359,3e-5 10.00971,1.54626 13.81836,4.63867 3.80853,3.09247 5.71282,6.83596 5.71289,11.23047 -7e-5,4.39454 -1.90436,8.13803 -5.71289,11.23047 -3.80865,3.09245 -8.41477,4.63867 -13.81836,4.63867 l -45.16602,0 c -2.4414,0 -3.66211,-1.2207 -3.66211,-3.66211 l 0,-2.4414 c 0,-2.4414 1.22071,-3.6621 3.66211,-3.66211 l 45.16602,0 c 2.01818,1e-5 3.74344,-0.58593 5.17578,-1.75782 1.43224,-1.20441 2.14838,-2.65298 2.14844,-4.3457 -6e-5,-1.69269 -0.7162,-3.12498 -2.14844,-4.29687 -1.43234,-1.20441 -3.1576,-1.80662 -5.17578,-1.80664 l -29.29688,0 c -5.40365,2e-5 -10.00977,-1.5462 -13.81835,-4.63868 -3.8086,-3.09241 -5.7129,-6.8359 -5.7129,-11.23046 0,-4.39449 1.9043,-8.13798 5.7129,-11.23047 3.80858,-3.0924 8.4147,-4.63862 13.81835,-4.63868"
           inkscape:connector-curvature="0" />
      </g>
    </g>
  </g>
</svg>
