<?xml version="1.0" encoding="UTF-8" standalone="no"?>
<!-- Created with Inkscape (http://www.inkscape.org/) -->

<svg
   xmlns:dc="http://purl.org/dc/elements/1.1/"
   xmlns:cc="http://creativecommons.org/ns#"
   xmlns:rdf="http://www.w3.org/1999/02/22-rdf-syntax-ns#"
   xmlns:svg="http://www.w3.org/2000/svg"
   xmlns="http://www.w3.org/2000/svg"
   xmlns:sodipodi="http://sodipodi.sourceforge.net/DTD/sodipodi-0.dtd"
   xmlns:inkscape="http://www.inkscape.org/namespaces/inkscape"
   width="210mm"
   height="297mm"
   id="svg2"
   version="1.1"
   inkscape:version="0.48.3.1 r9886"
   sodipodi:docname="pois.svg">
  <defs
     id="defs4" />
  <sodipodi:namedview
     id="base"
     pagecolor="#ffffff"
     bordercolor="#666666"
     borderopacity="1.0"
     inkscape:pageopacity="0.0"
     inkscape:pageshadow="2"
     inkscape:zoom="0.35"
     inkscape:cx="1054.2924"
     inkscape:cy="59.413051"
     inkscape:document-units="px"
     inkscape:current-layer="layer1"
     showgrid="false"
     inkscape:window-width="1366"
     inkscape:window-height="688"
     inkscape:window-x="0"
     inkscape:window-y="27"
     inkscape:window-maximized="1" />
  <metadata
     id="metadata7">
    <rdf:RDF>
      <cc:Work
         rdf:about="">
        <dc:format>image/svg+xml</dc:format>
        <dc:type
           rdf:resource="http://purl.org/dc/dcmitype/StillImage" />
        <dc:title></dc:title>
      </cc:Work>
    </rdf:RDF>
  </metadata>
  <g
     inkscape:label="Calque 1"
     inkscape:groupmode="layer"
     id="layer1">
    <g
       id="g4339"
       transform="translate(-1666.2448,-840.29107)">
      <path
         id="path5"
         d="m 1685.4062,1352.0625 c -18.8528,5.6139 -36.0312,10.625 -36.0312,10.625 -1.5317,0.4633 -3.7171,0.6127 -6.125,-0.031 0,0 -12.6861,-3.6925 -22.8125,-6.625 -4.6017,7.4842 -6.4687,14.3126 -6.4687,14.3126 15.0766,0.3541 15.6461,4.9501 23.375,14.875 7.4992,-6.8817 27.8541,-20.7856 53.3124,-10.75 -0.4544,-9.3634 -2.133,-16.7465 -5.25,-22.4063 z"
         inkscape:connector-curvature="0" />
      <path
         id="path10"
         d="m 1702.25,1347 c -0.8602,0.2603 -1.6599,0.5184 -2.5312,0.7812 -0.2065,0.1593 0.027,0.3037 1.125,0.5626 0.6195,0.2866 1.3206,0.8174 1.9687,1.4687 1.2963,1.3026 2.2813,3.1283 2.2813,4.3437 l 1.4687,0 c 0,-1.9135 -1.2288,-3.8775 -2.7187,-5.375 -0.5965,-0.5992 -0.985,-1.3466 -1.5938,-1.7812 z"
         style="font-size:medium;font-style:normal;font-variant:normal;font-weight:normal;font-stretch:normal;text-indent:0;text-align:start;text-decoration:none;line-height:normal;letter-spacing:normal;word-spacing:normal;text-transform:none;direction:ltr;block-progression:tb;writing-mode:lr-tb;text-anchor:start;baseline-shift:baseline;color:#000000;fill:#000000;fill-opacity:1;stroke:none;stroke-width:1.46565163;marker:none;visibility:visible;display:inline;overflow:visible;enable-background:accumulate;font-family:Sans;-inkscape-font-specification:Sans"
         inkscape:connector-curvature="0" />
      <path
         id="circle12"
         d="m 558.24898,150.34 c 0,3.08119 -2.4978,5.579 -5.579,5.579 -3.08119,0 -5.579,-2.49781 -5.579,-5.579 0,-3.0812 2.49781,-5.579 5.579,-5.579 3.0812,0 5.579,2.4978 5.579,5.579 z"
         transform="matrix(0.24427527,0,0,0.24427527,1570.9394,1317.8239)"
         inkscape:connector-curvature="0" />
      <path
         id="circle14"
         d="m 560.87503,156.88 c 0,4.47075 -3.62426,8.09501 -8.095,8.09501 -4.47075,0 -8.095,-3.62426 -8.095,-8.09501 0,-4.47074 3.62425,-8.095 8.095,-8.095 4.47074,0 8.095,3.62426 8.095,8.095 z"
         transform="matrix(0.24427527,0,0,0.24427527,1570.9394,1317.8239)"
         inkscape:connector-curvature="0" />
      <path
         id="circle16"
         d="m 560.87503,164.00999 c 0,4.47075 -3.62426,8.095 -8.095,8.095 -4.47075,0 -8.095,-3.62425 -8.095,-8.095 0,-4.47074 3.62425,-8.095 8.095,-8.095 4.47074,0 8.095,3.62426 8.095,8.095 z"
         transform="matrix(0.24427527,0,0,0.24427527,1570.9394,1317.8239)"
         inkscape:connector-curvature="0" />
      <path
         d="m 1710.6087,1366.017 c -0.1801,-0.2446 -0.3904,-0.4451 -0.4409,-0.6527 -0.3953,-1.6193 -1.5976,-6.5469 -3.2501,-6.9951 -0.2235,-0.061 -0.3608,-0.3129 -0.3068,-0.5638 0.054,-0.2509 0.2794,-0.404 0.5024,-0.3442 1.877,0.5089 3.0032,4.1561 3.8571,7.6563 0.061,0.249 -0.01,0.5543 -0.097,0.8513 -0.012,0.041 -0.072,0.2922 -0.1085,0.2922 l -0.1563,-0.2418 z"
         id="path18"
         inkscape:connector-curvature="0" />
      <path
         d="m 1709.5705,1366.6912 c -0.18,-0.2446 -0.3904,-0.4451 -0.4409,-0.6527 -0.3953,-1.6193 -1.5976,-6.5469 -3.2501,-6.9951 -0.2235,-0.061 -0.3608,-0.3129 -0.3068,-0.5638 0.054,-0.2509 0.2794,-0.404 0.5025,-0.3442 1.877,0.5089 3.0031,4.1561 3.8571,7.6563 0.061,0.249 -0.01,0.5543 -0.097,0.8513 -0.012,0.041 -0.072,0.2922 -0.1085,0.2922 l -0.1587,-0.2418 z"
         id="path20"
         inkscape:connector-curvature="0" />
      <path
         d="m 1707.0349,1367.0209 c 0.037,-0.3012 0.1214,-0.5791 0.064,-0.7851 -0.4507,-1.6048 -1.8213,-6.4882 -0.6014,-7.6895 0.1647,-0.1627 0.1603,-0.4497 -0.01,-0.642 -0.1702,-0.1917 -0.4419,-0.2149 -0.607,-0.053 -1.3855,1.3648 -0.5765,5.0946 0.3972,8.564 0.069,0.2465 0.2782,0.4793 0.5022,0.694 0.031,0.03 0.2064,0.2191 0.2382,0.2013 l 0.015,-0.2882 z"
         id="path22"
         inkscape:connector-curvature="0" />
      <path
         d="m 1705.4862,1366.8988 c 0.037,-0.3012 0.1214,-0.5792 0.064,-0.7851 -0.4507,-1.6049 -1.8213,-6.4882 -0.6014,-7.6895 0.1647,-0.1627 0.1603,-0.4498 -0.01,-0.642 -0.1702,-0.1918 -0.4419,-0.215 -0.607,-0.053 -1.3855,1.3647 -0.5765,5.0946 0.3972,8.564 0.069,0.2465 0.2782,0.4793 0.5022,0.694 0.031,0.029 0.2064,0.2191 0.2382,0.2013 l 0.015,-0.2883 z"
         id="path24"
         inkscape:connector-curvature="0" />
      <path
         d="m 1708.5739,1366.5764 c 0.05,-0.3733 0.1656,-0.7177 0.087,-0.9727 -0.6146,-1.9887 -2.484,-8.0391 -0.82,-9.5278 0.2245,-0.2015 0.2189,-0.5569 -0.013,-0.7953 -0.2323,-0.2377 -0.6026,-0.2663 -0.8281,-0.066 -1.8897,1.6909 -0.7866,6.3126 0.5418,10.6111 0.094,0.3053 0.3794,0.5938 0.6849,0.8598 0.042,0.037 0.2812,0.2717 0.3247,0.2495 l 0.022,-0.3591 z"
         id="path26"
         inkscape:connector-curvature="0" />
      <path
         d="m 1730.5233,1332.3497 c 2.2633,0.4818 3.2428,2.6363 -0.1551,3.823 -15.8994,5.5526 -80.9873,24.5024 -80.9873,24.5024 -1.5317,0.4633 -3.7278,0.62 -6.1357,-0.024 0,0 -67.8935,-19.5259 -70.4302,-20.8008 -1.038,-0.5216 -1.2638,-2.3531 0.2411,-2.8982 1.6877,-0.6113 72.0878,-19.8652 74.0706,-20.4937 2.3941,-0.759 3.9892,-0.7068 6.5121,-0.1919 0,0 60.7506,12.6489 76.8845,16.0836 z"
         id="path8"
         style="fill:#000000;fill-opacity:1;stroke:none"
         inkscape:connector-curvature="0"
         sodipodi:nodetypes="sssssssss" />
    </g>
    <path
       sodipodi:type="arc"
       style="fill:#008dd9;stroke:none;stroke-width:0.03543307000000000;stroke-linecap:round;stroke-linejoin:miter;stroke-miterlimit:4;stroke-opacity:1;stroke-dasharray:none;stroke-dashoffset:0;fill-opacity:1"
       id="path4695"
       sodipodi:cx="358.57144"
       sodipodi:cy="428.07648"
       sodipodi:rx="121.42857"
       sodipodi:ry="121.42857"
       d="m 480.00002,428.07648 a 121.42857,121.42857 0 1 1 -242.85715,0 121.42857,121.42857 0 1 1 242.85715,0 z"
       inkscape:export-filename="/home/simon/ricm/5/projet/depot/SmartCampus2014/appsClient/exampleAR/public_html/images/school.png"
       inkscape:export-xdpi="9.2600002"
       inkscape:export-ydpi="9.2600002" />
    <path
       style="fill:#000000;fill-opacity:0.11450381;stroke:none"
       d="m 480.00002,428.07648 c 0,67.06315 -54.36543,121.42857 -121.42858,121.42857 -67.06315,0 -121.42857,-54.36542 -121.42857,-121.42857 53.89349,25.01346 173.94628,35.30894 242.85715,0 z"
       id="path5489"
       inkscape:connector-curvature="0"
       sodipodi:nodetypes="cscc"
       inkscape:export-filename="/home/simon/ricm/5/projet/depot/SmartCampus2014/appsClient/exampleAR/public_html/images/school.png"
       inkscape:export-xdpi="9.2600002"
       inkscape:export-ydpi="9.2600002" />
    <g
       transform="matrix(1.1383789,0,0,1.1383789,-1522.1633,-1095.6194)"
       id="g5465"
       style="fill:#ffffff;fill-opacity:1"
       inkscape:export-filename="/home/simon/ricm/5/projet/depot/SmartCampus2014/appsClient/exampleAR/public_html/images/school.png"
       inkscape:export-xdpi="9.2600002"
       inkscape:export-ydpi="9.2600002">
      <path
         inkscape:connector-curvature="0"
         d="m 1685.4062,1352.0625 c -18.8528,5.6139 -36.0312,10.625 -36.0312,10.625 -1.5317,0.4633 -3.7171,0.6127 -6.125,-0.031 0,0 -12.6861,-3.6925 -22.8125,-6.625 -4.6017,7.4842 -6.4687,14.3126 -6.4687,14.3126 15.0766,0.3541 15.6461,4.9501 23.375,14.875 7.4992,-6.8817 27.8541,-20.7856 53.3124,-10.75 -0.4544,-9.3634 -2.133,-16.7465 -5.25,-22.4063 z"
         id="path5467"
         style="fill:#ffffff;fill-opacity:1" />
      <path
         inkscape:connector-curvature="0"
         style="font-size:medium;font-style:normal;font-variant:normal;font-weight:normal;font-stretch:normal;text-indent:0;text-align:start;text-decoration:none;line-height:normal;letter-spacing:normal;word-spacing:normal;text-transform:none;direction:ltr;block-progression:tb;writing-mode:lr-tb;text-anchor:start;baseline-shift:baseline;color:#000000;fill:#ffffff;fill-opacity:1;stroke:none;stroke-width:1.46565163;marker:none;visibility:visible;display:inline;overflow:visible;enable-background:accumulate;font-family:Sans;-inkscape-font-specification:Sans"
         d="m 1702.25,1347 c -0.8602,0.2603 -1.6599,0.5184 -2.5312,0.7812 -0.2065,0.1593 0.027,0.3037 1.125,0.5626 0.6195,0.2866 1.3206,0.8174 1.9687,1.4687 1.2963,1.3026 2.2813,3.1283 2.2813,4.3437 l 1.4687,0 c 0,-1.9135 -1.2288,-3.8775 -2.7187,-5.375 -0.5965,-0.5992 -0.985,-1.3466 -1.5938,-1.7812 z"
         id="path5469" />
      <path
         inkscape:connector-curvature="0"
         transform="matrix(0.24427527,0,0,0.24427527,1570.9394,1317.8239)"
         d="m 558.24898,150.34 c 0,3.08119 -2.4978,5.579 -5.579,5.579 -3.08119,0 -5.579,-2.49781 -5.579,-5.579 0,-3.0812 2.49781,-5.579 5.579,-5.579 3.0812,0 5.579,2.4978 5.579,5.579 z"
         id="path5471"
         style="fill:#ffffff;fill-opacity:1" />
      <path
         inkscape:connector-curvature="0"
         transform="matrix(0.24427527,0,0,0.24427527,1570.9394,1317.8239)"
         d="m 560.87503,156.88 c 0,4.47075 -3.62426,8.09501 -8.095,8.09501 -4.47075,0 -8.095,-3.62426 -8.095,-8.09501 0,-4.47074 3.62425,-8.095 8.095,-8.095 4.47074,0 8.095,3.62426 8.095,8.095 z"
         id="path5473"
         style="fill:#ffffff;fill-opacity:1" />
      <path
         inkscape:connector-curvature="0"
         transform="matrix(0.24427527,0,0,0.24427527,1570.9394,1317.8239)"
         d="m 560.87503,164.00999 c 0,4.47075 -3.62426,8.095 -8.095,8.095 -4.47075,0 -8.095,-3.62425 -8.095,-8.095 0,-4.47074 3.62425,-8.095 8.095,-8.095 4.47074,0 8.095,3.62426 8.095,8.095 z"
         id="path5475"
         style="fill:#ffffff;fill-opacity:1" />
      <path
         inkscape:connector-curvature="0"
         id="path5477"
         d="m 1710.6087,1366.017 c -0.1801,-0.2446 -0.3904,-0.4451 -0.4409,-0.6527 -0.3953,-1.6193 -1.5976,-6.5469 -3.2501,-6.9951 -0.2235,-0.061 -0.3608,-0.3129 -0.3068,-0.5638 0.054,-0.2509 0.2794,-0.404 0.5024,-0.3442 1.877,0.5089 3.0032,4.1561 3.8571,7.6563 0.061,0.249 -0.01,0.5543 -0.097,0.8513 -0.012,0.041 -0.072,0.2922 -0.1085,0.2922 l -0.1563,-0.2418 z"
         style="fill:#ffffff;fill-opacity:1" />
      <path
         inkscape:connector-curvature="0"
         id="path5479"
         d="m 1709.5705,1366.6912 c -0.18,-0.2446 -0.3904,-0.4451 -0.4409,-0.6527 -0.3953,-1.6193 -1.5976,-6.5469 -3.2501,-6.9951 -0.2235,-0.061 -0.3608,-0.3129 -0.3068,-0.5638 0.054,-0.2509 0.2794,-0.404 0.5025,-0.3442 1.877,0.5089 3.0031,4.1561 3.8571,7.6563 0.061,0.249 -0.01,0.5543 -0.097,0.8513 -0.012,0.041 -0.072,0.2922 -0.1085,0.2922 l -0.1587,-0.2418 z"
         style="fill:#ffffff;fill-opacity:1" />
      <path
         inkscape:connector-curvature="0"
         id="path5481"
         d="m 1707.0349,1367.0209 c 0.037,-0.3012 0.1214,-0.5791 0.064,-0.7851 -0.4507,-1.6048 -1.8213,-6.4882 -0.6014,-7.6895 0.1647,-0.1627 0.1603,-0.4497 -0.01,-0.642 -0.1702,-0.1917 -0.4419,-0.2149 -0.607,-0.053 -1.3855,1.3648 -0.5765,5.0946 0.3972,8.564 0.069,0.2465 0.2782,0.4793 0.5022,0.694 0.031,0.03 0.2064,0.2191 0.2382,0.2013 l 0.015,-0.2882 z"
         style="fill:#ffffff;fill-opacity:1" />
      <path
         inkscape:connector-curvature="0"
         id="path5483"
         d="m 1705.4862,1366.8988 c 0.037,-0.3012 0.1214,-0.5792 0.064,-0.7851 -0.4507,-1.6049 -1.8213,-6.4882 -0.6014,-7.6895 0.1647,-0.1627 0.1603,-0.4498 -0.01,-0.642 -0.1702,-0.1918 -0.4419,-0.215 -0.607,-0.053 -1.3855,1.3647 -0.5765,5.0946 0.3972,8.564 0.069,0.2465 0.2782,0.4793 0.5022,0.694 0.031,0.029 0.2064,0.2191 0.2382,0.2013 l 0.015,-0.2883 z"
         style="fill:#ffffff;fill-opacity:1" />
      <path
         inkscape:connector-curvature="0"
         id="path5485"
         d="m 1708.5739,1366.5764 c 0.05,-0.3733 0.1656,-0.7177 0.087,-0.9727 -0.6146,-1.9887 -2.484,-8.0391 -0.82,-9.5278 0.2245,-0.2015 0.2189,-0.5569 -0.013,-0.7953 -0.2323,-0.2377 -0.6026,-0.2663 -0.8281,-0.066 -1.8897,1.6909 -0.7866,6.3126 0.5418,10.6111 0.094,0.3053 0.3794,0.5938 0.6849,0.8598 0.042,0.037 0.2812,0.2717 0.3247,0.2495 l 0.022,-0.3591 z"
         style="fill:#ffffff;fill-opacity:1" />
      <path
         sodipodi:nodetypes="sssssssss"
         inkscape:connector-curvature="0"
         style="fill:#ffffff;fill-opacity:1;stroke:none"
         id="path5487"
         d="m 1730.5233,1332.3497 c 2.2633,0.4818 3.2428,2.6363 -0.1551,3.823 -15.8994,5.5526 -80.9873,24.5024 -80.9873,24.5024 -1.5317,0.4633 -3.7278,0.62 -6.1357,-0.024 0,0 -67.8935,-19.5259 -70.4302,-20.8008 -1.038,-0.5216 -1.2638,-2.3531 0.2411,-2.8982 1.6877,-0.6113 72.0878,-19.8652 74.0706,-20.4937 2.3941,-0.759 3.9892,-0.7068 6.5121,-0.1919 0,0 60.7506,12.6489 76.8845,16.0836 z" />
    </g>
    <path
       inkscape:export-ydpi="9.2600002"
       inkscape:export-xdpi="9.2600002"
       inkscape:export-filename="/home/simon/ricm/5/projet/depot/SmartCampus2014/appsClient/exampleAR/public_html/images/tramway.png"
       d="m 480.00002,428.07648 a 121.42857,121.42857 0 1 1 -242.85715,0 121.42857,121.42857 0 1 1 242.85715,0 z"
       sodipodi:ry="121.42857"
       sodipodi:rx="121.42857"
       sodipodi:cy="428.07648"
       sodipodi:cx="358.57144"
       id="path5523"
       style="fill:#008d46;fill-opacity:1;stroke:none"
       sodipodi:type="arc"
       transform="translate(-148.57143,362.85714)" />
    <path
       inkscape:export-ydpi="9.2600002"
       inkscape:export-xdpi="9.2600002"
       inkscape:export-filename="/home/simon/ricm/5/projet/depot/SmartCampus2014/appsClient/exampleAR/public_html/images/tramway.png"
       sodipodi:nodetypes="cscc"
       inkscape:connector-curvature="0"
       id="path5525"
       d="m 331.42859,790.93362 c 0,67.06315 -54.36543,121.42857 -121.42858,121.42857 -67.06315,0 -121.428569,-54.36542 -121.428569,-121.42857 53.893489,25.01346 173.946279,35.30894 242.857149,0 z"
       style="fill:#000000;fill-opacity:0.11450381;stroke:none" />
    <g
       id="layer1-7"
       inkscape:label="Layer 1"
       transform="matrix(0.34482119,0,0,0.34482119,125.00028,701.94671)"
       style="fill:#ffffff;fill-opacity:1"
       inkscape:export-filename="/home/simon/ricm/5/projet/depot/SmartCampus2014/appsClient/exampleAR/public_html/images/tramway.png"
       inkscape:export-xdpi="9"
       inkscape:export-ydpi="9">
      <g
         transform="matrix(0.9644122,0,0,1.0371475,88.297691,0.03113298)"
         id="g4439"
         style="fill:#ffffff;fill-opacity:1">
        <path
           style="fill:#ffffff;fill-opacity:1;fill-rule:evenodd;stroke:none"
           d="m 161.07098,47.690989 12.08183,0 0,-40.1893742 -12.08183,0 0,40.1893742 z"
           id="path4420"
           inkscape:connector-curvature="0" />
        <path
           style="fill:#ffffff;fill-opacity:1;fill-rule:evenodd;stroke:none"
           d="M 94.997533,0 94.093656,0.03012697 93.189778,0.0903809 92.2859,0.15063484 91.412152,0.2711427 90.538404,0.3615236 89.664655,0.51215844 88.851166,0.66279327 88.007547,0.87368204 87.224186,1.0845708 86.440825,1.3255865 85.687594,1.5666023 84.934363,1.867872 84.211261,2.1992686 83.518288,2.5306652 82.855444,2.8921888 82.22273,3.3139664 81.590016,3.7357439 81.01756,4.2177754 80.445104,4.6998069 79.932907,5.2119653 79.42071,5.7843777 78.968771,6.35679 l -0.451939,0.6326663 -0.39168,0.6627933 -0.361551,0.6929203 -0.331422,0.7230472 -0.301293,0.7531741 -0.241034,0.8134278 -0.210904,0.813428 -0.180776,0.873683 -0.120517,0.903809 -0.03013,0.451904 0.03013,0.451905 0.03013,0.421777 0.120517,0.421778 0.120517,0.39165 0.180776,0.391651 0.210905,0.361523 0.241034,0.361524 0.301292,0.30127 0.301293,0.301269 0.331422,0.241016 0.361551,0.241016 0.361551,0.180762 0.421809,0.180761 0.42181,0.120508 0.421809,0.06025 0.692973,0.06025 0.632714,0 0.602585,-0.09038 0.512198,-0.09038 0.512197,-0.180761 0.451939,-0.210889 0.39168,-0.271143 0.39168,-0.271143 0.361551,-0.331396 0.331422,-0.361524 0.301293,-0.39165 0.331421,-0.391651 0.572456,-0.873682 0.602585,-0.903809 0.301293,-0.482032 0.301292,-0.451904 0.361551,-0.451905 0.361551,-0.451904 0.391681,-0.421778 0.421809,-0.421777 0.451939,-0.391651 0.482068,-0.361523 0.542327,-0.331397 0.602585,-0.3012697 0.632714,-0.2711427 0.723102,-0.2410157 0.753231,-0.1807618 0.843619,-0.1506348 0.903878,-0.090381 0.964136,-0.030127 142.420979,0 0.99426,0.030127 0.90388,0.090381 0.84362,0.1506348 0.75323,0.1807618 0.7231,0.2108888 0.66285,0.2711427 0.60258,0.3313966 0.54233,0.331397 0.51219,0.361523 0.45194,0.391651 0.42181,0.421777 0.42181,0.421778 0.36155,0.451904 0.33143,0.421778 0.33142,0.482031 0.33142,0.451905 0.57245,0.903809 0.60259,0.873682 0.30129,0.391651 0.30129,0.39165 0.33143,0.361524 0.36155,0.331396 0.39168,0.271143 0.39168,0.271143 0.42181,0.210889 0.48207,0.180761 0.51219,0.120508 0.57246,0.06025 0.60258,0.03013 0.66285,-0.06025 0.45194,-0.06025 0.42181,-0.120508 0.42181,-0.180761 0.36155,-0.180762 0.36155,-0.241016 0.33142,-0.241016 0.30129,-0.301269 0.30129,-0.30127 0.24104,-0.361524 0.2109,-0.361523 0.18078,-0.391651 0.12052,-0.39165 0.0904,-0.421778 0.0603,-0.421777 0.0301,-0.451905 -0.0301,-0.451904 -0.12052,-0.903809 -0.18077,-0.873683 L 257.3942,10.634819 257.15317,9.8213912 256.85188,9.0682171 256.52046,8.3451699 256.1589,7.6522496 255.76722,6.9894563 255.34542,6.35679 254.86335,5.7843777 254.38128,5.2119653 253.83895,4.6998069 253.2665,4.2177754 252.69404,3.7357439 252.09146,3.3139664 251.42861,2.8921888 250.76577,2.5306652 250.0728,2.1992686 249.34969,1.867872 248.62659,1.5666023 247.84323,1.3255865 247.05987,1.0845708 246.27651,0.87368204 245.46302,0.66279327 244.6194,0.51215844 243.74565,0.3615236 242.90203,0.2711427 241.99816,0.15063484 241.09428,0.0903809 240.1904,0.03012697 239.28652,0 238.35252,0 95.93154,0 94.997533,0 z"
           id="path4422"
           inkscape:connector-curvature="0" />
        <path
           style="fill:#ffffff;fill-opacity:1;fill-rule:evenodd;stroke:none"
           d="m 89.031941,294.97313 0.03013,0.39165 0,0.39166 0.03013,0.39165 0.06026,0.36152 0.06026,0.3314 0.09039,0.30127 0.09039,0.30127 0.120517,0.30127 0.09039,0.24101 0.150646,0.27114 0.150647,0.24102 0.150646,0.21089 0.150646,0.21089 0.180776,0.18076 0.180775,0.18076 0.210905,0.15064 0.210905,0.15063 0.210904,0.12051 0.210905,0.15063 0.241034,0.0904 0.482068,0.21089 0.542327,0.12051 0.542326,0.12051 0.572456,0.0602 0.572456,0.0603 0.632714,0 0.602585,0 0.602585,-0.0301 0.572456,-0.0602 0.542327,-0.12051 0.512197,-0.15064 0.512197,-0.18076 0.241034,-0.0904 0.210905,-0.12051 0.210905,-0.15063 0.210905,-0.15064 0.210904,-0.15063 0.180776,-0.18076 0.180775,-0.18077 0.180776,-0.21089 0.150649,-0.21088 0.15064,-0.24102 0.12052,-0.24102 0.12052,-0.27114 0.12051,-0.27114 0.0904,-0.30127 0.0603,-0.3314 0.0904,-0.33139 0.0301,-0.3314 0.0603,-0.39165 0,-0.39165 0.0301,-0.42178 -0.0904,-115.6273 0,-0.42178 -0.0301,-0.39165 -0.0301,-0.36152 -0.0301,-0.36152 -0.0904,-0.3314 -0.0603,-0.3314 -0.0904,-0.30127 -0.12051,-0.30127 -0.12052,-0.27114 -0.12052,-0.27114 -0.15064,-0.24102 -0.150648,-0.21089 -0.180775,-0.21088 -0.150646,-0.21089 -0.210905,-0.18077 -0.180776,-0.18076 -0.210904,-0.15063 -0.210905,-0.15064 -0.241034,-0.1205 -0.210905,-0.12051 -0.512197,-0.21089 -0.512198,-0.18076 -0.542326,-0.12051 -0.572456,-0.0904 -0.602585,-0.0603 -0.602585,0 -0.632714,0 -0.572456,0.0603 -0.572456,0.0602 -0.572456,0.12051 -0.512197,0.15063 -0.482068,0.21089 -0.241034,0.12051 -0.241034,0.15064 -0.210905,0.1205 -0.210905,0.18077 -0.180775,0.15063 -0.210905,0.18076 -0.150646,0.21089 -0.180776,0.21089 -0.150646,0.24102 -0.150646,0.24101 -0.120517,0.24102 -0.120517,0.27114 -0.120517,0.30127 -0.09039,0.30127 -0.09039,0.3314 -0.06026,0.33139 -0.06026,0.36153 -0.03013,0.36152 -0.03013,0.42178 0,0.39165 0.06026,115.65742 z"
           id="path4424"
           inkscape:connector-curvature="0" />
        <path
           style="fill:#ffffff;fill-opacity:1;fill-rule:evenodd;stroke:none"
           d="m 94.394948,237.55113 -0.210905,0.21089 -0.241034,0.24102 -0.180775,0.24102 -0.210905,0.24101 -0.150646,0.24102 -0.180776,0.24101 -0.150646,0.27115 -0.241034,0.54228 -0.180776,0.57241 -0.150646,0.57242 -0.09039,0.60253 -0.03013,0.60254 0.03013,0.60254 0.09039,0.60254 0.150646,0.57241 0.09039,0.30127 0.120517,0.30127 0.120517,0.27115 0.120517,0.30127 0.180776,0.27114 0.150646,0.27114 0.180776,0.27114 0.210904,0.24102 67.670296,84.08437 0.21091,0.24101 0.2109,0.24102 0.24104,0.21089 0.24103,0.21088 0.24104,0.21089 0.24103,0.18077 0.27116,0.15063 0.27117,0.18076 0.54232,0.27114 0.54233,0.21089 0.60258,0.15064 0.57246,0.12051 0.60258,0.0301 0.60259,0 0.30129,-0.0301 0.27117,-0.0301 0.30129,-0.0603 0.30129,-0.0602 0.27116,-0.0904 0.3013,-0.0904 0.27116,-0.12051 0.27116,-0.15063 0.27117,-0.12051 0.27116,-0.18076 0.24103,-0.18076 0.27117,-0.18077 0.24103,-0.21089 0.21091,-0.21088 0.2109,-0.21089 0.21091,-0.24102 0.18077,-0.24101 0.18078,-0.24102 0.15064,-0.27114 0.15065,-0.27115 0.24103,-0.54228 0.21091,-0.54229 0.12051,-0.60254 0.0904,-0.57241 0.0301,-0.60254 -0.0301,-0.60254 -0.0904,-0.60254 -0.12051,-0.60254 -0.21091,-0.57241 -0.27116,-0.57241 -0.15065,-0.27114 -0.15064,-0.27115 -0.18078,-0.27114 -0.2109,-0.27114 -67.6703,-84.05424 -0.21091,-0.24101 -0.2109,-0.24102 -0.24104,-0.24102 -0.24103,-0.21089 -0.48207,-0.36152 -0.54233,-0.3314 -0.54232,-0.27114 -0.54233,-0.24101 -0.602583,-0.15064 -0.572456,-0.0904 -0.602585,-0.0602 -0.602585,0 -0.572456,0.0904 -0.602585,0.12051 -0.271163,0.0904 -0.301292,0.0904 -0.271164,0.12051 -0.271163,0.1205 -0.271163,0.15064 -0.271164,0.15063 -0.241034,0.18076 -0.271163,0.18077 -0.241034,0.21088 z"
           id="path4426"
           inkscape:connector-curvature="0" />
        <path
           style="fill:#ffffff;fill-opacity:1;fill-rule:evenodd;stroke:none"
           d="m 55.859634,45.310958 -2.169306,0.06025 -2.169306,0.150635 -2.109048,0.271143 -2.078918,0.39165 -2.048789,0.451905 -1.988531,0.572412 -1.988531,0.662794 -1.898143,0.753174 -1.898143,0.873682 -1.807755,0.933936 -1.777626,1.024317 -1.717367,1.08457 -1.657109,1.174952 -1.59685,1.265333 -1.536592,1.325586 -1.476334,1.415968 -1.385945,1.476221 -1.355817,1.536476 -1.235299,1.596729 -1.20517,1.656983 -1.084653,1.717237 -1.024395,1.747364 -0.934007,1.837745 -0.843619,1.867872 -0.753231,1.928126 -0.662843,1.958253 -0.572456,2.018507 -0.482068,2.048633 -0.361551,2.078761 -0.271164,2.108888 -0.180775,2.139014 -0.06026,2.169142 0,-0.542285 L 0,381.76893 l 0,0.30127 0.0602585,2.16914 0.15064627,2.13901 0.27116327,2.10889 0.39168028,2.07876 0.45193878,2.04863 0.5724558,2.01851 0.6628436,1.95825 0.7833605,1.92813 0.8436191,1.86787 0.9340068,1.80762 1.0243946,1.77749 1.0846531,1.71724 1.1750409,1.65698 1.2654286,1.59673 1.3256869,1.53648 1.416075,1.47622 1.476333,1.38584 1.536592,1.35571 1.596851,1.23521 1.657109,1.20508 1.717367,1.08457 1.777626,1.02431 1.807755,0.93394 1.868014,0.84355 1.928272,0.75318 1.958401,0.66279 2.01866,0.57241 2.048789,0.48204 2.078919,0.36152 2.109047,0.27114 2.139177,0.18076 2.169307,0.0603 250.735639,0 2.16931,-0.0603 2.13917,-0.18076 2.10905,-0.27114 2.07892,-0.36152 2.04879,-0.48204 2.01866,-0.57241 1.9584,-0.66279 1.92827,-0.75318 1.86802,-0.84355 1.83788,-0.93394 1.7475,-1.02431 1.71736,-1.08457 1.65711,-1.20508 1.59685,-1.23521 1.5366,-1.35571 1.47633,-1.38584 1.41607,-1.47622 1.32569,-1.53648 1.26543,-1.59673 1.17504,-1.65698 1.08465,-1.71724 1.0244,-1.77749 0.934,-1.80762 0.84362,-1.86787 0.78336,-1.92813 0.66285,-1.95825 0.57245,-2.01851 0.45194,-2.04863 0.39168,-2.07876 0.27117,-2.10889 0.15064,-2.13901 0.0603,-2.16914 -0.0301,-0.57242 -13.4979,-294.430845 0,0.542285 -0.0603,-2.169142 -0.15065,-2.139014 -0.27116,-2.108888 -0.36155,-2.078761 -0.48207,-2.048633 -0.57246,-2.018507 -0.66284,-1.958253 -0.75323,-1.928126 -0.84362,-1.867872 -0.96414,-1.837745 -0.99426,-1.747364 -1.11478,-1.717237 -1.17505,-1.656983 -1.26542,-1.596729 -1.32569,-1.536476 -1.41608,-1.476221 -1.4462,-1.415968 -1.53659,-1.325586 -1.62698,-1.265333 -1.65711,-1.174952 -1.71737,-1.08457 -1.74749,-1.024317 -1.83789,-0.933936 -1.86801,-0.873682 -1.92827,-0.753174 -1.95841,-0.662794 -2.01866,-0.572412 -2.04879,-0.451905 -2.07891,-0.39165 -2.10905,-0.271143 -2.13918,-0.150635 -2.1693,-0.06025 -223.649446,0 z m 4.067449,304.041352 -1.416075,0.0904 -1.295557,0.21089 -1.2353,0.39165 -1.144911,0.48203 -1.024395,0.63267 -0.964136,0.72304 -0.873748,0.81343 -0.753232,0.93394 -0.692973,0.99419 -0.572455,1.05444 -0.512198,1.1147 -0.39168,1.17495 -0.331422,1.23521 -0.210904,1.2352 -0.150647,1.26534 -0.03013,1.29546 0.03013,1.26533 0.150647,1.26533 0.210904,1.23521 0.331422,1.2352 0.39168,1.17495 0.512198,1.1147 0.572455,1.08457 0.692973,0.99419 0.783361,0.90381 0.843619,0.84356 0.964136,0.72304 1.024395,0.60254 1.144911,0.51216 1.2353,0.36153 1.295557,0.21088 1.416075,0.0904 16.390314,0 1.385945,-0.0904 1.325687,-0.21088 1.2353,-0.36153 1.114782,-0.51216 1.054524,-0.60254 0.964136,-0.72304 0.843619,-0.84356 0.783361,-0.90381 0.692972,-0.99419 0.572456,-1.08457 0.512198,-1.1147 0.39168,-1.17495 0.331422,-1.2352 0.210904,-1.23521 0.150647,-1.26533 0.06026,-1.26533 -0.06026,-1.29546 -0.150647,-1.26534 -0.210904,-1.2352 -0.331422,-1.23521 -0.39168,-1.17495 -0.512198,-1.1147 -0.572456,-1.05444 -0.692972,-0.99419 -0.783361,-0.93394 -0.843619,-0.81343 -0.964136,-0.72304 -1.054524,-0.63267 -1.114782,-0.48203 -1.2353,-0.39165 -1.325687,-0.21089 -1.385945,-0.0904 -16.390314,0 z m 199.124227,0 -0.60258,0.0301 -0.60259,0.0603 -0.60258,0.0904 -0.60259,0.15064 -0.57245,0.15063 -0.57246,0.21089 -0.54233,0.24102 -0.54232,0.27114 -0.54233,0.30127 -0.5122,0.33139 -0.48206,0.36153 -0.48207,0.39165 -0.48207,0.39165 -0.45194,0.4519 -0.42181,0.45191 -0.42181,0.4519 -0.39168,0.51216 -0.36155,0.51216 -0.36155,0.51216 -0.33142,0.54228 -0.33142,0.57242 -0.27117,0.57241 -0.27116,0.57241 -0.24103,0.60254 -0.21091,0.57241 -0.18077,0.63267 -0.15065,0.60254 -0.15065,0.60254 -0.0904,0.63266 -0.0904,0.60254 -0.0301,0.63267 -0.0301,0.60254 0.0301,0.63266 0.0301,0.60254 0.0904,0.63267 0.0904,0.60254 0.15065,0.63267 0.15065,0.60254 0.18077,0.60253 0.21091,0.60254 0.24103,0.60254 0.27116,0.57242 0.27117,0.57241 0.33142,0.57241 0.33142,0.54229 0.36155,0.51215 0.36155,0.51216 0.39168,0.51216 0.42181,0.45191 0.42181,0.4519 0.45194,0.4519 0.48207,0.39166 0.48207,0.39165 0.48206,0.36152 0.5122,0.3314 0.54233,0.30127 0.54232,0.27114 0.54233,0.24101 0.57246,0.21089 0.57245,0.18077 0.60259,0.1205 0.60258,0.0904 0.60259,0.0603 0.60258,0.0301 16.36019,0 0.60258,-0.0301 0.63272,-0.0603 0.57245,-0.0904 0.60259,-0.1205 0.57245,-0.18077 0.57246,-0.21089 0.54233,-0.24101 0.54232,-0.27114 0.54233,-0.30127 0.5122,-0.3314 0.48206,-0.36152 0.48207,-0.39165 0.48207,-0.39166 0.45194,-0.4519 0.42181,-0.4519 0.42181,-0.45191 0.39168,-0.51216 0.36155,-0.51216 0.36155,-0.51215 0.33142,-0.54229 0.30129,-0.57241 0.3013,-0.57241 0.24103,-0.57242 0.24104,-0.60254 0.2109,-0.60254 0.2109,-0.60253 0.15065,-0.60254 0.12052,-0.63267 0.12051,-0.60254 0.0603,-0.63267 0.0603,-0.60254 0,-0.63266 0,-0.60254 -0.0603,-0.63267 -0.0603,-0.60254 -0.12051,-0.63266 -0.12052,-0.60254 -0.15065,-0.60254 -0.2109,-0.63267 -0.2109,-0.57241 -0.24104,-0.60254 -0.24103,-0.57241 -0.3013,-0.57241 -0.30129,-0.57242 -0.33142,-0.54228 -0.36155,-0.51216 -0.36155,-0.51216 -0.39168,-0.51216 -0.42181,-0.4519 -0.42181,-0.45191 -0.45194,-0.4519 -0.48207,-0.39165 -0.48207,-0.39165 -0.48206,-0.36153 -0.5122,-0.33139 -0.54233,-0.30127 -0.54232,-0.27114 -0.54233,-0.24102 -0.57246,-0.21089 -0.57245,-0.15063 -0.60259,-0.15064 -0.57245,-0.0904 -0.63272,-0.0603 -0.60258,-0.0301 -16.36019,0 z M 60.137988,110.86724 l 0,-0.27114 0,-0.27115 0.03013,-0.51216 0.09039,-0.48203 0.120517,-0.48203 0.180776,-0.4519 0.180775,-0.42178 0.271163,-0.42178 0.271164,-0.39165 0.331421,-0.36152 0.361551,-0.30127 0.361551,-0.30127 0.42181,-0.24102 0.451939,-0.21089 0.451939,-0.18076 0.451938,-0.12051 0.512198,-0.0602 0.512197,-0.0301 205.150073,0 0.5122,0.0301 0.48207,0.0602 0.48207,0.12051 0.45194,0.18076 0.42181,0.21089 0.42181,0.24102 0.36155,0.30127 0.36155,0.30127 0.33142,0.36152 0.27116,0.39165 0.27117,0.42178 0.18077,0.42178 0.18078,0.4519 0.12051,0.48203 0.0904,0.48203 0,0.51216 0,0.27115 0.0301,0.27114 0.0904,2.22939 0.24103,6.32667 0.39168,9.82139 0.5122,12.71358 0.60259,15.09361 0.69297,16.84097 0.69297,18.01593 0.75323,18.58834 0.75323,18.61846 0.72311,18.04606 0.66284,16.90123 0.60258,15.15386 0.5122,12.86422 0.39168,9.94189 0.27117,6.4773 0.0904,2.41016 -0.0301,0.51216 -0.0602,0.48203 -0.12052,0.48203 -0.18078,0.45191 -0.2109,0.42177 -0.24104,0.42178 -0.30129,0.36152 -0.30129,0.36153 -0.36155,0.30127 -0.39168,0.30127 -0.39168,0.24101 -0.42181,0.21089 -0.48207,0.18076 -0.45194,0.12051 -0.5122,0.0603 -0.48206,0.0301 -221.208973,0 -0.482069,-0.0301 -0.512197,-0.0603 -0.451939,-0.12051 -0.451938,-0.18076 -0.451939,-0.21089 -0.39168,-0.24101 -0.391681,-0.30127 -0.361551,-0.30127 -0.301292,-0.36153 -0.301293,-0.36152 -0.241034,-0.42178 -0.210905,-0.42177 -0.180775,-0.45191 -0.120517,-0.48203 -0.06026,-0.48203 -0.03013,-0.51216 0.09039,-2.41016 0.271163,-6.4773 0.39168,-9.94189 0.512198,-12.86422 0.602585,-15.15386 0.662843,-16.90123 0.723102,-18.04606 0.753232,-18.61846 0.723102,-18.58834 0.723102,-18.01593 0.692973,-16.84097 0.602585,-15.06348 0.512197,-12.74371 0.39168,-9.82139 0.241034,-6.32667 0.09039,-2.22939 z"
           id="path4428"
           inkscape:connector-curvature="0" />
        <path
           style="fill:#ffffff;fill-opacity:1;fill-rule:evenodd;stroke:none"
           d="m 51.731927,397.46508 0,0.96406 0,1.50635 0,1.98838 0,2.3499 0,2.6813 0,2.92232 0,3.04282 0,3.1332 0,3.13321 0,3.0127 0,2.86206 0,2.62104 0,2.28965 0,1.898 0,1.41597 -1.175041,1.1147 -1.687238,1.59673 -2.139177,2.04863 -2.470599,2.3499 -2.771891,2.62105 -2.952667,2.83193 -3.043055,2.89219 -3.073183,2.95245 -3.043055,2.86206 -2.892408,2.77168 -2.651374,2.53066 -2.380211,2.25953 -1.988531,1.898 -1.506462,1.44609 -0.964137,0.93394 -0.361551,0.33139 -0.331421,0.3314 -0.301293,0.3314 -0.301292,0.36152 -0.271164,0.36152 -0.241034,0.36153 -0.241034,0.39165 -0.210905,0.39165 -0.180775,0.39165 -0.150646,0.42178 -0.150647,0.39165 -0.120517,0.42177 -0.09039,0.42178 -0.06026,0.42178 -0.06026,0.42178 -0.03013,0.42177 -0.03013,0.42178 0.03013,0.45191 0.03013,0.4519 0.06026,0.42178 0.06026,0.4519 0.120517,0.42178 0.120517,0.42178 0.150646,0.42178 0.180775,0.42177 0.180776,0.39165 0.210905,0.42178 0.241034,0.39165 0.271163,0.36153 0.271163,0.39165 0.301293,0.36152 0.331422,0.3314 0.361551,0.36152 0.361551,0.30127 0.39168,0.30127 0.39168,0.27114 0.391681,0.27114 0.39168,0.21089 0.421809,0.21089 0.42181,0.21089 0.451939,0.15064 0.421809,0.15063 0.451939,0.15064 0.451939,0.0904 0.451939,0.0904 0.482068,0.0602 0.451938,0.0603 0.451939,0.0301 0.482068,0 0.451939,0 0.482068,-0.0602 0.451939,-0.0603 0.451939,-0.0602 0.451938,-0.0904 0.451939,-0.12051 0.451939,-0.15063 0.42181,-0.15064 0.451938,-0.18076 0.42181,-0.21089 0.39168,-0.21089 0.42181,-0.24101 0.39168,-0.27115 0.361551,-0.27114 0.39168,-0.30127 0.361551,-0.33139 37.872471,-36.06198 0.301292,-0.3314 0.301293,-0.3314 0.301292,-0.36152 0.271164,-0.36152 0.241034,-0.36153 0.210904,-0.36152 0.210905,-0.39165 0.210905,-0.39165 0.150646,-0.42178 0.150646,-0.39165 0.120517,-0.42178 0.09039,-0.42178 0.09039,-0.4519 0.06026,-0.42178 0.03013,-0.4519 0,-0.42178 0,-39.82785 0,-0.48203 -0.03013,-0.45191 -0.06026,-0.4519 -0.09039,-0.45191 -0.120517,-0.42177 -0.120517,-0.42178 -0.150646,-0.42178 -0.180776,-0.42178 -0.180775,-0.39165 -0.210905,-0.39165 -0.241034,-0.39165 -0.271163,-0.36152 -0.271163,-0.3314 -0.271164,-0.36152 -0.301292,-0.3314 -0.331422,-0.30127 -0.331422,-0.30127 -0.361551,-0.27114 -0.361551,-0.27114 -0.39168,-0.27115 -0.39168,-0.21088 -0.391681,-0.24102 -0.421809,-0.18076 -0.42181,-0.18076 -0.451939,-0.18077 -0.451938,-0.1205 -0.451939,-0.12051 -0.451939,-0.12051 -0.482068,-0.0602 -0.482068,-0.0603 -0.512197,-0.0301 -0.482068,-0.0301 -0.512198,0.0301 -0.482068,0.0301 -0.482068,0.0603 -0.482068,0.0602 -0.451939,0.12051 -0.451938,0.12051 -0.451939,0.1205 -0.451939,0.18077 -0.421809,0.18076 -0.42181,0.18076 -0.39168,0.24102 -0.391681,0.21088 -0.39168,0.27115 -0.361551,0.27114 -0.361551,0.27114 -0.331422,0.30127 -0.301292,0.30127 -0.301293,0.3314 -0.301292,0.36152 -0.271164,0.3314 -0.241034,0.36152 -0.241034,0.39165 -0.210904,0.39165 -0.180776,0.39165 -0.180775,0.42178 -0.150647,0.42178 -0.150646,0.42178 -0.09039,0.42177 -0.09039,0.45191 -0.06026,0.4519 -0.03013,0.45191 -0.03013,0.48203 0,0.3314 z"
           id="path4430"
           inkscape:connector-curvature="0" />
        <path
           style="fill:#ffffff;fill-opacity:1;fill-rule:evenodd;stroke:none"
           d="m 264.26367,436.96153 0.0301,0.42178 0.0301,0.4519 0.0603,0.42178 0.0603,0.4519 0.12052,0.42178 0.12051,0.42178 0.15065,0.39165 0.15065,0.42178 0.18077,0.39165 0.21091,0.39165 0.24103,0.36152 0.24103,0.36153 0.27117,0.36152 0.27116,0.36152 0.30129,0.3314 0.33143,0.3314 37.84234,36.06198 0.36155,0.33139 0.39168,0.30127 0.36155,0.27114 0.42181,0.27115 0.39168,0.24101 0.42181,0.21089 0.42181,0.21089 0.42181,0.18076 0.45194,0.15064 0.42181,0.15063 0.45193,0.12051 0.45194,0.0904 0.48207,0.0602 0.45194,0.0603 0.45194,0.0602 0.48207,0 0.45194,0 0.45193,-0.0301 0.48207,-0.0603 0.45194,-0.0602 0.45194,-0.0904 0.45194,-0.0904 0.45194,-0.15064 0.45194,-0.15063 0.42181,-0.15064 0.42181,-0.21089 0.4218,-0.21089 0.42181,-0.21089 0.39168,-0.27114 0.39168,-0.27114 0.39169,-0.30127 0.36155,-0.30127 0.33142,-0.36152 0.33142,-0.3314 0.30129,-0.36152 0.30129,-0.39165 0.24104,-0.36153 0.24103,-0.39165 0.21091,-0.42178 0.2109,-0.39165 0.15065,-0.42177 0.15064,-0.42178 0.12052,-0.42178 0.12052,-0.42178 0.0603,-0.4519 0.0603,-0.42178 0.0301,-0.4519 0.0301,-0.45191 -0.0301,-0.42178 -0.0301,-0.42177 -0.0603,-0.42178 -0.0603,-0.42178 -0.0904,-0.42178 -0.12052,-0.42177 -0.15064,-0.39165 -0.15065,-0.42178 -0.18077,-0.39165 -0.21091,-0.39165 -0.24103,-0.39165 -0.24104,-0.36153 -0.27116,-0.36152 -0.27116,-0.36152 -0.33143,-0.3314 -0.33142,-0.3314 -0.33142,-0.33139 -0.96413,-0.93394 -1.5366,-1.44609 -1.98853,-1.898 -2.35008,-2.25953 -2.6815,-2.53066 -2.89241,-2.77168 -3.01293,-2.86206 -3.10331,-2.95245 -3.04305,-2.89219 -2.95267,-2.83193 -2.77189,-2.62105 -2.4706,-2.3499 -2.13918,-2.04863 -1.68724,-1.59673 -1.17504,-1.1147 0,-1.41597 0,-1.898 0,-2.28965 0,-2.62104 0,-2.86206 0,-3.0127 0,-3.13321 0,-3.1332 0,-3.04282 0,-2.92232 0,-2.6813 0,-2.3499 0,-1.98838 0,-1.50635 0,-0.96406 0,-0.3314 -0.0301,-0.48203 -0.0301,-0.45191 -0.0603,-0.4519 -0.0904,-0.45191 -0.0904,-0.42177 -0.15064,-0.42178 -0.15065,-0.42178 -0.15065,-0.42178 -0.2109,-0.39165 -0.21091,-0.39165 -0.24103,-0.39165 -0.24103,-0.36152 -0.27117,-0.3314 -0.27116,-0.36152 -0.33142,-0.3314 -0.3013,-0.30127 -0.33142,-0.30127 -0.36155,-0.27114 -0.36155,-0.27114 -0.39168,-0.27115 -0.39168,-0.21088 -0.39168,-0.24102 -0.42181,-0.18076 -0.42181,-0.18076 -0.45194,-0.18077 -0.45194,-0.1205 -0.45194,-0.12051 -0.45193,-0.12051 -0.48207,-0.0602 -0.48207,-0.0603 -0.48207,-0.0301 -0.5122,-0.0301 -0.48206,0.0301 -0.5122,0.0301 -0.48207,0.0603 -0.45194,0.0602 -0.48207,0.12051 -0.45194,0.12051 -0.45193,0.1205 -0.45194,0.18077 -0.42181,0.18076 -0.42181,0.18076 -0.39168,0.24102 -0.39168,0.21088 -0.39168,0.27115 -0.36155,0.27114 -0.33143,0.27114 -0.36155,0.30127 -0.30129,0.30127 -0.30129,0.3314 -0.30129,0.36152 -0.27117,0.3314 -0.24103,0.36152 -0.24104,0.39165 -0.2109,0.39165 -0.18078,0.39165 -0.18077,0.42178 -0.15065,0.42178 -0.15064,0.42178 -0.0904,0.42177 -0.0904,0.45191 -0.0603,0.4519 -0.0301,0.45191 -0.0301,0.48203 0,39.82785 z"
           id="path4432"
           inkscape:connector-curvature="0" />
      </g>
    </g>
  </g>
</svg>
