<?xml version="1.0" encoding="UTF-8" standalone="no"?>
<!-- Created with Inkscape (http://www.inkscape.org/) -->

<svg
   xmlns:dc="http://purl.org/dc/elements/1.1/"
   xmlns:cc="http://creativecommons.org/ns#"
   xmlns:rdf="http://www.w3.org/1999/02/22-rdf-syntax-ns#"
   xmlns:svg="http://www.w3.org/2000/svg"
   xmlns="http://www.w3.org/2000/svg"
   xmlns:sodipodi="http://sodipodi.sourceforge.net/DTD/sodipodi-0.dtd"
   xmlns:inkscape="http://www.inkscape.org/namespaces/inkscape"
   width="210mm"
   height="297mm"
   id="svg2"
   version="1.1"
   inkscape:version="0.48.3.1 r9886"
   sodipodi:docname="pois.svg">
  <defs
     id="defs4">
    <inkscape:perspective
       sodipodi:type="inkscape:persp3d"
       inkscape:vp_x="0 : 526.18109 : 1"
       inkscape:vp_y="0 : 1000 : 0"
       inkscape:vp_z="744.09448 : 526.18109 : 1"
       inkscape:persp3d-origin="372.04724 : 350.78739 : 1"
       id="perspective4087" />
    <inkscape:perspective
       id="perspective4213"
       inkscape:persp3d-origin="420.94501 : 198.42668 : 1"
       inkscape:vp_z="841.89001 : 297.64001 : 1"
       inkscape:vp_y="0 : 1000 : 0"
       inkscape:vp_x="0 : 297.64001 : 1"
       sodipodi:type="inkscape:persp3d" />
    <inkscape:perspective
       id="perspective3038"
       inkscape:persp3d-origin="0.5 : 0.33333333 : 1"
       inkscape:vp_z="1 : 0.5 : 1"
       inkscape:vp_y="0 : 1000 : 0"
       inkscape:vp_x="0 : 0.5 : 1"
       sodipodi:type="inkscape:persp3d" />
    <inkscape:perspective
       id="perspective3093"
       inkscape:persp3d-origin="420.94501 : 198.42668 : 1"
       inkscape:vp_z="841.89001 : 297.64001 : 1"
       inkscape:vp_y="0 : 1000 : 0"
       inkscape:vp_x="0 : 297.64001 : 1"
       sodipodi:type="inkscape:persp3d" />
    <inkscape:perspective
       id="perspective3183"
       inkscape:persp3d-origin="0.5 : 0.33333333 : 1"
       inkscape:vp_z="1 : 0.5 : 1"
       inkscape:vp_y="0 : 1000 : 0"
       inkscape:vp_x="0 : 0.5 : 1"
       sodipodi:type="inkscape:persp3d" />
    <inkscape:perspective
       sodipodi:type="inkscape:persp3d"
       inkscape:vp_x="0 : 526.18109 : 1"
       inkscape:vp_y="0 : 1000 : 0"
       inkscape:vp_z="744.09448 : 526.18109 : 1"
       inkscape:persp3d-origin="372.04724 : 350.78739 : 1"
       id="perspective4087-7" />
    <inkscape:perspective
       id="perspective4213-4"
       inkscape:persp3d-origin="420.94501 : 198.42668 : 1"
       inkscape:vp_z="841.89001 : 297.64001 : 1"
       inkscape:vp_y="0 : 1000 : 0"
       inkscape:vp_x="0 : 297.64001 : 1"
       sodipodi:type="inkscape:persp3d" />
    <inkscape:perspective
       id="perspective3038-3"
       inkscape:persp3d-origin="0.5 : 0.33333333 : 1"
       inkscape:vp_z="1 : 0.5 : 1"
       inkscape:vp_y="0 : 1000 : 0"
       inkscape:vp_x="0 : 0.5 : 1"
       sodipodi:type="inkscape:persp3d" />
    <inkscape:perspective
       id="perspective3053"
       inkscape:persp3d-origin="0.5 : 0.33333333 : 1"
       inkscape:vp_z="1 : 0.5 : 1"
       inkscape:vp_y="0 : 1000 : 0"
       inkscape:vp_x="0 : 0.5 : 1"
       sodipodi:type="inkscape:persp3d" />
    <inkscape:perspective
       id="perspective3670"
       inkscape:persp3d-origin="420.94501 : 198.42668 : 1"
       inkscape:vp_z="841.89001 : 297.64001 : 1"
       inkscape:vp_y="0 : 1000 : 0"
       inkscape:vp_x="0 : 297.64001 : 1"
       sodipodi:type="inkscape:persp3d" />
    <inkscape:perspective
       sodipodi:type="inkscape:persp3d"
       inkscape:vp_x="0 : 526.18109 : 1"
       inkscape:vp_y="0 : 1000 : 0"
       inkscape:vp_z="744.09448 : 526.18109 : 1"
       inkscape:persp3d-origin="372.04724 : 350.78739 : 1"
       id="perspective4087-0" />
    <inkscape:perspective
       id="perspective4213-8"
       inkscape:persp3d-origin="420.94501 : 198.42668 : 1"
       inkscape:vp_z="841.89001 : 297.64001 : 1"
       inkscape:vp_y="0 : 1000 : 0"
       inkscape:vp_x="0 : 297.64001 : 1"
       sodipodi:type="inkscape:persp3d" />
    <inkscape:perspective
       id="perspective3038-30"
       inkscape:persp3d-origin="0.5 : 0.33333333 : 1"
       inkscape:vp_z="1 : 0.5 : 1"
       inkscape:vp_y="0 : 1000 : 0"
       inkscape:vp_x="0 : 0.5 : 1"
       sodipodi:type="inkscape:persp3d" />
    <inkscape:perspective
       id="perspective3053-5"
       inkscape:persp3d-origin="0.5 : 0.33333333 : 1"
       inkscape:vp_z="1 : 0.5 : 1"
       inkscape:vp_y="0 : 1000 : 0"
       inkscape:vp_x="0 : 0.5 : 1"
       sodipodi:type="inkscape:persp3d" />
    <inkscape:perspective
       id="perspective3068"
       inkscape:persp3d-origin="0.5 : 0.33333333 : 1"
       inkscape:vp_z="1 : 0.5 : 1"
       inkscape:vp_y="0 : 1000 : 0"
       inkscape:vp_x="0 : 0.5 : 1"
       sodipodi:type="inkscape:persp3d" />
    <inkscape:perspective
       id="perspective2952"
       inkscape:persp3d-origin="420.94501 : 198.42668 : 1"
       inkscape:vp_z="841.89001 : 297.64001 : 1"
       inkscape:vp_y="0 : 1000 : 0"
       inkscape:vp_x="0 : 297.64001 : 1"
       sodipodi:type="inkscape:persp3d" />
    <inkscape:perspective
       id="perspective3094"
       inkscape:persp3d-origin="420.94501 : 198.42668 : 1"
       inkscape:vp_z="841.89001 : 297.64001 : 1"
       inkscape:vp_y="0 : 1000 : 0"
       inkscape:vp_x="0 : 297.64001 : 1"
       sodipodi:type="inkscape:persp3d" />
    <inkscape:perspective
       sodipodi:type="inkscape:persp3d"
       inkscape:vp_x="0 : 526.18109 : 1"
       inkscape:vp_y="0 : 1000 : 0"
       inkscape:vp_z="744.09448 : 526.18109 : 1"
       inkscape:persp3d-origin="372.04724 : 350.78739 : 1"
       id="perspective4087-79" />
    <inkscape:perspective
       id="perspective4213-43"
       inkscape:persp3d-origin="420.94501 : 198.42668 : 1"
       inkscape:vp_z="841.89001 : 297.64001 : 1"
       inkscape:vp_y="0 : 1000 : 0"
       inkscape:vp_x="0 : 297.64001 : 1"
       sodipodi:type="inkscape:persp3d" />
    <inkscape:perspective
       id="perspective3038-1"
       inkscape:persp3d-origin="0.5 : 0.33333333 : 1"
       inkscape:vp_z="1 : 0.5 : 1"
       inkscape:vp_y="0 : 1000 : 0"
       inkscape:vp_x="0 : 0.5 : 1"
       sodipodi:type="inkscape:persp3d" />
    <inkscape:perspective
       id="perspective3083"
       inkscape:persp3d-origin="0.5 : 0.33333333 : 1"
       inkscape:vp_z="1 : 0.5 : 1"
       inkscape:vp_y="0 : 1000 : 0"
       inkscape:vp_x="0 : 0.5 : 1"
       sodipodi:type="inkscape:persp3d" />
    <inkscape:perspective
       id="perspective2967"
       inkscape:persp3d-origin="420.94501 : 198.42668 : 1"
       inkscape:vp_z="841.89001 : 297.64001 : 1"
       inkscape:vp_y="0 : 1000 : 0"
       inkscape:vp_x="0 : 297.64001 : 1"
       sodipodi:type="inkscape:persp3d" />
    <inkscape:perspective
       sodipodi:type="inkscape:persp3d"
       inkscape:vp_x="0 : 297.64001 : 1"
       inkscape:vp_y="0 : 1000 : 0"
       inkscape:vp_z="841.89001 : 297.64001 : 1"
       inkscape:persp3d-origin="420.94501 : 198.42668 : 1"
       id="perspective3748" />
    <inkscape:perspective
       sodipodi:type="inkscape:persp3d"
       inkscape:vp_x="0 : 0.5 : 1"
       inkscape:vp_y="0 : 1000 : 0"
       inkscape:vp_z="1 : 0.5 : 1"
       inkscape:persp3d-origin="0.5 : 0.33333333 : 1"
       id="perspective3083-1" />
    <inkscape:perspective
       sodipodi:type="inkscape:persp3d"
       inkscape:vp_x="0 : 0.5 : 1"
       inkscape:vp_y="0 : 1000 : 0"
       inkscape:vp_z="1 : 0.5 : 1"
       inkscape:persp3d-origin="0.5 : 0.33333333 : 1"
       id="perspective3038-9" />
    <inkscape:perspective
       sodipodi:type="inkscape:persp3d"
       inkscape:vp_x="0 : 297.64001 : 1"
       inkscape:vp_y="0 : 1000 : 0"
       inkscape:vp_z="841.89001 : 297.64001 : 1"
       inkscape:persp3d-origin="420.94501 : 198.42668 : 1"
       id="perspective4213-6" />
    <inkscape:perspective
       id="perspective4087-2"
       inkscape:persp3d-origin="372.04724 : 350.78739 : 1"
       inkscape:vp_z="744.09448 : 526.18109 : 1"
       inkscape:vp_y="0 : 1000 : 0"
       inkscape:vp_x="0 : 526.18109 : 1"
       sodipodi:type="inkscape:persp3d" />
    <inkscape:perspective
       sodipodi:type="inkscape:persp3d"
       inkscape:vp_x="0 : 0.5 : 1"
       inkscape:vp_y="0 : 1000 : 0"
       inkscape:vp_z="1 : 0.5 : 1"
       inkscape:persp3d-origin="0.5 : 0.33333333 : 1"
       id="perspective3696" />
    <inkscape:perspective
       sodipodi:type="inkscape:persp3d"
       inkscape:vp_x="0 : 297.64001 : 1"
       inkscape:vp_y="0 : 1000 : 0"
       inkscape:vp_z="841.89001 : 297.64001 : 1"
       inkscape:persp3d-origin="420.94501 : 198.42668 : 1"
       id="perspective3674" />
    <inkscape:perspective
       sodipodi:type="inkscape:persp3d"
       inkscape:vp_x="0 : 0.5 : 1"
       inkscape:vp_y="0 : 1000 : 0"
       inkscape:vp_z="1 : 0.5 : 1"
       inkscape:persp3d-origin="0.5 : 0.33333333 : 1"
       id="perspective3053-4" />
    <inkscape:perspective
       sodipodi:type="inkscape:persp3d"
       inkscape:vp_x="0 : 0.5 : 1"
       inkscape:vp_y="0 : 1000 : 0"
       inkscape:vp_z="1 : 0.5 : 1"
       inkscape:persp3d-origin="0.5 : 0.33333333 : 1"
       id="perspective3038-3-4" />
    <inkscape:perspective
       sodipodi:type="inkscape:persp3d"
       inkscape:vp_x="0 : 297.64001 : 1"
       inkscape:vp_y="0 : 1000 : 0"
       inkscape:vp_z="841.89001 : 297.64001 : 1"
       inkscape:persp3d-origin="420.94501 : 198.42668 : 1"
       id="perspective4213-7" />
    <inkscape:perspective
       id="perspective4087-8"
       inkscape:persp3d-origin="372.04724 : 350.78739 : 1"
       inkscape:vp_z="744.09448 : 526.18109 : 1"
       inkscape:vp_y="0 : 1000 : 0"
       inkscape:vp_x="0 : 526.18109 : 1"
       sodipodi:type="inkscape:persp3d" />
    <inkscape:perspective
       id="perspective2949"
       inkscape:persp3d-origin="0.5 : 0.33333333 : 1"
       inkscape:vp_z="1 : 0.5 : 1"
       inkscape:vp_y="0 : 1000 : 0"
       inkscape:vp_x="0 : 0.5 : 1"
       sodipodi:type="inkscape:persp3d" />
    <inkscape:perspective
       sodipodi:type="inkscape:persp3d"
       inkscape:vp_x="0 : 526.18109 : 1"
       inkscape:vp_y="0 : 1000 : 0"
       inkscape:vp_z="744.09448 : 526.18109 : 1"
       inkscape:persp3d-origin="372.04724 : 350.78739 : 1"
       id="perspective4087-3" />
    <inkscape:perspective
       id="perspective4213-9"
       inkscape:persp3d-origin="420.94501 : 198.42668 : 1"
       inkscape:vp_z="841.89001 : 297.64001 : 1"
       inkscape:vp_y="0 : 1000 : 0"
       inkscape:vp_x="0 : 297.64001 : 1"
       sodipodi:type="inkscape:persp3d" />
    <inkscape:perspective
       id="perspective3038-4"
       inkscape:persp3d-origin="0.5 : 0.33333333 : 1"
       inkscape:vp_z="1 : 0.5 : 1"
       inkscape:vp_y="0 : 1000 : 0"
       inkscape:vp_x="0 : 0.5 : 1"
       sodipodi:type="inkscape:persp3d" />
    <inkscape:perspective
       id="perspective3098"
       inkscape:persp3d-origin="0.5 : 0.33333333 : 1"
       inkscape:vp_z="1 : 0.5 : 1"
       inkscape:vp_y="0 : 1000 : 0"
       inkscape:vp_x="0 : 0.5 : 1"
       sodipodi:type="inkscape:persp3d" />
    <inkscape:perspective
       id="perspective3018"
       inkscape:persp3d-origin="420.94501 : 198.42668 : 1"
       inkscape:vp_z="841.89001 : 297.64001 : 1"
       inkscape:vp_y="0 : 1000 : 0"
       inkscape:vp_x="0 : 297.64001 : 1"
       sodipodi:type="inkscape:persp3d" />
    <inkscape:perspective
       id="perspective3166"
       inkscape:persp3d-origin="0.5 : 0.33333333 : 1"
       inkscape:vp_z="1 : 0.5 : 1"
       inkscape:vp_y="0 : 1000 : 0"
       inkscape:vp_x="0 : 0.5 : 1"
       sodipodi:type="inkscape:persp3d" />
  </defs>
  <sodipodi:namedview
     id="base"
     pagecolor="#ffffff"
     bordercolor="#666666"
     borderopacity="1.0"
     inkscape:pageopacity="0.0"
     inkscape:pageshadow="2"
     inkscape:zoom="0.69999999"
     inkscape:cx="281.07268"
     inkscape:cy="60.368743"
     inkscape:document-units="px"
     inkscape:current-layer="layer1"
     showgrid="false"
     inkscape:window-width="1366"
     inkscape:window-height="688"
     inkscape:window-x="0"
     inkscape:window-y="27"
     inkscape:window-maximized="1" />
  <metadata
     id="metadata7">
    <rdf:RDF>
      <cc:Work
         rdf:about="">
        <dc:format>image/svg+xml</dc:format>
        <dc:type
           rdf:resource="http://purl.org/dc/dcmitype/StillImage" />
        <dc:title></dc:title>
      </cc:Work>
    </rdf:RDF>
  </metadata>
  <g
     inkscape:label="Calque 1"
     inkscape:groupmode="layer"
     id="layer1">
    <path
       sodipodi:type="arc"
       style="fill:#008dd9;fill-opacity:1;stroke:none"
       id="path4695"
       sodipodi:cx="358.57144"
       sodipodi:cy="428.07648"
       sodipodi:rx="121.42857"
       sodipodi:ry="121.42857"
       d="m 480.00002,428.07648 a 121.42857,121.42857 0 1 1 -242.85715,0 121.42857,121.42857 0 1 1 242.85715,0 z"
       inkscape:export-filename="/home/simon/ricm/5/projet/depot/SmartCampus2014/appsClient/exampleAR/public_html/images/school.png"
       inkscape:export-xdpi="9.2600002"
       inkscape:export-ydpi="9.2600002"
       transform="translate(-165.66502,24.243661)" />
    <path
       style="fill:#000000;fill-opacity:0.11450381;stroke:none"
       d="m 314.335,452.32014 c 0,67.06315 -54.36543,121.42857 -121.42858,121.42857 -67.06315,0 -121.42857,-54.36542 -121.42857,-121.42857 53.89349,25.01346 173.94628,35.30894 242.85715,0 z"
       id="path5489"
       inkscape:connector-curvature="0"
       sodipodi:nodetypes="cscc"
       inkscape:export-filename="/home/simon/ricm/5/projet/depot/SmartCampus2014/appsClient/exampleAR/public_html/images/school.png"
       inkscape:export-xdpi="9.2600002"
       inkscape:export-ydpi="9.2600002" />
    <g
       transform="matrix(1.1383789,0,0,1.1383789,-1687.8283,-1071.3757)"
       id="g5465"
       style="fill:#ffffff;fill-opacity:1"
       inkscape:export-filename="/home/simon/ricm/5/projet/depot/SmartCampus2014/appsClient/exampleAR/public_html/images/school.png"
       inkscape:export-xdpi="9.2600002"
       inkscape:export-ydpi="9.2600002">
      <path
         inkscape:connector-curvature="0"
         d="m 1685.4062,1352.0625 c -18.8528,5.6139 -36.0312,10.625 -36.0312,10.625 -1.5317,0.4633 -3.7171,0.6127 -6.125,-0.031 0,0 -12.6861,-3.6925 -22.8125,-6.625 -4.6017,7.4842 -6.4687,14.3126 -6.4687,14.3126 15.0766,0.3541 15.6461,4.9501 23.375,14.875 7.4992,-6.8817 27.8541,-20.7856 53.3124,-10.75 -0.4544,-9.3634 -2.133,-16.7465 -5.25,-22.4063 z"
         id="path5467"
         style="fill:#ffffff;fill-opacity:1" />
      <path
         inkscape:connector-curvature="0"
         style="font-size:medium;font-style:normal;font-variant:normal;font-weight:normal;font-stretch:normal;text-indent:0;text-align:start;text-decoration:none;line-height:normal;letter-spacing:normal;word-spacing:normal;text-transform:none;direction:ltr;block-progression:tb;writing-mode:lr-tb;text-anchor:start;baseline-shift:baseline;color:#000000;fill:#ffffff;fill-opacity:1;stroke:none;stroke-width:1.46565163;marker:none;visibility:visible;display:inline;overflow:visible;enable-background:accumulate;font-family:Sans;-inkscape-font-specification:Sans"
         d="m 1702.25,1347 c -0.8602,0.2603 -1.6599,0.5184 -2.5312,0.7812 -0.2065,0.1593 0.027,0.3037 1.125,0.5626 0.6195,0.2866 1.3206,0.8174 1.9687,1.4687 1.2963,1.3026 2.2813,3.1283 2.2813,4.3437 l 1.4687,0 c 0,-1.9135 -1.2288,-3.8775 -2.7187,-5.375 -0.5965,-0.5992 -0.985,-1.3466 -1.5938,-1.7812 z"
         id="path5469" />
      <path
         inkscape:connector-curvature="0"
         transform="matrix(0.24427527,0,0,0.24427527,1570.9394,1317.8239)"
         d="m 558.24898,150.34 c 0,3.08119 -2.4978,5.579 -5.579,5.579 -3.08119,0 -5.579,-2.49781 -5.579,-5.579 0,-3.0812 2.49781,-5.579 5.579,-5.579 3.0812,0 5.579,2.4978 5.579,5.579 z"
         id="path5471"
         style="fill:#ffffff;fill-opacity:1" />
      <path
         inkscape:connector-curvature="0"
         transform="matrix(0.24427527,0,0,0.24427527,1570.9394,1317.8239)"
         d="m 560.87503,156.88 c 0,4.47075 -3.62426,8.09501 -8.095,8.09501 -4.47075,0 -8.095,-3.62426 -8.095,-8.09501 0,-4.47074 3.62425,-8.095 8.095,-8.095 4.47074,0 8.095,3.62426 8.095,8.095 z"
         id="path5473"
         style="fill:#ffffff;fill-opacity:1" />
      <path
         inkscape:connector-curvature="0"
         transform="matrix(0.24427527,0,0,0.24427527,1570.9394,1317.8239)"
         d="m 560.87503,164.00999 c 0,4.47075 -3.62426,8.095 -8.095,8.095 -4.47075,0 -8.095,-3.62425 -8.095,-8.095 0,-4.47074 3.62425,-8.095 8.095,-8.095 4.47074,0 8.095,3.62426 8.095,8.095 z"
         id="path5475"
         style="fill:#ffffff;fill-opacity:1" />
      <path
         inkscape:connector-curvature="0"
         id="path5477"
         d="m 1710.6087,1366.017 c -0.1801,-0.2446 -0.3904,-0.4451 -0.4409,-0.6527 -0.3953,-1.6193 -1.5976,-6.5469 -3.2501,-6.9951 -0.2235,-0.061 -0.3608,-0.3129 -0.3068,-0.5638 0.054,-0.2509 0.2794,-0.404 0.5024,-0.3442 1.877,0.5089 3.0032,4.1561 3.8571,7.6563 0.061,0.249 -0.01,0.5543 -0.097,0.8513 -0.012,0.041 -0.072,0.2922 -0.1085,0.2922 l -0.1563,-0.2418 z"
         style="fill:#ffffff;fill-opacity:1" />
      <path
         inkscape:connector-curvature="0"
         id="path5479"
         d="m 1709.5705,1366.6912 c -0.18,-0.2446 -0.3904,-0.4451 -0.4409,-0.6527 -0.3953,-1.6193 -1.5976,-6.5469 -3.2501,-6.9951 -0.2235,-0.061 -0.3608,-0.3129 -0.3068,-0.5638 0.054,-0.2509 0.2794,-0.404 0.5025,-0.3442 1.877,0.5089 3.0031,4.1561 3.8571,7.6563 0.061,0.249 -0.01,0.5543 -0.097,0.8513 -0.012,0.041 -0.072,0.2922 -0.1085,0.2922 l -0.1587,-0.2418 z"
         style="fill:#ffffff;fill-opacity:1" />
      <path
         inkscape:connector-curvature="0"
         id="path5481"
         d="m 1707.0349,1367.0209 c 0.037,-0.3012 0.1214,-0.5791 0.064,-0.7851 -0.4507,-1.6048 -1.8213,-6.4882 -0.6014,-7.6895 0.1647,-0.1627 0.1603,-0.4497 -0.01,-0.642 -0.1702,-0.1917 -0.4419,-0.2149 -0.607,-0.053 -1.3855,1.3648 -0.5765,5.0946 0.3972,8.564 0.069,0.2465 0.2782,0.4793 0.5022,0.694 0.031,0.03 0.2064,0.2191 0.2382,0.2013 l 0.015,-0.2882 z"
         style="fill:#ffffff;fill-opacity:1" />
      <path
         inkscape:connector-curvature="0"
         id="path5483"
         d="m 1705.4862,1366.8988 c 0.037,-0.3012 0.1214,-0.5792 0.064,-0.7851 -0.4507,-1.6049 -1.8213,-6.4882 -0.6014,-7.6895 0.1647,-0.1627 0.1603,-0.4498 -0.01,-0.642 -0.1702,-0.1918 -0.4419,-0.215 -0.607,-0.053 -1.3855,1.3647 -0.5765,5.0946 0.3972,8.564 0.069,0.2465 0.2782,0.4793 0.5022,0.694 0.031,0.029 0.2064,0.2191 0.2382,0.2013 l 0.015,-0.2883 z"
         style="fill:#ffffff;fill-opacity:1" />
      <path
         inkscape:connector-curvature="0"
         id="path5485"
         d="m 1708.5739,1366.5764 c 0.05,-0.3733 0.1656,-0.7177 0.087,-0.9727 -0.6146,-1.9887 -2.484,-8.0391 -0.82,-9.5278 0.2245,-0.2015 0.2189,-0.5569 -0.013,-0.7953 -0.2323,-0.2377 -0.6026,-0.2663 -0.8281,-0.066 -1.8897,1.6909 -0.7866,6.3126 0.5418,10.6111 0.094,0.3053 0.3794,0.5938 0.6849,0.8598 0.042,0.037 0.2812,0.2717 0.3247,0.2495 l 0.022,-0.3591 z"
         style="fill:#ffffff;fill-opacity:1" />
      <path
         sodipodi:nodetypes="sssssssss"
         inkscape:connector-curvature="0"
         style="fill:#ffffff;fill-opacity:1;stroke:none"
         id="path5487"
         d="m 1730.5233,1332.3497 c 2.2633,0.4818 3.2428,2.6363 -0.1551,3.823 -15.8994,5.5526 -80.9873,24.5024 -80.9873,24.5024 -1.5317,0.4633 -3.7278,0.62 -6.1357,-0.024 0,0 -67.8935,-19.5259 -70.4302,-20.8008 -1.038,-0.5216 -1.2638,-2.3531 0.2411,-2.8982 1.6877,-0.6113 72.0878,-19.8652 74.0706,-20.4937 2.3941,-0.759 3.9892,-0.7068 6.5121,-0.1919 0,0 60.7506,12.6489 76.8845,16.0836 z" />
    </g>
    <path
       inkscape:export-ydpi="9.2600002"
       inkscape:export-xdpi="9.2600002"
       inkscape:export-filename="/home/simon/ricm/5/projet/depot/SmartCampus2014/appsClient/exampleAR/public_html/images/tramway.png"
       d="m 480.00002,428.07648 a 121.42857,121.42857 0 1 1 -242.85715,0 121.42857,121.42857 0 1 1 242.85715,0 z"
       sodipodi:ry="121.42857"
       sodipodi:rx="121.42857"
       sodipodi:cy="428.07648"
       sodipodi:cx="358.57144"
       id="path5523"
       style="fill:#008d46;fill-opacity:1;stroke:none"
       sodipodi:type="arc"
       transform="translate(-148.57143,362.85714)" />
    <path
       inkscape:export-ydpi="9.2600002"
       inkscape:export-xdpi="9.2600002"
       inkscape:export-filename="/home/simon/ricm/5/projet/depot/SmartCampus2014/appsClient/exampleAR/public_html/images/tramway.png"
       sodipodi:nodetypes="cscc"
       inkscape:connector-curvature="0"
       id="path5525"
       d="m 331.42859,790.93362 c 0,67.06315 -54.36543,121.42857 -121.42858,121.42857 -67.06315,0 -121.428569,-54.36542 -121.428569,-121.42857 53.893489,25.01346 173.946279,35.30894 242.857149,0 z"
       style="fill:#000000;fill-opacity:0.11450381;stroke:none" />
    <g
       id="layer1-7"
       inkscape:label="Layer 1"
       transform="matrix(0.34482119,0,0,0.34482119,125.00028,701.94671)"
       style="fill:#ffffff;fill-opacity:1"
       inkscape:export-filename="/home/simon/ricm/5/projet/depot/SmartCampus2014/appsClient/exampleAR/public_html/images/tramway.png"
       inkscape:export-xdpi="9"
       inkscape:export-ydpi="9">
      <g
         transform="matrix(0.9644122,0,0,1.0371475,88.297691,0.03113298)"
         id="g4439"
         style="fill:#ffffff;fill-opacity:1">
        <path
           style="fill:#ffffff;fill-opacity:1;fill-rule:evenodd;stroke:none"
           d="m 161.07098,47.690989 12.08183,0 0,-40.1893742 -12.08183,0 0,40.1893742 z"
           id="path4420"
           inkscape:connector-curvature="0" />
        <path
           style="fill:#ffffff;fill-opacity:1;fill-rule:evenodd;stroke:none"
           d="M 94.997533,0 94.093656,0.03012697 93.189778,0.0903809 92.2859,0.15063484 91.412152,0.2711427 90.538404,0.3615236 89.664655,0.51215844 88.851166,0.66279327 88.007547,0.87368204 87.224186,1.0845708 86.440825,1.3255865 85.687594,1.5666023 84.934363,1.867872 84.211261,2.1992686 83.518288,2.5306652 82.855444,2.8921888 82.22273,3.3139664 81.590016,3.7357439 81.01756,4.2177754 80.445104,4.6998069 79.932907,5.2119653 79.42071,5.7843777 78.968771,6.35679 l -0.451939,0.6326663 -0.39168,0.6627933 -0.361551,0.6929203 -0.331422,0.7230472 -0.301293,0.7531741 -0.241034,0.8134278 -0.210904,0.813428 -0.180776,0.873683 -0.120517,0.903809 -0.03013,0.451904 0.03013,0.451905 0.03013,0.421777 0.120517,0.421778 0.120517,0.39165 0.180776,0.391651 0.210905,0.361523 0.241034,0.361524 0.301292,0.30127 0.301293,0.301269 0.331422,0.241016 0.361551,0.241016 0.361551,0.180762 0.421809,0.180761 0.42181,0.120508 0.421809,0.06025 0.692973,0.06025 0.632714,0 0.602585,-0.09038 0.512198,-0.09038 0.512197,-0.180761 0.451939,-0.210889 0.39168,-0.271143 0.39168,-0.271143 0.361551,-0.331396 0.331422,-0.361524 0.301293,-0.39165 0.331421,-0.391651 0.572456,-0.873682 0.602585,-0.903809 0.301293,-0.482032 0.301292,-0.451904 0.361551,-0.451905 0.361551,-0.451904 0.391681,-0.421778 0.421809,-0.421777 0.451939,-0.391651 0.482068,-0.361523 0.542327,-0.331397 0.602585,-0.3012697 0.632714,-0.2711427 0.723102,-0.2410157 0.753231,-0.1807618 0.843619,-0.1506348 0.903878,-0.090381 0.964136,-0.030127 142.420979,0 0.99426,0.030127 0.90388,0.090381 0.84362,0.1506348 0.75323,0.1807618 0.7231,0.2108888 0.66285,0.2711427 0.60258,0.3313966 0.54233,0.331397 0.51219,0.361523 0.45194,0.391651 0.42181,0.421777 0.42181,0.421778 0.36155,0.451904 0.33143,0.421778 0.33142,0.482031 0.33142,0.451905 0.57245,0.903809 0.60259,0.873682 0.30129,0.391651 0.30129,0.39165 0.33143,0.361524 0.36155,0.331396 0.39168,0.271143 0.39168,0.271143 0.42181,0.210889 0.48207,0.180761 0.51219,0.120508 0.57246,0.06025 0.60258,0.03013 0.66285,-0.06025 0.45194,-0.06025 0.42181,-0.120508 0.42181,-0.180761 0.36155,-0.180762 0.36155,-0.241016 0.33142,-0.241016 0.30129,-0.301269 0.30129,-0.30127 0.24104,-0.361524 0.2109,-0.361523 0.18078,-0.391651 0.12052,-0.39165 0.0904,-0.421778 0.0603,-0.421777 0.0301,-0.451905 -0.0301,-0.451904 -0.12052,-0.903809 -0.18077,-0.873683 L 257.3942,10.634819 257.15317,9.8213912 256.85188,9.0682171 256.52046,8.3451699 256.1589,7.6522496 255.76722,6.9894563 255.34542,6.35679 254.86335,5.7843777 254.38128,5.2119653 253.83895,4.6998069 253.2665,4.2177754 252.69404,3.7357439 252.09146,3.3139664 251.42861,2.8921888 250.76577,2.5306652 250.0728,2.1992686 249.34969,1.867872 248.62659,1.5666023 247.84323,1.3255865 247.05987,1.0845708 246.27651,0.87368204 245.46302,0.66279327 244.6194,0.51215844 243.74565,0.3615236 242.90203,0.2711427 241.99816,0.15063484 241.09428,0.0903809 240.1904,0.03012697 239.28652,0 238.35252,0 95.93154,0 94.997533,0 z"
           id="path4422"
           inkscape:connector-curvature="0" />
        <path
           style="fill:#ffffff;fill-opacity:1;fill-rule:evenodd;stroke:none"
           d="m 89.031941,294.97313 0.03013,0.39165 0,0.39166 0.03013,0.39165 0.06026,0.36152 0.06026,0.3314 0.09039,0.30127 0.09039,0.30127 0.120517,0.30127 0.09039,0.24101 0.150646,0.27114 0.150647,0.24102 0.150646,0.21089 0.150646,0.21089 0.180776,0.18076 0.180775,0.18076 0.210905,0.15064 0.210905,0.15063 0.210904,0.12051 0.210905,0.15063 0.241034,0.0904 0.482068,0.21089 0.542327,0.12051 0.542326,0.12051 0.572456,0.0602 0.572456,0.0603 0.632714,0 0.602585,0 0.602585,-0.0301 0.572456,-0.0602 0.542327,-0.12051 0.512197,-0.15064 0.512197,-0.18076 0.241034,-0.0904 0.210905,-0.12051 0.210905,-0.15063 0.210905,-0.15064 0.210904,-0.15063 0.180776,-0.18076 0.180775,-0.18077 0.180776,-0.21089 0.150649,-0.21088 0.15064,-0.24102 0.12052,-0.24102 0.12052,-0.27114 0.12051,-0.27114 0.0904,-0.30127 0.0603,-0.3314 0.0904,-0.33139 0.0301,-0.3314 0.0603,-0.39165 0,-0.39165 0.0301,-0.42178 -0.0904,-115.6273 0,-0.42178 -0.0301,-0.39165 -0.0301,-0.36152 -0.0301,-0.36152 -0.0904,-0.3314 -0.0603,-0.3314 -0.0904,-0.30127 -0.12051,-0.30127 -0.12052,-0.27114 -0.12052,-0.27114 -0.15064,-0.24102 -0.150648,-0.21089 -0.180775,-0.21088 -0.150646,-0.21089 -0.210905,-0.18077 -0.180776,-0.18076 -0.210904,-0.15063 -0.210905,-0.15064 -0.241034,-0.1205 -0.210905,-0.12051 -0.512197,-0.21089 -0.512198,-0.18076 -0.542326,-0.12051 -0.572456,-0.0904 -0.602585,-0.0603 -0.602585,0 -0.632714,0 -0.572456,0.0603 -0.572456,0.0602 -0.572456,0.12051 -0.512197,0.15063 -0.482068,0.21089 -0.241034,0.12051 -0.241034,0.15064 -0.210905,0.1205 -0.210905,0.18077 -0.180775,0.15063 -0.210905,0.18076 -0.150646,0.21089 -0.180776,0.21089 -0.150646,0.24102 -0.150646,0.24101 -0.120517,0.24102 -0.120517,0.27114 -0.120517,0.30127 -0.09039,0.30127 -0.09039,0.3314 -0.06026,0.33139 -0.06026,0.36153 -0.03013,0.36152 -0.03013,0.42178 0,0.39165 0.06026,115.65742 z"
           id="path4424"
           inkscape:connector-curvature="0" />
        <path
           style="fill:#ffffff;fill-opacity:1;fill-rule:evenodd;stroke:none"
           d="m 94.394948,237.55113 -0.210905,0.21089 -0.241034,0.24102 -0.180775,0.24102 -0.210905,0.24101 -0.150646,0.24102 -0.180776,0.24101 -0.150646,0.27115 -0.241034,0.54228 -0.180776,0.57241 -0.150646,0.57242 -0.09039,0.60253 -0.03013,0.60254 0.03013,0.60254 0.09039,0.60254 0.150646,0.57241 0.09039,0.30127 0.120517,0.30127 0.120517,0.27115 0.120517,0.30127 0.180776,0.27114 0.150646,0.27114 0.180776,0.27114 0.210904,0.24102 67.670296,84.08437 0.21091,0.24101 0.2109,0.24102 0.24104,0.21089 0.24103,0.21088 0.24104,0.21089 0.24103,0.18077 0.27116,0.15063 0.27117,0.18076 0.54232,0.27114 0.54233,0.21089 0.60258,0.15064 0.57246,0.12051 0.60258,0.0301 0.60259,0 0.30129,-0.0301 0.27117,-0.0301 0.30129,-0.0603 0.30129,-0.0602 0.27116,-0.0904 0.3013,-0.0904 0.27116,-0.12051 0.27116,-0.15063 0.27117,-0.12051 0.27116,-0.18076 0.24103,-0.18076 0.27117,-0.18077 0.24103,-0.21089 0.21091,-0.21088 0.2109,-0.21089 0.21091,-0.24102 0.18077,-0.24101 0.18078,-0.24102 0.15064,-0.27114 0.15065,-0.27115 0.24103,-0.54228 0.21091,-0.54229 0.12051,-0.60254 0.0904,-0.57241 0.0301,-0.60254 -0.0301,-0.60254 -0.0904,-0.60254 -0.12051,-0.60254 -0.21091,-0.57241 -0.27116,-0.57241 -0.15065,-0.27114 -0.15064,-0.27115 -0.18078,-0.27114 -0.2109,-0.27114 -67.6703,-84.05424 -0.21091,-0.24101 -0.2109,-0.24102 -0.24104,-0.24102 -0.24103,-0.21089 -0.48207,-0.36152 -0.54233,-0.3314 -0.54232,-0.27114 -0.54233,-0.24101 -0.602583,-0.15064 -0.572456,-0.0904 -0.602585,-0.0602 -0.602585,0 -0.572456,0.0904 -0.602585,0.12051 -0.271163,0.0904 -0.301292,0.0904 -0.271164,0.12051 -0.271163,0.1205 -0.271163,0.15064 -0.271164,0.15063 -0.241034,0.18076 -0.271163,0.18077 -0.241034,0.21088 z"
           id="path4426"
           inkscape:connector-curvature="0" />
        <path
           style="fill:#ffffff;fill-opacity:1;fill-rule:evenodd;stroke:none"
           d="m 55.859634,45.310958 -2.169306,0.06025 -2.169306,0.150635 -2.109048,0.271143 -2.078918,0.39165 -2.048789,0.451905 -1.988531,0.572412 -1.988531,0.662794 -1.898143,0.753174 -1.898143,0.873682 -1.807755,0.933936 -1.777626,1.024317 -1.717367,1.08457 -1.657109,1.174952 -1.59685,1.265333 -1.536592,1.325586 -1.476334,1.415968 -1.385945,1.476221 -1.355817,1.536476 -1.235299,1.596729 -1.20517,1.656983 -1.084653,1.717237 -1.024395,1.747364 -0.934007,1.837745 -0.843619,1.867872 -0.753231,1.928126 -0.662843,1.958253 -0.572456,2.018507 -0.482068,2.048633 -0.361551,2.078761 -0.271164,2.108888 -0.180775,2.139014 -0.06026,2.169142 0,-0.542285 L 0,381.76893 l 0,0.30127 0.0602585,2.16914 0.15064627,2.13901 0.27116327,2.10889 0.39168028,2.07876 0.45193878,2.04863 0.5724558,2.01851 0.6628436,1.95825 0.7833605,1.92813 0.8436191,1.86787 0.9340068,1.80762 1.0243946,1.77749 1.0846531,1.71724 1.1750409,1.65698 1.2654286,1.59673 1.3256869,1.53648 1.416075,1.47622 1.476333,1.38584 1.536592,1.35571 1.596851,1.23521 1.657109,1.20508 1.717367,1.08457 1.777626,1.02431 1.807755,0.93394 1.868014,0.84355 1.928272,0.75318 1.958401,0.66279 2.01866,0.57241 2.048789,0.48204 2.078919,0.36152 2.109047,0.27114 2.139177,0.18076 2.169307,0.0603 250.735639,0 2.16931,-0.0603 2.13917,-0.18076 2.10905,-0.27114 2.07892,-0.36152 2.04879,-0.48204 2.01866,-0.57241 1.9584,-0.66279 1.92827,-0.75318 1.86802,-0.84355 1.83788,-0.93394 1.7475,-1.02431 1.71736,-1.08457 1.65711,-1.20508 1.59685,-1.23521 1.5366,-1.35571 1.47633,-1.38584 1.41607,-1.47622 1.32569,-1.53648 1.26543,-1.59673 1.17504,-1.65698 1.08465,-1.71724 1.0244,-1.77749 0.934,-1.80762 0.84362,-1.86787 0.78336,-1.92813 0.66285,-1.95825 0.57245,-2.01851 0.45194,-2.04863 0.39168,-2.07876 0.27117,-2.10889 0.15064,-2.13901 0.0603,-2.16914 -0.0301,-0.57242 -13.4979,-294.430845 0,0.542285 -0.0603,-2.169142 -0.15065,-2.139014 -0.27116,-2.108888 -0.36155,-2.078761 -0.48207,-2.048633 -0.57246,-2.018507 -0.66284,-1.958253 -0.75323,-1.928126 -0.84362,-1.867872 -0.96414,-1.837745 -0.99426,-1.747364 -1.11478,-1.717237 -1.17505,-1.656983 -1.26542,-1.596729 -1.32569,-1.536476 -1.41608,-1.476221 -1.4462,-1.415968 -1.53659,-1.325586 -1.62698,-1.265333 -1.65711,-1.174952 -1.71737,-1.08457 -1.74749,-1.024317 -1.83789,-0.933936 -1.86801,-0.873682 -1.92827,-0.753174 -1.95841,-0.662794 -2.01866,-0.572412 -2.04879,-0.451905 -2.07891,-0.39165 -2.10905,-0.271143 -2.13918,-0.150635 -2.1693,-0.06025 -223.649446,0 z m 4.067449,304.041352 -1.416075,0.0904 -1.295557,0.21089 -1.2353,0.39165 -1.144911,0.48203 -1.024395,0.63267 -0.964136,0.72304 -0.873748,0.81343 -0.753232,0.93394 -0.692973,0.99419 -0.572455,1.05444 -0.512198,1.1147 -0.39168,1.17495 -0.331422,1.23521 -0.210904,1.2352 -0.150647,1.26534 -0.03013,1.29546 0.03013,1.26533 0.150647,1.26533 0.210904,1.23521 0.331422,1.2352 0.39168,1.17495 0.512198,1.1147 0.572455,1.08457 0.692973,0.99419 0.783361,0.90381 0.843619,0.84356 0.964136,0.72304 1.024395,0.60254 1.144911,0.51216 1.2353,0.36153 1.295557,0.21088 1.416075,0.0904 16.390314,0 1.385945,-0.0904 1.325687,-0.21088 1.2353,-0.36153 1.114782,-0.51216 1.054524,-0.60254 0.964136,-0.72304 0.843619,-0.84356 0.783361,-0.90381 0.692972,-0.99419 0.572456,-1.08457 0.512198,-1.1147 0.39168,-1.17495 0.331422,-1.2352 0.210904,-1.23521 0.150647,-1.26533 0.06026,-1.26533 -0.06026,-1.29546 -0.150647,-1.26534 -0.210904,-1.2352 -0.331422,-1.23521 -0.39168,-1.17495 -0.512198,-1.1147 -0.572456,-1.05444 -0.692972,-0.99419 -0.783361,-0.93394 -0.843619,-0.81343 -0.964136,-0.72304 -1.054524,-0.63267 -1.114782,-0.48203 -1.2353,-0.39165 -1.325687,-0.21089 -1.385945,-0.0904 -16.390314,0 z m 199.124227,0 -0.60258,0.0301 -0.60259,0.0603 -0.60258,0.0904 -0.60259,0.15064 -0.57245,0.15063 -0.57246,0.21089 -0.54233,0.24102 -0.54232,0.27114 -0.54233,0.30127 -0.5122,0.33139 -0.48206,0.36153 -0.48207,0.39165 -0.48207,0.39165 -0.45194,0.4519 -0.42181,0.45191 -0.42181,0.4519 -0.39168,0.51216 -0.36155,0.51216 -0.36155,0.51216 -0.33142,0.54228 -0.33142,0.57242 -0.27117,0.57241 -0.27116,0.57241 -0.24103,0.60254 -0.21091,0.57241 -0.18077,0.63267 -0.15065,0.60254 -0.15065,0.60254 -0.0904,0.63266 -0.0904,0.60254 -0.0301,0.63267 -0.0301,0.60254 0.0301,0.63266 0.0301,0.60254 0.0904,0.63267 0.0904,0.60254 0.15065,0.63267 0.15065,0.60254 0.18077,0.60253 0.21091,0.60254 0.24103,0.60254 0.27116,0.57242 0.27117,0.57241 0.33142,0.57241 0.33142,0.54229 0.36155,0.51215 0.36155,0.51216 0.39168,0.51216 0.42181,0.45191 0.42181,0.4519 0.45194,0.4519 0.48207,0.39166 0.48207,0.39165 0.48206,0.36152 0.5122,0.3314 0.54233,0.30127 0.54232,0.27114 0.54233,0.24101 0.57246,0.21089 0.57245,0.18077 0.60259,0.1205 0.60258,0.0904 0.60259,0.0603 0.60258,0.0301 16.36019,0 0.60258,-0.0301 0.63272,-0.0603 0.57245,-0.0904 0.60259,-0.1205 0.57245,-0.18077 0.57246,-0.21089 0.54233,-0.24101 0.54232,-0.27114 0.54233,-0.30127 0.5122,-0.3314 0.48206,-0.36152 0.48207,-0.39165 0.48207,-0.39166 0.45194,-0.4519 0.42181,-0.4519 0.42181,-0.45191 0.39168,-0.51216 0.36155,-0.51216 0.36155,-0.51215 0.33142,-0.54229 0.30129,-0.57241 0.3013,-0.57241 0.24103,-0.57242 0.24104,-0.60254 0.2109,-0.60254 0.2109,-0.60253 0.15065,-0.60254 0.12052,-0.63267 0.12051,-0.60254 0.0603,-0.63267 0.0603,-0.60254 0,-0.63266 0,-0.60254 -0.0603,-0.63267 -0.0603,-0.60254 -0.12051,-0.63266 -0.12052,-0.60254 -0.15065,-0.60254 -0.2109,-0.63267 -0.2109,-0.57241 -0.24104,-0.60254 -0.24103,-0.57241 -0.3013,-0.57241 -0.30129,-0.57242 -0.33142,-0.54228 -0.36155,-0.51216 -0.36155,-0.51216 -0.39168,-0.51216 -0.42181,-0.4519 -0.42181,-0.45191 -0.45194,-0.4519 -0.48207,-0.39165 -0.48207,-0.39165 -0.48206,-0.36153 -0.5122,-0.33139 -0.54233,-0.30127 -0.54232,-0.27114 -0.54233,-0.24102 -0.57246,-0.21089 -0.57245,-0.15063 -0.60259,-0.15064 -0.57245,-0.0904 -0.63272,-0.0603 -0.60258,-0.0301 -16.36019,0 z M 60.137988,110.86724 l 0,-0.27114 0,-0.27115 0.03013,-0.51216 0.09039,-0.48203 0.120517,-0.48203 0.180776,-0.4519 0.180775,-0.42178 0.271163,-0.42178 0.271164,-0.39165 0.331421,-0.36152 0.361551,-0.30127 0.361551,-0.30127 0.42181,-0.24102 0.451939,-0.21089 0.451939,-0.18076 0.451938,-0.12051 0.512198,-0.0602 0.512197,-0.0301 205.150073,0 0.5122,0.0301 0.48207,0.0602 0.48207,0.12051 0.45194,0.18076 0.42181,0.21089 0.42181,0.24102 0.36155,0.30127 0.36155,0.30127 0.33142,0.36152 0.27116,0.39165 0.27117,0.42178 0.18077,0.42178 0.18078,0.4519 0.12051,0.48203 0.0904,0.48203 0,0.51216 0,0.27115 0.0301,0.27114 0.0904,2.22939 0.24103,6.32667 0.39168,9.82139 0.5122,12.71358 0.60259,15.09361 0.69297,16.84097 0.69297,18.01593 0.75323,18.58834 0.75323,18.61846 0.72311,18.04606 0.66284,16.90123 0.60258,15.15386 0.5122,12.86422 0.39168,9.94189 0.27117,6.4773 0.0904,2.41016 -0.0301,0.51216 -0.0602,0.48203 -0.12052,0.48203 -0.18078,0.45191 -0.2109,0.42177 -0.24104,0.42178 -0.30129,0.36152 -0.30129,0.36153 -0.36155,0.30127 -0.39168,0.30127 -0.39168,0.24101 -0.42181,0.21089 -0.48207,0.18076 -0.45194,0.12051 -0.5122,0.0603 -0.48206,0.0301 -221.208973,0 -0.482069,-0.0301 -0.512197,-0.0603 -0.451939,-0.12051 -0.451938,-0.18076 -0.451939,-0.21089 -0.39168,-0.24101 -0.391681,-0.30127 -0.361551,-0.30127 -0.301292,-0.36153 -0.301293,-0.36152 -0.241034,-0.42178 -0.210905,-0.42177 -0.180775,-0.45191 -0.120517,-0.48203 -0.06026,-0.48203 -0.03013,-0.51216 0.09039,-2.41016 0.271163,-6.4773 0.39168,-9.94189 0.512198,-12.86422 0.602585,-15.15386 0.662843,-16.90123 0.723102,-18.04606 0.753232,-18.61846 0.723102,-18.58834 0.723102,-18.01593 0.692973,-16.84097 0.602585,-15.06348 0.512197,-12.74371 0.39168,-9.82139 0.241034,-6.32667 0.09039,-2.22939 z"
           id="path4428"
           inkscape:connector-curvature="0" />
        <path
           style="fill:#ffffff;fill-opacity:1;fill-rule:evenodd;stroke:none"
           d="m 51.731927,397.46508 0,0.96406 0,1.50635 0,1.98838 0,2.3499 0,2.6813 0,2.92232 0,3.04282 0,3.1332 0,3.13321 0,3.0127 0,2.86206 0,2.62104 0,2.28965 0,1.898 0,1.41597 -1.175041,1.1147 -1.687238,1.59673 -2.139177,2.04863 -2.470599,2.3499 -2.771891,2.62105 -2.952667,2.83193 -3.043055,2.89219 -3.073183,2.95245 -3.043055,2.86206 -2.892408,2.77168 -2.651374,2.53066 -2.380211,2.25953 -1.988531,1.898 -1.506462,1.44609 -0.964137,0.93394 -0.361551,0.33139 -0.331421,0.3314 -0.301293,0.3314 -0.301292,0.36152 -0.271164,0.36152 -0.241034,0.36153 -0.241034,0.39165 -0.210905,0.39165 -0.180775,0.39165 -0.150646,0.42178 -0.150647,0.39165 -0.120517,0.42177 -0.09039,0.42178 -0.06026,0.42178 -0.06026,0.42178 -0.03013,0.42177 -0.03013,0.42178 0.03013,0.45191 0.03013,0.4519 0.06026,0.42178 0.06026,0.4519 0.120517,0.42178 0.120517,0.42178 0.150646,0.42178 0.180775,0.42177 0.180776,0.39165 0.210905,0.42178 0.241034,0.39165 0.271163,0.36153 0.271163,0.39165 0.301293,0.36152 0.331422,0.3314 0.361551,0.36152 0.361551,0.30127 0.39168,0.30127 0.39168,0.27114 0.391681,0.27114 0.39168,0.21089 0.421809,0.21089 0.42181,0.21089 0.451939,0.15064 0.421809,0.15063 0.451939,0.15064 0.451939,0.0904 0.451939,0.0904 0.482068,0.0602 0.451938,0.0603 0.451939,0.0301 0.482068,0 0.451939,0 0.482068,-0.0602 0.451939,-0.0603 0.451939,-0.0602 0.451938,-0.0904 0.451939,-0.12051 0.451939,-0.15063 0.42181,-0.15064 0.451938,-0.18076 0.42181,-0.21089 0.39168,-0.21089 0.42181,-0.24101 0.39168,-0.27115 0.361551,-0.27114 0.39168,-0.30127 0.361551,-0.33139 37.872471,-36.06198 0.301292,-0.3314 0.301293,-0.3314 0.301292,-0.36152 0.271164,-0.36152 0.241034,-0.36153 0.210904,-0.36152 0.210905,-0.39165 0.210905,-0.39165 0.150646,-0.42178 0.150646,-0.39165 0.120517,-0.42178 0.09039,-0.42178 0.09039,-0.4519 0.06026,-0.42178 0.03013,-0.4519 0,-0.42178 0,-39.82785 0,-0.48203 -0.03013,-0.45191 -0.06026,-0.4519 -0.09039,-0.45191 -0.120517,-0.42177 -0.120517,-0.42178 -0.150646,-0.42178 -0.180776,-0.42178 -0.180775,-0.39165 -0.210905,-0.39165 -0.241034,-0.39165 -0.271163,-0.36152 -0.271163,-0.3314 -0.271164,-0.36152 -0.301292,-0.3314 -0.331422,-0.30127 -0.331422,-0.30127 -0.361551,-0.27114 -0.361551,-0.27114 -0.39168,-0.27115 -0.39168,-0.21088 -0.391681,-0.24102 -0.421809,-0.18076 -0.42181,-0.18076 -0.451939,-0.18077 -0.451938,-0.1205 -0.451939,-0.12051 -0.451939,-0.12051 -0.482068,-0.0602 -0.482068,-0.0603 -0.512197,-0.0301 -0.482068,-0.0301 -0.512198,0.0301 -0.482068,0.0301 -0.482068,0.0603 -0.482068,0.0602 -0.451939,0.12051 -0.451938,0.12051 -0.451939,0.1205 -0.451939,0.18077 -0.421809,0.18076 -0.42181,0.18076 -0.39168,0.24102 -0.391681,0.21088 -0.39168,0.27115 -0.361551,0.27114 -0.361551,0.27114 -0.331422,0.30127 -0.301292,0.30127 -0.301293,0.3314 -0.301292,0.36152 -0.271164,0.3314 -0.241034,0.36152 -0.241034,0.39165 -0.210904,0.39165 -0.180776,0.39165 -0.180775,0.42178 -0.150647,0.42178 -0.150646,0.42178 -0.09039,0.42177 -0.09039,0.45191 -0.06026,0.4519 -0.03013,0.45191 -0.03013,0.48203 0,0.3314 z"
           id="path4430"
           inkscape:connector-curvature="0" />
        <path
           style="fill:#ffffff;fill-opacity:1;fill-rule:evenodd;stroke:none"
           d="m 264.26367,436.96153 0.0301,0.42178 0.0301,0.4519 0.0603,0.42178 0.0603,0.4519 0.12052,0.42178 0.12051,0.42178 0.15065,0.39165 0.15065,0.42178 0.18077,0.39165 0.21091,0.39165 0.24103,0.36152 0.24103,0.36153 0.27117,0.36152 0.27116,0.36152 0.30129,0.3314 0.33143,0.3314 37.84234,36.06198 0.36155,0.33139 0.39168,0.30127 0.36155,0.27114 0.42181,0.27115 0.39168,0.24101 0.42181,0.21089 0.42181,0.21089 0.42181,0.18076 0.45194,0.15064 0.42181,0.15063 0.45193,0.12051 0.45194,0.0904 0.48207,0.0602 0.45194,0.0603 0.45194,0.0602 0.48207,0 0.45194,0 0.45193,-0.0301 0.48207,-0.0603 0.45194,-0.0602 0.45194,-0.0904 0.45194,-0.0904 0.45194,-0.15064 0.45194,-0.15063 0.42181,-0.15064 0.42181,-0.21089 0.4218,-0.21089 0.42181,-0.21089 0.39168,-0.27114 0.39168,-0.27114 0.39169,-0.30127 0.36155,-0.30127 0.33142,-0.36152 0.33142,-0.3314 0.30129,-0.36152 0.30129,-0.39165 0.24104,-0.36153 0.24103,-0.39165 0.21091,-0.42178 0.2109,-0.39165 0.15065,-0.42177 0.15064,-0.42178 0.12052,-0.42178 0.12052,-0.42178 0.0603,-0.4519 0.0603,-0.42178 0.0301,-0.4519 0.0301,-0.45191 -0.0301,-0.42178 -0.0301,-0.42177 -0.0603,-0.42178 -0.0603,-0.42178 -0.0904,-0.42178 -0.12052,-0.42177 -0.15064,-0.39165 -0.15065,-0.42178 -0.18077,-0.39165 -0.21091,-0.39165 -0.24103,-0.39165 -0.24104,-0.36153 -0.27116,-0.36152 -0.27116,-0.36152 -0.33143,-0.3314 -0.33142,-0.3314 -0.33142,-0.33139 -0.96413,-0.93394 -1.5366,-1.44609 -1.98853,-1.898 -2.35008,-2.25953 -2.6815,-2.53066 -2.89241,-2.77168 -3.01293,-2.86206 -3.10331,-2.95245 -3.04305,-2.89219 -2.95267,-2.83193 -2.77189,-2.62105 -2.4706,-2.3499 -2.13918,-2.04863 -1.68724,-1.59673 -1.17504,-1.1147 0,-1.41597 0,-1.898 0,-2.28965 0,-2.62104 0,-2.86206 0,-3.0127 0,-3.13321 0,-3.1332 0,-3.04282 0,-2.92232 0,-2.6813 0,-2.3499 0,-1.98838 0,-1.50635 0,-0.96406 0,-0.3314 -0.0301,-0.48203 -0.0301,-0.45191 -0.0603,-0.4519 -0.0904,-0.45191 -0.0904,-0.42177 -0.15064,-0.42178 -0.15065,-0.42178 -0.15065,-0.42178 -0.2109,-0.39165 -0.21091,-0.39165 -0.24103,-0.39165 -0.24103,-0.36152 -0.27117,-0.3314 -0.27116,-0.36152 -0.33142,-0.3314 -0.3013,-0.30127 -0.33142,-0.30127 -0.36155,-0.27114 -0.36155,-0.27114 -0.39168,-0.27115 -0.39168,-0.21088 -0.39168,-0.24102 -0.42181,-0.18076 -0.42181,-0.18076 -0.45194,-0.18077 -0.45194,-0.1205 -0.45194,-0.12051 -0.45193,-0.12051 -0.48207,-0.0602 -0.48207,-0.0603 -0.48207,-0.0301 -0.5122,-0.0301 -0.48206,0.0301 -0.5122,0.0301 -0.48207,0.0603 -0.45194,0.0602 -0.48207,0.12051 -0.45194,0.12051 -0.45193,0.1205 -0.45194,0.18077 -0.42181,0.18076 -0.42181,0.18076 -0.39168,0.24102 -0.39168,0.21088 -0.39168,0.27115 -0.36155,0.27114 -0.33143,0.27114 -0.36155,0.30127 -0.30129,0.30127 -0.30129,0.3314 -0.30129,0.36152 -0.27117,0.3314 -0.24103,0.36152 -0.24104,0.39165 -0.2109,0.39165 -0.18078,0.39165 -0.18077,0.42178 -0.15065,0.42178 -0.15064,0.42178 -0.0904,0.42177 -0.0904,0.45191 -0.0603,0.4519 -0.0301,0.45191 -0.0301,0.48203 0,39.82785 z"
           id="path4432"
           inkscape:connector-curvature="0" />
      </g>
    </g>
    <path
       transform="translate(160.53525,358.81653)"
       sodipodi:type="arc"
       style="fill:#f47346;fill-opacity:1;stroke:none"
       id="path3019"
       sodipodi:cx="358.57144"
       sodipodi:cy="428.07648"
       sodipodi:rx="121.42857"
       sodipodi:ry="121.42857"
       d="m 480.00002,428.07648 a 121.42857,121.42857 0 1 1 -242.85715,0 121.42857,121.42857 0 1 1 242.85715,0 z"
       inkscape:export-filename="/home/simon/ricm/5/projet/depot/SmartCampus2014/appsClient/exampleAR/public_html/images/store.png"
       inkscape:export-xdpi="9.2600002"
       inkscape:export-ydpi="9.2600002" />
    <path
       style="fill:#000000;fill-opacity:0.11450381;stroke:none"
       d="m 640.53527,786.89301 c 0,67.06315 -54.36543,121.42857 -121.42858,121.42857 -67.06315,0 -121.42857,-54.36542 -121.42857,-121.42857 53.89349,25.01346 173.94628,35.30894 242.85715,0 z"
       id="path3021"
       inkscape:connector-curvature="0"
       sodipodi:nodetypes="cscc"
       inkscape:export-filename="/home/simon/ricm/5/projet/depot/SmartCampus2014/appsClient/exampleAR/public_html/images/store.png"
       inkscape:export-xdpi="9.2600002"
       inkscape:export-ydpi="9.2600002" />
    <g
       id="g4771"
       transform="matrix(-3.5067044,0,0,3.5067044,1584.1982,-2105.8772)"
       style="fill:#ffffff"
       inkscape:export-filename="/home/simon/ricm/5/projet/depot/SmartCampus2014/appsClient/exampleAR/public_html/images/store.png"
       inkscape:export-xdpi="9"
       inkscape:export-ydpi="9">
      <path
         inkscape:connector-curvature="0"
         id="rect3189"
         d="m 283.53125,813.03125 c -0.8964,0 -1.65625,0.7911 -1.65625,1.6875 A 1.3595448,1.3595448 0 0 0 281.90625,815 l 3.84375,17.65625 0.0625,-0.0312 c 0.13952,0.76879 0.76198,1.40625 1.5625,1.40625 l 26.71875,0 c 0.78687,0 1.37564,-0.62475 1.53125,-1.375 l 0.0937,0.0312 4.1875,-17.65625 a 1.3595448,1.3595448 0 0 0 0.0312,-0.3125 c 0,-0.8964 -0.75988,-1.6875 -1.65625,-1.6875 l -34.75,0 z m 1.3125,2.71875 32.09375,0 -3.6875,15.5625 -25,0 -3.40625,-15.5625 z"
         style="font-size:medium;font-style:normal;font-variant:normal;font-weight:normal;font-stretch:normal;text-indent:0;text-align:start;text-decoration:none;line-height:normal;letter-spacing:normal;word-spacing:normal;text-transform:none;direction:ltr;block-progression:tb;writing-mode:lr-tb;text-anchor:start;baseline-shift:baseline;color:#000000;fill:#ffffff;fill-opacity:1;stroke:none;stroke-width:2.71881771;marker:none;visibility:visible;display:inline;overflow:visible;enable-background:accumulate;font-family:Sans;-inkscape-font-specification:Sans" />
      <path
         inkscape:connector-curvature="0"
         id="path3964"
         d="m 319.53125,807.15625 a 2.1752718,2.1752718 0 0 0 -1.90625,1.625 l -6.84375,27.0625 -23.4375,0 a 2.1752718,2.1752718 0 1 0 0,4.34375 l 25.125,0 a 2.1752718,2.1752718 0 0 0 2.125,-1.625 l 6.84375,-27.0625 4.21875,0 a 2.1752718,2.1752718 0 1 0 0,-4.34375 l -5.90625,0 a 2.1752718,2.1752718 0 0 0 -0.21875,0 z"
         style="font-size:medium;font-style:normal;font-variant:normal;font-weight:normal;font-stretch:normal;text-indent:0;text-align:start;text-decoration:none;line-height:normal;letter-spacing:normal;word-spacing:normal;text-transform:none;direction:ltr;block-progression:tb;writing-mode:lr-tb;text-anchor:start;baseline-shift:baseline;color:#000000;fill:#ffffff;fill-opacity:1;stroke:none;stroke-width:4.35010862;marker:none;visibility:visible;display:inline;overflow:visible;enable-background:accumulate;font-family:Sans;-inkscape-font-specification:Sans" />
      <path
         style="fill:#ffffff;fill-opacity:1;stroke:none"
         d="m 296.67805,841.79996 c 0,2.38897 -1.93664,4.32561 -4.32561,4.32561 -2.38897,0 -4.32561,-1.93664 -4.32561,-4.32561 0,-2.38896 1.93664,-4.3256 4.32561,-4.3256 2.38897,0 4.32561,1.93664 4.32561,4.3256 z"
         id="path3966"
         inkscape:connector-curvature="0" />
      <path
         style="fill:#ffffff;fill-opacity:1;stroke:none"
         d="m 313.70586,841.79996 c 0,2.38897 -1.93664,4.32561 -4.32561,4.32561 -2.38897,0 -4.32561,-1.93664 -4.32561,-4.32561 0,-2.38896 1.93664,-4.3256 4.32561,-4.3256 2.38897,0 4.32561,1.93664 4.32561,4.3256 z"
         id="path3968"
         inkscape:connector-curvature="0" />
      <path
         inkscape:connector-curvature="0"
         id="path3970"
         d="m 284.375,819.5625 0,1.625 32.21875,0 0,-1.625 -32.21875,0 z"
         style="font-size:medium;font-style:normal;font-variant:normal;font-weight:normal;font-stretch:normal;text-indent:0;text-align:start;text-decoration:none;line-height:normal;letter-spacing:normal;word-spacing:normal;text-transform:none;direction:ltr;block-progression:tb;writing-mode:lr-tb;text-anchor:start;baseline-shift:baseline;color:#000000;fill:#ffffff;fill-opacity:1;stroke:none;stroke-width:1.63129067;marker:none;visibility:visible;display:inline;overflow:visible;enable-background:accumulate;font-family:Sans;-inkscape-font-specification:Sans" />
      <path
         inkscape:connector-curvature="0"
         id="path3972"
         d="m 285.59375,824.65625 0,1.59375 31.03125,0 0,-1.59375 -31.03125,0 z"
         style="font-size:medium;font-style:normal;font-variant:normal;font-weight:normal;font-stretch:normal;text-indent:0;text-align:start;text-decoration:none;line-height:normal;letter-spacing:normal;word-spacing:normal;text-transform:none;direction:ltr;block-progression:tb;writing-mode:lr-tb;text-anchor:start;baseline-shift:baseline;color:#000000;fill:#ffffff;fill-opacity:1;stroke:none;stroke-width:1.6012187;marker:none;visibility:visible;display:inline;overflow:visible;enable-background:accumulate;font-family:Sans;-inkscape-font-specification:Sans" />
      <path
         inkscape:connector-curvature="0"
         id="path3982"
         d="m 298.21875,814.65625 -1.625,0.0625 0.75,18.125 1.625,-0.0937 -0.75,-18.09375 z"
         style="font-size:medium;font-style:normal;font-variant:normal;font-weight:normal;font-stretch:normal;text-indent:0;text-align:start;text-decoration:none;line-height:normal;letter-spacing:normal;word-spacing:normal;text-transform:none;direction:ltr;block-progression:tb;writing-mode:lr-tb;text-anchor:start;baseline-shift:baseline;color:#000000;fill:#ffffff;fill-opacity:1;stroke:none;stroke-width:1.63129067;marker:none;visibility:visible;display:inline;overflow:visible;enable-background:accumulate;font-family:Sans;-inkscape-font-specification:Sans" />
      <path
         inkscape:connector-curvature="0"
         id="path3984"
         d="m 292.21875,814.375 -1.625,0.125 1.34375,18.0625 1.625,-0.125 -1.34375,-18.0625 z"
         style="font-size:medium;font-style:normal;font-variant:normal;font-weight:normal;font-stretch:normal;text-indent:0;text-align:start;text-decoration:none;line-height:normal;letter-spacing:normal;word-spacing:normal;text-transform:none;direction:ltr;block-progression:tb;writing-mode:lr-tb;text-anchor:start;baseline-shift:baseline;color:#000000;fill:#ffffff;fill-opacity:1;stroke:none;stroke-width:1.63129067;marker:none;visibility:visible;display:inline;overflow:visible;enable-background:accumulate;font-family:Sans;-inkscape-font-specification:Sans" />
      <path
         inkscape:connector-curvature="0"
         id="path3986"
         d="m 303.25,814.8125 -0.5,18.09375 1.625,0.0625 0.5,-18.125 -1.625,-0.0312 z"
         style="font-size:medium;font-style:normal;font-variant:normal;font-weight:normal;font-stretch:normal;text-indent:0;text-align:start;text-decoration:none;line-height:normal;letter-spacing:normal;word-spacing:normal;text-transform:none;direction:ltr;block-progression:tb;writing-mode:lr-tb;text-anchor:start;baseline-shift:baseline;color:#000000;fill:#ffffff;fill-opacity:1;stroke:none;stroke-width:1.63129067;marker:none;visibility:visible;display:inline;overflow:visible;enable-background:accumulate;font-family:Sans;-inkscape-font-specification:Sans" />
      <path
         inkscape:connector-curvature="0"
         id="path3988"
         d="m 309.59375,814.71875 -1.375,18.0625 1.625,0.125 1.375,-18.0625 -1.625,-0.125 z"
         style="font-size:medium;font-style:normal;font-variant:normal;font-weight:normal;font-stretch:normal;text-indent:0;text-align:start;text-decoration:none;line-height:normal;letter-spacing:normal;word-spacing:normal;text-transform:none;direction:ltr;block-progression:tb;writing-mode:lr-tb;text-anchor:start;baseline-shift:baseline;color:#000000;fill:#ffffff;fill-opacity:1;stroke:none;stroke-width:1.63129067;marker:none;visibility:visible;display:inline;overflow:visible;enable-background:accumulate;font-family:Sans;-inkscape-font-specification:Sans" />
    </g>
    <path
       transform="translate(165.66502,28.284271)"
       inkscape:export-ydpi="9.2600002"
       inkscape:export-xdpi="9.2600002"
       inkscape:export-filename="/home/simon/ricm/5/projet/depot/SmartCampus2014/appsClient/exampleAR/public_html/images/food.png"
       d="m 480.00002,428.07648 a 121.42857,121.42857 0 1 1 -242.85715,0 121.42857,121.42857 0 1 1 242.85715,0 z"
       sodipodi:ry="121.42857"
       sodipodi:rx="121.42857"
       sodipodi:cy="428.07648"
       sodipodi:cx="358.57144"
       id="path4800"
       style="fill:#c38dd9;fill-opacity:1;stroke:none"
       sodipodi:type="arc" />
    <path
       inkscape:export-ydpi="9.2600002"
       inkscape:export-xdpi="9.2600002"
       inkscape:export-filename="/home/simon/ricm/5/projet/depot/SmartCampus2014/appsClient/exampleAR/public_html/images/food.png"
       sodipodi:nodetypes="cscc"
       inkscape:connector-curvature="0"
       id="path4802"
       d="m 645.66504,456.36075 c 0,67.06315 -54.36543,121.42857 -121.42858,121.42857 -67.06315,0 -121.42857,-54.36542 -121.42857,-121.42857 53.89349,25.01346 173.94628,35.30894 242.85715,0 z"
       style="fill:#000000;fill-opacity:0.11450381;stroke:none" />
    <g
       id="g3598"
       transform="matrix(3.4103938,0,0,3.4103938,-2251.1568,-5070.5069)"
       style="fill:#ffffff"
       inkscape:export-filename="/home/simon/ricm/5/projet/depot/SmartCampus2014/appsClient/exampleAR/public_html/images/food.png"
       inkscape:export-xdpi="9"
       inkscape:export-ydpi="9">
      <path
         inkscape:connector-curvature="0"
         id="path3680"
         d="m 822.6875,1599.875 a 1.8226822,1.8226822 0 0 0 -1.625,1.8438 l 0,43.75 a 1.828125,1.828125 0 0 0 3.65625,0 l 0,-43.75 a 1.8226822,1.8226822 0 0 0 -2.03125,-1.8438 z"
         style="font-size:medium;font-style:normal;font-variant:normal;font-weight:normal;font-stretch:normal;text-indent:0;text-align:start;text-decoration:none;line-height:normal;letter-spacing:normal;word-spacing:normal;text-transform:none;direction:ltr;block-progression:tb;writing-mode:lr-tb;text-anchor:start;baseline-shift:baseline;color:#000000;fill:#ffffff;fill-opacity:1;stroke:none;stroke-width:3.64499998;marker:none;visibility:visible;display:inline;overflow:visible;enable-background:accumulate;font-family:Sans;-inkscape-font-specification:Sans" />
      <path
         inkscape:connector-curvature="0"
         id="path3682"
         d="m 821.34375,1597.75 a 3.280828,3.280828 0 0 0 -3.21875,3.3438 l 0,19.4374 a 3.280828,3.280828 0 1 0 6.53125,0 l 0,-19.4374 a 3.280828,3.280828 0 0 0 -3.3125,-3.3438 z"
         style="font-size:medium;font-style:normal;font-variant:normal;font-weight:normal;font-stretch:normal;text-indent:0;text-align:start;text-decoration:none;line-height:normal;letter-spacing:normal;word-spacing:normal;text-transform:none;direction:ltr;block-progression:tb;writing-mode:lr-tb;text-anchor:start;baseline-shift:baseline;color:#000000;fill:#ffffff;fill-opacity:1;stroke:none;stroke-width:6.56099987;marker:none;visibility:visible;display:inline;overflow:visible;enable-background:accumulate;font-family:Sans;-inkscape-font-specification:Sans" />
      <path
         inkscape:connector-curvature="0"
         id="path3684"
         d="m 805.90625,1612.4375 a 1.8226822,1.8226822 0 0 0 -1.59375,1.8437 l 0,31.1876 a 1.8226822,1.8226822 0 1 0 3.625,0 l 0,-31.1876 a 1.8226822,1.8226822 0 0 0 -2.03125,-1.8437 z"
         style="font-size:medium;font-style:normal;font-variant:normal;font-weight:normal;font-stretch:normal;text-indent:0;text-align:start;text-decoration:none;line-height:normal;letter-spacing:normal;word-spacing:normal;text-transform:none;direction:ltr;block-progression:tb;writing-mode:lr-tb;text-anchor:start;baseline-shift:baseline;color:#000000;fill:#ffffff;fill-opacity:1;stroke:none;stroke-width:3.64499998;marker:none;visibility:visible;display:inline;overflow:visible;enable-background:accumulate;font-family:Sans;-inkscape-font-specification:Sans" />
      <path
         sodipodi:nodetypes="cscc"
         id="path3686"
         d="m 811.62066,1612.2701 c 0,3.0197 -2.44788,5.4675 -5.4675,5.4675 -3.01961,0 -5.4675,-2.4478 -5.4675,-5.4675 0.0582,0.08 11.00414,-0.066 10.935,0 z"
         style="fill:#ffffff;fill-opacity:1;stroke:none"
         inkscape:connector-curvature="0" />
      <path
         inkscape:connector-curvature="0"
         id="path3689"
         d="m 801.53125,1598.1562 a 1.0936094,1.0936094 0 0 0 -0.875,1.0938 l 0,12.8438 a 1.09375,1.09375 0 0 0 2.1875,0 l 0,-12.8438 a 1.0936094,1.0936094 0 0 0 -1.3125,-1.0938 z"
         style="font-size:medium;font-style:normal;font-variant:normal;font-weight:normal;font-stretch:normal;text-indent:0;text-align:start;text-decoration:none;line-height:normal;letter-spacing:normal;word-spacing:normal;text-transform:none;direction:ltr;block-progression:tb;writing-mode:lr-tb;text-anchor:start;baseline-shift:baseline;color:#000000;fill:#ffffff;fill-opacity:1;stroke:none;stroke-width:2.18700004;marker:none;visibility:visible;display:inline;overflow:visible;enable-background:accumulate;font-family:Sans;-inkscape-font-specification:Sans" />
      <path
         inkscape:connector-curvature="0"
         id="path3691"
         d="m 810.4375,1598.0625 a 1.0936094,1.0936094 0 0 0 -0.96875,1.125 l 0,12.875 a 1.09375,1.09375 0 0 0 2.1875,0 l 0,-12.875 a 1.0936094,1.0936094 0 0 0 -1.21875,-1.125 z"
         style="font-size:medium;font-style:normal;font-variant:normal;font-weight:normal;font-stretch:normal;text-indent:0;text-align:start;text-decoration:none;line-height:normal;letter-spacing:normal;word-spacing:normal;text-transform:none;direction:ltr;block-progression:tb;writing-mode:lr-tb;text-anchor:start;baseline-shift:baseline;color:#000000;fill:#ffffff;fill-opacity:1;stroke:none;stroke-width:2.18700004;marker:none;visibility:visible;display:inline;overflow:visible;enable-background:accumulate;font-family:Sans;-inkscape-font-specification:Sans" />
      <path
         inkscape:connector-curvature="0"
         id="path3693"
         d="m 806,1598.125 a 1.0936094,1.0936094 0 0 0 -0.96875,1.0938 l 0,12.8124 a 1.09375,1.09375 0 0 0 2.1875,0 l 0,-12.8124 A 1.0936094,1.0936094 0 0 0 806,1598.125 z"
         style="font-size:medium;font-style:normal;font-variant:normal;font-weight:normal;font-stretch:normal;text-indent:0;text-align:start;text-decoration:none;line-height:normal;letter-spacing:normal;word-spacing:normal;text-transform:none;direction:ltr;block-progression:tb;writing-mode:lr-tb;text-anchor:start;baseline-shift:baseline;color:#000000;fill:#ffffff;fill-opacity:1;stroke:none;stroke-width:2.18700004;marker:none;visibility:visible;display:inline;overflow:visible;enable-background:accumulate;font-family:Sans;-inkscape-font-specification:Sans" />
    </g>
    <path
       transform="translate(-165.66502,-275.75634)"
       inkscape:export-ydpi="9.2600002"
       inkscape:export-xdpi="9.2600002"
       inkscape:export-filename="/home/simon/ricm/5/projet/depot/SmartCampus2014/appsClient/exampleAR/public_html/images/bed.png"
       d="m 480.00002,428.07648 a 121.42857,121.42857 0 1 1 -242.85715,0 121.42857,121.42857 0 1 1 242.85715,0 z"
       sodipodi:ry="121.42857"
       sodipodi:rx="121.42857"
       sodipodi:cy="428.07648"
       sodipodi:cx="358.57144"
       id="path3040"
       style="fill:#00008e;fill-opacity:1;stroke:none"
       sodipodi:type="arc" />
    <path
       inkscape:export-ydpi="9.2600002"
       inkscape:export-xdpi="9.2600002"
       inkscape:export-filename="/home/simon/ricm/5/projet/depot/SmartCampus2014/appsClient/exampleAR/public_html/images/bed.png"
       sodipodi:nodetypes="cscc"
       inkscape:connector-curvature="0"
       id="path3042"
       d="m 314.335,152.32014 c 0,67.06315 -54.36543,121.42857 -121.42858,121.42857 -67.06315,0 -121.42857,-54.36542 -121.42857,-121.42857 53.89349,25.01346 173.94628,35.30894 242.85715,0 z"
       style="fill:#000000;fill-opacity:0.11450381;stroke:none" />
    <g
       id="g4282"
       transform="matrix(3.3773678,0,0,3.3773678,-5263.6355,-2666.8836)"
       style="fill:#ffffff"
       inkscape:export-filename="/home/simon/ricm/5/projet/depot/SmartCampus2014/appsClient/exampleAR/public_html/images/bed.png"
       inkscape:export-xdpi="9"
       inkscape:export-ydpi="9">
      <path
         inkscape:connector-curvature="0"
         id="path3881"
         d="m 1591.6875,819.5625 a 1.3852385,1.3852385 0 0 0 -1.2187,1.40625 l 0,27.6875 a 1.3906,1.3906 0 0 0 2.7812,0 l 0,-27.6875 a 1.3852385,1.3852385 0 0 0 -1.5625,-1.40625 z"
         style="font-size:medium;font-style:normal;font-variant:normal;font-weight:normal;font-stretch:normal;text-indent:0;text-align:start;text-decoration:none;line-height:normal;letter-spacing:normal;word-spacing:normal;text-transform:none;direction:ltr;block-progression:tb;writing-mode:lr-tb;text-anchor:start;baseline-shift:baseline;color:#000000;fill:#ffffff;fill-opacity:1;stroke:none;stroke-width:2.77020000999999993;marker:none;visibility:visible;display:inline;overflow:visible;enable-background:accumulate;font-family:Sans;-inkscape-font-specification:Sans" />
      <path
         inkscape:connector-curvature="0"
         id="path3883"
         d="m 1591.5625,836.90625 a 1.3852385,1.3852385 0 0 0 0.2813,2.75 l 43.625,0 0,9 a 1.3906,1.3906 0 0 0 2.7812,0 l 0,-10.375 a 1.3852385,1.3852385 0 0 0 -1.375,-1.375 l -45.0312,0 a 1.3852385,1.3852385 0 0 0 -0.2813,0 z"
         style="font-size:medium;font-style:normal;font-variant:normal;font-weight:normal;font-stretch:normal;text-indent:0;text-align:start;text-decoration:none;line-height:normal;letter-spacing:normal;word-spacing:normal;text-transform:none;direction:ltr;block-progression:tb;writing-mode:lr-tb;text-anchor:start;baseline-shift:baseline;color:#000000;fill:#ffffff;fill-opacity:1;stroke:none;stroke-width:2.77020000999999993;marker:none;visibility:visible;display:inline;overflow:visible;enable-background:accumulate;font-family:Sans;-inkscape-font-specification:Sans" />
      <path
         inkscape:connector-curvature="0"
         sodipodi:nodetypes="ccssccccc"
         id="path3885"
         d="m 1595.3132,835.1147 41.6767,-0.12678 c 0,0 0,-1.52125 0,-3.42281 0,-1.90156 -1.1131,-3.67636 -3.5864,-3.67636 -2.4734,0 -28.5456,0.12769 -28.5456,0.12769 l -0.4734,3.66439 -9.0902,-0.0262 0.019,3.46013 0,-2e-5 z"
         style="fill:#ffffff;fill-opacity:1;stroke:none" />
      <path
         inkscape:connector-curvature="0"
         id="path3887"
         d="m 1600.5603,823.42354 c 2.4266,1.47215 3.6777,3.96871 2.7945,5.57621 -0.8832,1.60751 -3.5664,1.71724 -5.993,0.24509 -2.4266,-1.47215 -3.6777,-3.9687 -2.7945,-5.57621 0.8832,-1.60751 3.5664,-1.71724 5.993,-0.24509 z"
         style="fill:#ffffff;fill-opacity:1;fill-rule:nonzero;stroke:none" />
    </g>
    <path
       sodipodi:type="arc"
       style="fill:#c2ff2a;fill-opacity:1;stroke:none"
       id="path5511"
       sodipodi:cx="358.57144"
       sodipodi:cy="428.07648"
       sodipodi:rx="121.42857"
       sodipodi:ry="121.42857"
       d="m 480.00002,428.07648 a 121.42857,121.42857 0 1 1 -242.85715,0 121.42857,121.42857 0 1 1 242.85715,0 z"
       inkscape:export-filename="/home/simon/ricm/5/projet/depot/SmartCampus2014/appsClient/exampleAR/public_html/images/bar.png"
       inkscape:export-xdpi="9.2600002"
       inkscape:export-ydpi="9.2600002"
       transform="translate(154.33498,-275.75634)" />
    <path
       style="fill:#000000;fill-opacity:0.11450381;stroke:none"
       d="m 634.335,152.32014 c 0,67.06315 -54.36543,121.42857 -121.42858,121.42857 -67.06315,0 -121.42857,-54.36542 -121.42857,-121.42857 53.89349,25.01346 173.94628,35.30894 242.85715,0 z"
       id="path5513"
       inkscape:connector-curvature="0"
       sodipodi:nodetypes="cscc"
       inkscape:export-filename="/home/simon/ricm/5/projet/depot/SmartCampus2014/appsClient/exampleAR/public_html/images/bar.png"
       inkscape:export-xdpi="9.2600002"
       inkscape:export-ydpi="9.2600002" />
    <g
       id="g3498"
       transform="matrix(4.2769718,0,0,4.2769718,239.50475,-3804.4397)"
       style="fill:#ffffff"
       inkscape:export-filename="/home/simon/ricm/5/projet/depot/SmartCampus2014/appsClient/exampleAR/public_html/images/bar.png"
       inkscape:export-xdpi="9"
       inkscape:export-ydpi="9">
      <g
         style="fill:#ffffff"
         transform="matrix(0.46810841,0,0,0.46810841,132.0267,431.87897)"
         id="g3781">
        <path
           transform="matrix(1.0327869,0,0,0.83333333,-84.164908,1013.1403)"
           d="m -45.000002,91.071426 c 0,4.142136 -7.315347,7.5 -16.339285,7.5 -9.023938,0 -16.339285,-3.357864 -16.339285,-7.5 0,-4.142135 7.315347,-7.5 16.339285,-7.5 9.023938,0 16.339285,3.357865 16.339285,7.5 z"
           sodipodi:ry="7.5"
           sodipodi:rx="16.339285"
           sodipodi:cy="91.071426"
           sodipodi:cx="-61.339287"
           id="path3762"
           style="fill:#ffffff;fill-opacity:1;fill-rule:nonzero;stroke:none"
           sodipodi:type="arc" />
        <path
           style="fill:#ffffff;fill-opacity:1;stroke:none"
           d="m -147.3125,33.125 c 0.30818,0 -8.76786,-0.098 -16,0.4375 -4.08563,0.3026 -6.06599,0.92745 -7.0625,1.40625 0.5236,0.1223 1.03163,0.23175 1.59375,0.34375 6.52567,1.2996 15.60103,1.95585 25.59375,1.65625 7.10903,-0.2131 13.70604,-0.87275 19.25,-1.84375 -0.87106,-0.4918 -2.88616,-1.2277 -7.40625,-1.5625 -7.23215,-0.5358 -16.27694,-0.4375 -15.96875,-0.4375 z m -23.21875,3.84375 c 1.37844,2.2822 12.28636,20.31655 14.46875,24.09375 2.32143,4.0179 3.92857,6.69195 5,10.53125 1.07143,3.8393 0.875,5.1875 0.875,5.1875 0,0 0.18314,12.42415 0.0937,17.78125 -0.0893,5.3572 -1.68304,6.2589 -5.34375,8.9375 l 16.25,0 c -3.66072,-2.6786 -5.28571,-3.5803 -5.375,-8.9375 -0.0893,-5.3571 0.0937,-17.78125 0.0937,-17.78125 0,0 -0.16518,-1.3482 0.90625,-5.1875 1.07143,-3.8393 2.67857,-6.51335 5,-10.53125 2.15988,-3.7382 12.74228,-21.2752 14.3125,-23.875 -5.51599,0.9338 -11.95214,1.57385 -18.875,1.78125 -10.11723,0.3033 -19.31846,-0.3444 -26.0625,-1.6875 -0.47065,-0.094 -0.8973,-0.2119 -1.34375,-0.3125 l 1e-4,0 z m 5.875,4.25 10.21875,1 4.5625,23.5 -14.78125,-24.5 z m 35.09375,0.5625 -9.34375,17.03125 5.9375,-16.59375 3.40625,-0.4375 z"
           transform="translate(0,982.36218)"
           id="path3764"
           sodipodi:nodetypes="cscsscsccsscsccscsscsscccccccccc"
           inkscape:connector-curvature="0" />
        <path
           style="fill:#ffffff;fill-opacity:1;fill-rule:nonzero;stroke:none"
           d="m -132.875,25.96875 c -0.65875,-0.01148 -1.32943,0.03933 -1.96875,0.15625 l 0.3125,0.625 c 4.77722,-0.481206 9.99392,2.617941 12.5,7.5625 2.47285,4.879031 1.45879,10.152102 -2.28125,12.59375 l 0.28125,0.5625 c 4.45789,-2.2303 5.88079,-8.0011 3.09375,-13.5 -2.43879,-4.8118 -7.32627,-7.919648 -11.9375,-8 z m -0.9375,2.1875 8.84375,17.46875 c 3.03413,-2.089518 3.98901,-6.393987 1.78125,-10.75 -2.17365,-4.288683 -6.62931,-6.847907 -10.625,-6.71875 z"
           transform="translate(0,982.36218)"
           id="path3766"
           inkscape:connector-curvature="0" />
      </g>
    </g>
    <path
       sodipodi:type="arc"
       style="fill:#c38d3c;fill-opacity:1;stroke:none"
       id="path6915"
       sodipodi:cx="358.57144"
       sodipodi:cy="428.07648"
       sodipodi:rx="121.42857"
       sodipodi:ry="121.42857"
       d="m 480.00002,428.07648 a 121.42857,121.42857 0 1 1 -242.85715,0 121.42857,121.42857 0 1 1 242.85715,0 z"
       inkscape:export-filename="/home/simon/ricm/5/projet/depot/SmartCampus2014/appsClient/exampleAR/public_html/images/library.png"
       inkscape:export-xdpi="9.2600002"
       inkscape:export-ydpi="9.2600002"
       transform="translate(165.66502,668.28427)" />
    <path
       style="fill:#000000;fill-opacity:0.11450381;stroke:none"
       d="m 645.66504,1096.3608 c 0,67.0631 -54.36543,121.4285 -121.42858,121.4285 -67.06315,0 -121.42857,-54.3654 -121.42857,-121.4285 53.89349,25.0134 173.94628,35.3089 242.85715,0 z"
       id="path6917"
       inkscape:connector-curvature="0"
       sodipodi:nodetypes="cscc"
       inkscape:export-filename="/home/simon/ricm/5/projet/depot/SmartCampus2014/appsClient/exampleAR/public_html/images/library.png"
       inkscape:export-xdpi="9.2600002"
       inkscape:export-ydpi="9.2600002" />
    <g
       id="g3864"
       transform="matrix(1.3726648,0,0,1.3726648,-229.59579,-1121.313)"
       style="fill:#ffffff"
       inkscape:export-filename="/home/simon/ricm/5/projet/depot/SmartCampus2014/appsClient/exampleAR/public_html/images/library.png"
       inkscape:export-xdpi="9"
       inkscape:export-ydpi="9">
      <path
         id="path3961"
         d="m 526.17127,1565.7926 -34.28554,27.5396 13.96818,3.5713 30.39667,-28.5713 -10.07931,-2.5396 z m 22.30147,5.7142 -30.39667,28.4921 65.87267,16.7458 26.26971,-29.5237 -61.74571,-15.7142 z"
         style="fill:#ffffff;stroke:none"
         inkscape:connector-curvature="0" />
      <path
         id="path3172"
         d="m 490.06034,1595.6337 c -5.3733,9.0674 -4.70163,15.127 0,21.5079 l 13.73009,3.4921 c -2.38193,-10.7723 0.19225,-19.5186 0.79365,-21.3492 l -14.52374,-3.6508 z m 25.07924,6.3492 c -3.81568,8.775 -1.78163,18.2185 -0.95238,21.2697 l 69.44408,17.6189 c -3.02248,-6.0449 -2.68664,-14.712 0,-21.4284 l -68.4917,-17.4602 z"
         style="fill:#ffffff;stroke:none"
         inkscape:connector-curvature="0" />
      <path
         id="path3174"
         d="m 485.77465,1619.5226 c -4.36579,9.4031 -3.69415,19.9808 0,24.6823 l 97.85663,25.1587 c -2.68664,-7.3882 -2.68664,-19.5049 0,-24.2064 l -97.85663,-25.6346 z m 10.07931,7.9364 74.3647,18.0157 0.15873,15.635 -74.3647,-18.0159 -0.15873,-15.6348 z"
         style="fill:#ffffff;fill-opacity:1;stroke:none"
         inkscape:connector-curvature="0" />
      <path
         inkscape:connector-curvature="0"
         id="path3176"
         d="m 609.03613,1608.9027 -25.63479,30.3968 1.42857,1.1903 25.63478,-30.3965 -1.42856,-1.1906 z"
         style="font-size:medium;font-style:normal;font-variant:normal;font-weight:normal;font-stretch:normal;text-indent:0;text-align:start;text-decoration:none;line-height:normal;letter-spacing:normal;word-spacing:normal;text-transform:none;direction:ltr;block-progression:tb;writing-mode:lr-tb;text-anchor:start;baseline-shift:baseline;color:#000000;fill:#ffffff;fill-opacity:1;stroke:none;stroke-width:0.74051142px;marker:none;visibility:visible;display:inline;overflow:visible;enable-background:accumulate;font-family:Sans;-inkscape-font-specification:Sans" />
      <path
         inkscape:connector-curvature="0"
         id="path3178"
         d="m 607.13138,1635.093 -24.68241,32.3013 1.42856,1.1114 24.76178,-32.3016 -1.50793,-1.1111 z"
         style="font-size:medium;font-style:normal;font-variant:normal;font-weight:normal;font-stretch:normal;text-indent:0;text-align:start;text-decoration:none;line-height:normal;letter-spacing:normal;word-spacing:normal;text-transform:none;direction:ltr;block-progression:tb;writing-mode:lr-tb;text-anchor:start;baseline-shift:baseline;color:#000000;fill:#ffffff;fill-opacity:1;stroke:none;stroke-width:0.74051142px;marker:none;visibility:visible;display:inline;overflow:visible;enable-background:accumulate;font-family:Sans;-inkscape-font-specification:Sans" />
      <path
         inkscape:connector-curvature="0"
         id="path3963"
         d="m 607.5282,1591.5217 a 0.18808423,0.18808423 0 0 0 -0.0792,0.079 l -23.73003,27.0635 a 0.18808423,0.18808423 0 0 0 0,0.079 0.18808423,0.18808423 0 0 0 0,0.079 0.18808423,0.18808423 0 0 0 0,0.079 0.18808423,0.18808423 0 0 0 0.0792,0.079 0.18808423,0.18808423 0 0 0 0.0792,0 0.18808423,0.18808423 0 0 0 0.0792,0 0.18808423,0.18808423 0 0 0 0.0792,-0.079 l 23.73003,-27.0635 a 0.18808423,0.18808423 0 0 0 0,-0.079 0.18808423,0.18808423 0 0 0 0,-0.079 0.18808423,0.18808423 0 0 0 0,-0.079 0.18808423,0.18808423 0 0 0 -0.0792,-0.079 0.18808423,0.18808423 0 0 0 -0.0792,0 0.18808423,0.18808423 0 0 0 -0.0792,0 z"
         style="font-size:medium;font-style:normal;font-variant:normal;font-weight:normal;font-stretch:normal;text-indent:0;text-align:start;text-decoration:none;line-height:normal;letter-spacing:normal;word-spacing:normal;text-transform:none;direction:ltr;block-progression:tb;writing-mode:lr-tb;text-anchor:start;baseline-shift:baseline;color:#000000;fill:#ffffff;fill-opacity:1;stroke:none;stroke-width:0.14810228;marker:none;visibility:visible;display:inline;overflow:visible;enable-background:accumulate;font-family:Sans;-inkscape-font-specification:Sans" />
      <path
         inkscape:connector-curvature="0"
         id="path3965"
         d="m 607.60757,1595.252 a 0.18808423,0.18808423 0 0 0 -0.0792,0.079 0.18808423,0.18808423 0 0 0 -0.0792,0 l -23.73003,27.0635 a 0.18808423,0.18808423 0 0 0 0,0.079 0.18808423,0.18808423 0 0 0 0,0.079 0.18808423,0.18808423 0 0 0 0,0.079 0.18808423,0.18808423 0 0 0 0,0.079 0.18808423,0.18808423 0 0 0 0.0792,0 0.18808423,0.18808423 0 0 0 0.0792,0 0.18808423,0.18808423 0 0 0 0.0792,0 0.18808423,0.18808423 0 0 0 0.0792,0 l 23.73003,-27.1427 a 0.18808423,0.18808423 0 0 0 0,-0.079 0.18808423,0.18808423 0 0 0 0,-0.079 0.18808423,0.18808423 0 0 0 0,-0.079 0.18808423,0.18808423 0 0 0 -0.0792,0 0.18808423,0.18808423 0 0 0 -0.0792,-0.079 z"
         style="font-size:medium;font-style:normal;font-variant:normal;font-weight:normal;font-stretch:normal;text-indent:0;text-align:start;text-decoration:none;line-height:normal;letter-spacing:normal;word-spacing:normal;text-transform:none;direction:ltr;block-progression:tb;writing-mode:lr-tb;text-anchor:start;baseline-shift:baseline;color:#000000;fill:#ffffff;fill-opacity:1;stroke:none;stroke-width:0.14810228;marker:none;visibility:visible;display:inline;overflow:visible;enable-background:accumulate;font-family:Sans;-inkscape-font-specification:Sans" />
      <path
         inkscape:connector-curvature="0"
         id="path3967"
         d="m 607.5282,1599.0615 a 0.18808423,0.18808423 0 0 0 -0.0792,0.079 l -23.73003,27.0635 a 0.18808423,0.18808423 0 0 0 0,0.079 0.18808423,0.18808423 0 0 0 0,0.079 0.18808423,0.18808423 0 0 0 0,0.079 0.18808423,0.18808423 0 0 0 0.0792,0 0.18808423,0.18808423 0 0 0 0,0.079 0.18808423,0.18808423 0 0 0 0.0792,0 0.18808423,0.18808423 0 0 0 0.0792,0 0.18808423,0.18808423 0 0 0 0,-0.079 0.18808423,0.18808423 0 0 0 0.0792,0 l 23.73003,-27.0632 a 0.18808423,0.18808423 0 0 0 0,-0.079 0.18808423,0.18808423 0 0 0 0,-0.079 0.18808423,0.18808423 0 0 0 0,-0.079 0.18808423,0.18808423 0 0 0 -0.0792,-0.079 0.18808423,0.18808423 0 0 0 -0.0792,0 0.18808423,0.18808423 0 0 0 -0.0792,0 z"
         style="font-size:medium;font-style:normal;font-variant:normal;font-weight:normal;font-stretch:normal;text-indent:0;text-align:start;text-decoration:none;line-height:normal;letter-spacing:normal;word-spacing:normal;text-transform:none;direction:ltr;block-progression:tb;writing-mode:lr-tb;text-anchor:start;baseline-shift:baseline;color:#000000;fill:#ffffff;fill-opacity:1;stroke:none;stroke-width:0.14810228;marker:none;visibility:visible;display:inline;overflow:visible;enable-background:accumulate;font-family:Sans;-inkscape-font-specification:Sans" />
      <path
         inkscape:connector-curvature="0"
         id="path3969"
         d="m 607.5282,1602.7917 a 0.18808423,0.18808423 0 0 0 0,0.079 0.18808423,0.18808423 0 0 0 -0.0792,0 l -23.73003,27.0632 a 0.18808423,0.18808423 0 0 0 0,0.079 0.18808423,0.18808423 0 0 0 0,0.079 0.18808423,0.18808423 0 0 0 0,0.079 0.18808423,0.18808423 0 0 0 0.0792,0.079 0.18808423,0.18808423 0 0 0 0.0792,0 0.18808423,0.18808423 0 0 0 0.0792,0 0.18808423,0.18808423 0 0 0 0.0792,-0.079 l 23.73003,-27.0632 a 0.18808423,0.18808423 0 0 0 0,-0.079 0.18808423,0.18808423 0 0 0 0,-0.079 0.18808423,0.18808423 0 0 0 0,-0.079 0.18808423,0.18808423 0 0 0 -0.0792,0 0.18808423,0.18808423 0 0 0 0,-0.079 0.18808423,0.18808423 0 0 0 -0.0792,0 0.18808423,0.18808423 0 0 0 -0.0792,0 z"
         style="font-size:medium;font-style:normal;font-variant:normal;font-weight:normal;font-stretch:normal;text-indent:0;text-align:start;text-decoration:none;line-height:normal;letter-spacing:normal;word-spacing:normal;text-transform:none;direction:ltr;block-progression:tb;writing-mode:lr-tb;text-anchor:start;baseline-shift:baseline;color:#000000;fill:#ffffff;fill-opacity:1;stroke:none;stroke-width:0.14810228;marker:none;visibility:visible;display:inline;overflow:visible;enable-background:accumulate;font-family:Sans;-inkscape-font-specification:Sans" />
      <path
         inkscape:connector-curvature="0"
         id="path3971"
         d="m 607.44884,1606.6013 -23.73004,27.1424 a 0.18808423,0.18808423 0 0 0 0,0.079 0.18808423,0.18808423 0 0 0 0,0.079 0.18808423,0.18808423 0 0 0 0,0.079 0.18808423,0.18808423 0 0 0 0.0792,0 0.18808423,0.18808423 0 0 0 0.0792,0 0.18808423,0.18808423 0 0 0 0.0792,0 0.18808423,0.18808423 0 0 0 0.0792,0 l 23.73004,-27.0632 a 0.18808423,0.18808423 0 0 0 0,-0.079 0.18808423,0.18808423 0 0 0 0,-0.079 0.18808423,0.18808423 0 0 0 0,-0.079 0.18808423,0.18808423 0 0 0 0,-0.079 0.18808423,0.18808423 0 0 0 -0.0792,0 0.18808423,0.18808423 0 0 0 -0.0792,0 0.18808423,0.18808423 0 0 0 -0.0792,0 0.18808423,0.18808423 0 0 0 -0.0792,0 z"
         style="font-size:medium;font-style:normal;font-variant:normal;font-weight:normal;font-stretch:normal;text-indent:0;text-align:start;text-decoration:none;line-height:normal;letter-spacing:normal;word-spacing:normal;text-transform:none;direction:ltr;block-progression:tb;writing-mode:lr-tb;text-anchor:start;baseline-shift:baseline;color:#000000;fill:#ffffff;fill-opacity:1;stroke:none;stroke-width:0.14810228;marker:none;visibility:visible;display:inline;overflow:visible;enable-background:accumulate;font-family:Sans;-inkscape-font-specification:Sans" />
      <path
         inkscape:connector-curvature="0"
         id="path3973"
         d="m 607.68693,1593.109 -23.73003,27.0635 a 0.18808423,0.18808423 0 0 0 0,0.079 0.18808423,0.18808423 0 0 0 0,0.079 0.18808423,0.18808423 0 0 0 0,0.079 0.18808423,0.18808423 0 0 0 0,0.079 0.18808423,0.18808423 0 0 0 0.0792,0 0.18808423,0.18808423 0 0 0 0.0792,0 0.18808423,0.18808423 0 0 0 0.0792,0 0.18808423,0.18808423 0 0 0 0.0792,0 l 23.73003,-27.0635 a 0.18808423,0.18808423 0 0 0 0,-0.079 0.18808423,0.18808423 0 0 0 0,-0.079 0.18808423,0.18808423 0 0 0 0,-0.079 0.18808423,0.18808423 0 0 0 0,-0.079 0.18808423,0.18808423 0 0 0 -0.0792,0 0.18808423,0.18808423 0 0 0 -0.0792,0 0.18808423,0.18808423 0 0 0 -0.0792,0 0.18808423,0.18808423 0 0 0 -0.0792,0 z"
         style="font-size:medium;font-style:normal;font-variant:normal;font-weight:normal;font-stretch:normal;text-indent:0;text-align:start;text-decoration:none;line-height:normal;letter-spacing:normal;word-spacing:normal;text-transform:none;direction:ltr;block-progression:tb;writing-mode:lr-tb;text-anchor:start;baseline-shift:baseline;color:#000000;fill:#ffffff;fill-opacity:1;stroke:none;stroke-width:0.14810228;marker:none;visibility:visible;display:inline;overflow:visible;enable-background:accumulate;font-family:Sans;-inkscape-font-specification:Sans" />
      <path
         inkscape:connector-curvature="0"
         id="path3975"
         d="m 607.7663,1596.8393 a 0.18808423,0.18808423 0 0 0 -0.0792,0.079 l -23.73004,27.0635 a 0.18808423,0.18808423 0 0 0 0,0.079 0.18808423,0.18808423 0 0 0 0,0.079 0.18808423,0.18808423 0 0 0 0,0.079 0.18808423,0.18808423 0 0 0 0.0792,0.079 0.18808423,0.18808423 0 0 0 0.0792,0 0.18808423,0.18808423 0 0 0 0.0792,0 0.18808423,0.18808423 0 0 0 0,-0.079 0.18808423,0.18808423 0 0 0 0.0792,0 l 23.73004,-27.0633 a 0.18808423,0.18808423 0 0 0 0,-0.079 0.18808423,0.18808423 0 0 0 0,-0.079 0.18808423,0.18808423 0 0 0 0,-0.079 0.18808423,0.18808423 0 0 0 -0.0792,-0.079 0.18808423,0.18808423 0 0 0 -0.0792,0 0.18808423,0.18808423 0 0 0 -0.0792,0 z"
         style="font-size:medium;font-style:normal;font-variant:normal;font-weight:normal;font-stretch:normal;text-indent:0;text-align:start;text-decoration:none;line-height:normal;letter-spacing:normal;word-spacing:normal;text-transform:none;direction:ltr;block-progression:tb;writing-mode:lr-tb;text-anchor:start;baseline-shift:baseline;color:#000000;fill:#ffffff;fill-opacity:1;stroke:none;stroke-width:0.14810228;marker:none;visibility:visible;display:inline;overflow:visible;enable-background:accumulate;font-family:Sans;-inkscape-font-specification:Sans" />
      <path
         inkscape:connector-curvature="0"
         id="path3977"
         d="m 607.7663,1600.5695 a 0.18808423,0.18808423 0 0 0 0,0.079 0.18808423,0.18808423 0 0 0 -0.0792,0 l -23.73004,27.0632 a 0.18808423,0.18808423 0 0 0 0,0.079 0.18808423,0.18808423 0 0 0 0,0.079 0.18808423,0.18808423 0 0 0 0,0.079 0.18808423,0.18808423 0 0 0 0,0.079 0.18808423,0.18808423 0 0 0 0.0792,0 0.18808423,0.18808423 0 0 0 0.0792,0 0.18808423,0.18808423 0 0 0 0.0792,0 0.18808423,0.18808423 0 0 0 0.0792,-0.079 l 23.73004,-27.0632 a 0.18808423,0.18808423 0 0 0 0,-0.079 0.18808423,0.18808423 0 0 0 0,-0.079 0.18808423,0.18808423 0 0 0 0,-0.079 0.18808423,0.18808423 0 0 0 -0.0792,0 0.18808423,0.18808423 0 0 0 0,-0.079 0.18808423,0.18808423 0 0 0 -0.0792,0 0.18808423,0.18808423 0 0 0 -0.0792,0 z"
         style="font-size:medium;font-style:normal;font-variant:normal;font-weight:normal;font-stretch:normal;text-indent:0;text-align:start;text-decoration:none;line-height:normal;letter-spacing:normal;word-spacing:normal;text-transform:none;direction:ltr;block-progression:tb;writing-mode:lr-tb;text-anchor:start;baseline-shift:baseline;color:#000000;fill:#ffffff;fill-opacity:1;stroke:none;stroke-width:0.14810228;marker:none;visibility:visible;display:inline;overflow:visible;enable-background:accumulate;font-family:Sans;-inkscape-font-specification:Sans" />
      <path
         inkscape:connector-curvature="0"
         id="path3979"
         d="m 607.68693,1604.379 a 0.18808423,0.18808423 0 0 0 0,0.079 l -23.73003,27.0632 a 0.18808423,0.18808423 0 0 0 0,0.079 0.18808423,0.18808423 0 0 0 0,0.079 0.18808423,0.18808423 0 0 0 0,0.079 0.18808423,0.18808423 0 0 0 0.0792,0 0.18808423,0.18808423 0 0 0 0,0.079 0.18808423,0.18808423 0 0 0 0.0792,0 0.18808423,0.18808423 0 0 0 0.0792,-0.079 0.18808423,0.18808423 0 0 0 0.0792,0 l 23.73003,-27.0632 a 0.18808423,0.18808423 0 0 0 0,-0.079 0.18808423,0.18808423 0 0 0 0,-0.079 0.18808423,0.18808423 0 0 0 0,-0.079 0.18808423,0.18808423 0 0 0 0,-0.079 0.18808423,0.18808423 0 0 0 -0.0792,0 0.18808423,0.18808423 0 0 0 -0.0792,0 0.18808423,0.18808423 0 0 0 -0.0792,0 0.18808423,0.18808423 0 0 0 -0.0792,0 z"
         style="font-size:medium;font-style:normal;font-variant:normal;font-weight:normal;font-stretch:normal;text-indent:0;text-align:start;text-decoration:none;line-height:normal;letter-spacing:normal;word-spacing:normal;text-transform:none;direction:ltr;block-progression:tb;writing-mode:lr-tb;text-anchor:start;baseline-shift:baseline;color:#000000;fill:#ffffff;fill-opacity:1;stroke:none;stroke-width:0.14810228;marker:none;visibility:visible;display:inline;overflow:visible;enable-background:accumulate;font-family:Sans;-inkscape-font-specification:Sans" />
      <path
         inkscape:connector-curvature="0"
         id="path3981"
         d="m 607.7663,1608.1091 a 0.18808423,0.18808423 0 0 0 0,0.079 0.18808423,0.18808423 0 0 0 -0.0792,0 l -23.73004,27.0632 a 0.18808423,0.18808423 0 0 0 0,0.079 0.18808423,0.18808423 0 0 0 0,0.079 0.18808423,0.18808423 0 0 0 0,0.079 0.18808423,0.18808423 0 0 0 0.0792,0.079 0.18808423,0.18808423 0 0 0 0.0792,0 0.18808423,0.18808423 0 0 0 0.0792,0 0.18808423,0.18808423 0 0 0 0.0792,-0.079 l 23.73004,-27.0635 a 0.18808423,0.18808423 0 0 0 0,-0.079 0.18808423,0.18808423 0 0 0 0,-0.079 0.18808423,0.18808423 0 0 0 0,-0.079 0.18808423,0.18808423 0 0 0 -0.0792,-0.079 0.18808423,0.18808423 0 0 0 -0.0792,0 0.18808423,0.18808423 0 0 0 -0.0792,0 z"
         style="font-size:medium;font-style:normal;font-variant:normal;font-weight:normal;font-stretch:normal;text-indent:0;text-align:start;text-decoration:none;line-height:normal;letter-spacing:normal;word-spacing:normal;text-transform:none;direction:ltr;block-progression:tb;writing-mode:lr-tb;text-anchor:start;baseline-shift:baseline;color:#000000;fill:#ffffff;fill-opacity:1;stroke:none;stroke-width:0.14810228;marker:none;visibility:visible;display:inline;overflow:visible;enable-background:accumulate;font-family:Sans;-inkscape-font-specification:Sans" />
      <path
         inkscape:connector-curvature="0"
         id="path3997"
         d="m 604.03616,1618.5852 a 0.18808423,0.18808423 0 0 0 0,0.079 l -21.58719,28.8093 a 0.18808423,0.18808423 0 0 0 0,0.079 0.18808423,0.18808423 0 0 0 0,0.079 0.18808423,0.18808423 0 0 0 0,0.079 0.18808423,0.18808423 0 0 0 0.0792,0 0.18808423,0.18808423 0 0 0 0.0792,0.079 0.18808423,0.18808423 0 0 0 0.0792,0 0.18808423,0.18808423 0 0 0 0.0792,-0.079 l 21.58719,-28.8888 a 0.18808423,0.18808423 0 0 0 0,-0.079 0.18808423,0.18808423 0 0 0 0,-0.079 0.18808423,0.18808423 0 0 0 0,-0.079 0.18808423,0.18808423 0 0 0 -0.0792,0 0.18808423,0.18808423 0 0 0 -0.0792,0 0.18808423,0.18808423 0 0 0 -0.0792,0 0.18808423,0.18808423 0 0 0 -0.0792,0 z"
         style="font-size:medium;font-style:normal;font-variant:normal;font-weight:normal;font-stretch:normal;text-indent:0;text-align:start;text-decoration:none;line-height:normal;letter-spacing:normal;word-spacing:normal;text-transform:none;direction:ltr;block-progression:tb;writing-mode:lr-tb;text-anchor:start;baseline-shift:baseline;color:#000000;fill:#ffffff;fill-opacity:1;stroke:none;stroke-width:0.14810228;marker:none;visibility:visible;display:inline;overflow:visible;enable-background:accumulate;font-family:Sans;-inkscape-font-specification:Sans" />
      <path
         inkscape:connector-curvature="0"
         id="path3999"
         d="m 604.35361,1622.3152 a 0.18808423,0.18808423 0 0 0 0,0.079 l -21.58718,28.8093 a 0.18808423,0.18808423 0 0 0 0,0.079 0.18808423,0.18808423 0 0 0 0,0.079 0.18808423,0.18808423 0 0 0 0,0.079 0.18808423,0.18808423 0 0 0 0.0792,0.079 0.18808423,0.18808423 0 0 0 0.0792,0 0.18808423,0.18808423 0 0 0 0.0792,0 0.18808423,0.18808423 0 0 0 0.0792,-0.079 l 21.58719,-28.8095 a 0.18808423,0.18808423 0 0 0 0,-0.079 0.18808423,0.18808423 0 0 0 0,-0.079 0.18808423,0.18808423 0 0 0 0,-0.079 0.18808423,0.18808423 0 0 0 -0.0792,-0.079 0.18808423,0.18808423 0 0 0 -0.0792,0 0.18808423,0.18808423 0 0 0 -0.0792,0 0.18808423,0.18808423 0 0 0 -0.0792,0 z"
         style="font-size:medium;font-style:normal;font-variant:normal;font-weight:normal;font-stretch:normal;text-indent:0;text-align:start;text-decoration:none;line-height:normal;letter-spacing:normal;word-spacing:normal;text-transform:none;direction:ltr;block-progression:tb;writing-mode:lr-tb;text-anchor:start;baseline-shift:baseline;color:#000000;fill:#ffffff;fill-opacity:1;stroke:none;stroke-width:0.14810228;marker:none;visibility:visible;display:inline;overflow:visible;enable-background:accumulate;font-family:Sans;-inkscape-font-specification:Sans" />
      <path
         inkscape:connector-curvature="0"
         id="path4001"
         d="m 604.67107,1626.0455 a 0.18808423,0.18808423 0 0 0 0,0.079 l -21.58719,28.8095 a 0.18808423,0.18808423 0 0 0 0,0.079 0.18808423,0.18808423 0 0 0 -0.0792,0.079 0.18808423,0.18808423 0 0 0 0.0792,0.079 0.18808423,0.18808423 0 0 0 0,0.079 0.18808423,0.18808423 0 0 0 0.0792,0 0.18808423,0.18808423 0 0 0 0.0792,0 0.18808423,0.18808423 0 0 0 0.0792,0 0.18808423,0.18808423 0 0 0 0.0792,-0.079 l 21.50782,-28.8095 a 0.18808423,0.18808423 0 0 0 0.0792,-0.079 0.18808423,0.18808423 0 0 0 0,-0.079 0.18808423,0.18808423 0 0 0 -0.0792,-0.079 0.18808423,0.18808423 0 0 0 0,-0.079 0.18808423,0.18808423 0 0 0 -0.0792,0 0.18808423,0.18808423 0 0 0 -0.0792,0 0.18808423,0.18808423 0 0 0 -0.0792,0 z"
         style="font-size:medium;font-style:normal;font-variant:normal;font-weight:normal;font-stretch:normal;text-indent:0;text-align:start;text-decoration:none;line-height:normal;letter-spacing:normal;word-spacing:normal;text-transform:none;direction:ltr;block-progression:tb;writing-mode:lr-tb;text-anchor:start;baseline-shift:baseline;color:#000000;fill:#ffffff;fill-opacity:1;stroke:none;stroke-width:0.14810228;marker:none;visibility:visible;display:inline;overflow:visible;enable-background:accumulate;font-family:Sans;-inkscape-font-specification:Sans" />
      <path
         inkscape:connector-curvature="0"
         id="path4003"
         d="m 604.98853,1629.7757 a 0.18808423,0.18808423 0 0 0 0,0.079 0.18808423,0.18808423 0 0 0 -0.0792,0 l -21.50795,28.8892 a 0.18808423,0.18808423 0 0 0 -0.0792,0 0.18808423,0.18808423 0 0 0 0,0.079 0.18808423,0.18808423 0 0 0 0,0.079 0.18808423,0.18808423 0 0 0 0.0792,0.079 0.18808423,0.18808423 0 0 0 0.0792,0 0.18808423,0.18808423 0 0 0 0.0792,0 0.18808423,0.18808423 0 0 0 0.0792,0 l 21.58719,-28.8887 a 0.18808423,0.18808423 0 0 0 0,-0.079 0.18808423,0.18808423 0 0 0 0,-0.079 0.18808423,0.18808423 0 0 0 0,-0.079 0.18808423,0.18808423 0 0 0 -0.0792,-0.079 0.18808423,0.18808423 0 0 0 -0.0792,0 0.18808423,0.18808423 0 0 0 -0.0792,0 z"
         style="font-size:medium;font-style:normal;font-variant:normal;font-weight:normal;font-stretch:normal;text-indent:0;text-align:start;text-decoration:none;line-height:normal;letter-spacing:normal;word-spacing:normal;text-transform:none;direction:ltr;block-progression:tb;writing-mode:lr-tb;text-anchor:start;baseline-shift:baseline;color:#000000;fill:#ffffff;fill-opacity:1;stroke:none;stroke-width:0.14810228;marker:none;visibility:visible;display:inline;overflow:visible;enable-background:accumulate;font-family:Sans;-inkscape-font-specification:Sans" />
      <path
         inkscape:connector-curvature="0"
         id="path4005"
         d="m 605.22663,1633.5852 a 0.18808423,0.18808423 0 0 0 0,0.079 l -21.58719,28.8095 a 0.18808423,0.18808423 0 0 0 0,0.079 0.18808423,0.18808423 0 0 0 0,0.079 0.18808423,0.18808423 0 0 0 0,0.079 0.18808423,0.18808423 0 0 0 0.0792,0 0.18808423,0.18808423 0 0 0 0,0.079 0.18808423,0.18808423 0 0 0 0.0792,0 0.18808423,0.18808423 0 0 0 0.0792,0 0.18808423,0.18808423 0 0 0 0,-0.079 0.18808423,0.18808423 0 0 0 0.0792,0 l 21.58719,-28.8888 a 0.18808423,0.18808423 0 0 0 0,-0.079 0.18808423,0.18808423 0 0 0 0,-0.079 0.18808423,0.18808423 0 0 0 0,-0.079 0.18808423,0.18808423 0 0 0 -0.0792,0 0.18808423,0.18808423 0 0 0 -0.0792,0 0.18808423,0.18808423 0 0 0 -0.0792,0 0.18808423,0.18808423 0 0 0 -0.0792,0 z"
         style="font-size:medium;font-style:normal;font-variant:normal;font-weight:normal;font-stretch:normal;text-indent:0;text-align:start;text-decoration:none;line-height:normal;letter-spacing:normal;word-spacing:normal;text-transform:none;direction:ltr;block-progression:tb;writing-mode:lr-tb;text-anchor:start;baseline-shift:baseline;color:#000000;fill:#ffffff;fill-opacity:1;stroke:none;stroke-width:0.14810228;marker:none;visibility:visible;display:inline;overflow:visible;enable-background:accumulate;font-family:Sans;-inkscape-font-specification:Sans" />
      <path
         inkscape:connector-curvature="0"
         id="path4007"
         d="m 604.43298,1620.093 a 0.18808423,0.18808423 0 0 0 0,0.079 l -21.58719,28.8093 a 0.18808423,0.18808423 0 0 0 0,0.079 0.18808423,0.18808423 0 0 0 0,0.079 0.18808423,0.18808423 0 0 0 0,0.079 0.18808423,0.18808423 0 0 0 0.0792,0.079 0.18808423,0.18808423 0 0 0 0.0792,0 0.18808423,0.18808423 0 0 0 0.0792,0 0.18808423,0.18808423 0 0 0 0.0792,-0.079 l 21.50783,-28.8095 a 0.18808423,0.18808423 0 0 0 0.0792,-0.079 0.18808423,0.18808423 0 0 0 0,-0.079 0.18808423,0.18808423 0 0 0 0,-0.079 0.18808423,0.18808423 0 0 0 -0.0792,0 0.18808423,0.18808423 0 0 0 0,-0.079 0.18808423,0.18808423 0 0 0 -0.0792,0 0.18808423,0.18808423 0 0 0 -0.0792,0 0.18808423,0.18808423 0 0 0 -0.0792,0 z"
         style="font-size:medium;font-style:normal;font-variant:normal;font-weight:normal;font-stretch:normal;text-indent:0;text-align:start;text-decoration:none;line-height:normal;letter-spacing:normal;word-spacing:normal;text-transform:none;direction:ltr;block-progression:tb;writing-mode:lr-tb;text-anchor:start;baseline-shift:baseline;color:#000000;fill:#ffffff;fill-opacity:1;stroke:none;stroke-width:0.14810228;marker:none;visibility:visible;display:inline;overflow:visible;enable-background:accumulate;font-family:Sans;-inkscape-font-specification:Sans" />
      <path
         inkscape:connector-curvature="0"
         id="path4009"
         d="m 604.75044,1623.8233 a 0.18808423,0.18808423 0 0 0 0,0.079 0.18808423,0.18808423 0 0 0 -0.0792,0 l -21.50782,28.8095 a 0.18808423,0.18808423 0 0 0 -0.0792,0.079 0.18808423,0.18808423 0 0 0 0,0.079 0.18808423,0.18808423 0 0 0 0,0.079 0.18808423,0.18808423 0 0 0 0.0792,0 0.18808423,0.18808423 0 0 0 0,0.079 0.18808423,0.18808423 0 0 0 0.0792,0 0.18808423,0.18808423 0 0 0 0.0792,0 0.18808423,0.18808423 0 0 0 0.0792,0 0.18808423,0.18808423 0 0 0 0,-0.079 l 21.58719,-28.8095 a 0.18808423,0.18808423 0 0 0 0,-0.079 0.18808423,0.18808423 0 0 0 0.0792,0 0.18808423,0.18808423 0 0 0 0,-0.079 0.18808423,0.18808423 0 0 0 -0.0792,-0.079 0.18808423,0.18808423 0 0 0 -0.0792,-0.079 0.18808423,0.18808423 0 0 0 -0.0792,0 0.18808423,0.18808423 0 0 0 -0.0792,0 z"
         style="font-size:medium;font-style:normal;font-variant:normal;font-weight:normal;font-stretch:normal;text-indent:0;text-align:start;text-decoration:none;line-height:normal;letter-spacing:normal;word-spacing:normal;text-transform:none;direction:ltr;block-progression:tb;writing-mode:lr-tb;text-anchor:start;baseline-shift:baseline;color:#000000;fill:#ffffff;fill-opacity:1;stroke:none;stroke-width:0.14810228;marker:none;visibility:visible;display:inline;overflow:visible;enable-background:accumulate;font-family:Sans;-inkscape-font-specification:Sans" />
      <path
         inkscape:connector-curvature="0"
         id="path4011"
         d="m 605.0679,1627.5535 a 0.18808423,0.18808423 0 0 0 0,0.079 0.18808423,0.18808423 0 0 0 -0.0792,0 l -21.58719,28.8887 a 0.18808423,0.18808423 0 0 0 0,0.079 0.18808423,0.18808423 0 0 0 0,0.079 0.18808423,0.18808423 0 0 0 0.0792,0.079 0.18808423,0.18808423 0 0 0 0.0792,0 0.18808423,0.18808423 0 0 0 0.0792,0 0.18808423,0.18808423 0 0 0 0.0792,0 0.18808423,0.18808423 0 0 0 0,-0.079 l 21.58719,-28.8093 a 0.18808423,0.18808423 0 0 0 0,-0.079 0.18808423,0.18808423 0 0 0 0,-0.079 0.18808423,0.18808423 0 0 0 0,-0.079 0.18808423,0.18808423 0 0 0 -0.0792,0 0.18808423,0.18808423 0 0 0 0,-0.079 0.18808423,0.18808423 0 0 0 -0.0792,0 0.18808423,0.18808423 0 0 0 -0.0792,0 z"
         style="font-size:medium;font-style:normal;font-variant:normal;font-weight:normal;font-stretch:normal;text-indent:0;text-align:start;text-decoration:none;line-height:normal;letter-spacing:normal;word-spacing:normal;text-transform:none;direction:ltr;block-progression:tb;writing-mode:lr-tb;text-anchor:start;baseline-shift:baseline;color:#000000;fill:#ffffff;fill-opacity:1;stroke:none;stroke-width:0.14810228;marker:none;visibility:visible;display:inline;overflow:visible;enable-background:accumulate;font-family:Sans;-inkscape-font-specification:Sans" />
      <path
         inkscape:connector-curvature="0"
         id="path4013"
         d="m 605.38536,1631.2835 a 0.18808423,0.18808423 0 0 0 0,0.079 0.18808423,0.18808423 0 0 0 -0.0792,0 l -21.58719,28.8887 a 0.18808423,0.18808423 0 0 0 0,0.079 0.18808423,0.18808423 0 0 0 0,0.079 0.18808423,0.18808423 0 0 0 0,0.079 0.18808423,0.18808423 0 0 0 0.0792,0 0.18808423,0.18808423 0 0 0 0,0.079 0.18808423,0.18808423 0 0 0 0.0792,0 0.18808423,0.18808423 0 0 0 0.0792,0 0.18808423,0.18808423 0 0 0 0,-0.079 0.18808423,0.18808423 0 0 0 0.0792,0 l 21.58719,-28.8887 a 0.18808423,0.18808423 0 0 0 0,-0.079 0.18808423,0.18808423 0 0 0 0,-0.079 0.18808423,0.18808423 0 0 0 -0.0792,-0.079 0.18808423,0.18808423 0 0 0 -0.0792,0 0.18808423,0.18808423 0 0 0 -0.0792,-0.079 z"
         style="font-size:medium;font-style:normal;font-variant:normal;font-weight:normal;font-stretch:normal;text-indent:0;text-align:start;text-decoration:none;line-height:normal;letter-spacing:normal;word-spacing:normal;text-transform:none;direction:ltr;block-progression:tb;writing-mode:lr-tb;text-anchor:start;baseline-shift:baseline;color:#000000;fill:#ffffff;fill-opacity:1;stroke:none;stroke-width:0.14810228;marker:none;visibility:visible;display:inline;overflow:visible;enable-background:accumulate;font-family:Sans;-inkscape-font-specification:Sans" />
      <path
         inkscape:connector-curvature="0"
         id="path4015"
         d="m 605.62345,1635.093 a 0.18808423,0.18808423 0 0 0 -0.0792,0.079 l -21.50782,28.8092 a 0.18808423,0.18808423 0 0 0 -0.0792,0.079 0.18808423,0.18808423 0 0 0 0,0.079 0.18808423,0.18808423 0 0 0 0.0792,0.079 0.18808423,0.18808423 0 0 0 0,0.079 0.18808423,0.18808423 0 0 0 0.0792,0 0.18808423,0.18808423 0 0 0 0.0792,0 0.18808423,0.18808423 0 0 0 0.0792,0 0.18808423,0.18808423 0 0 0 0,-0.079 0.18808423,0.18808423 0 0 0 0.0792,0 l 21.50782,-28.8092 a 0.18808423,0.18808423 0 0 0 0,-0.079 0.18808423,0.18808423 0 0 0 0.0792,0 0.18808423,0.18808423 0 0 0 0,-0.079 0.18808423,0.18808423 0 0 0 -0.0792,-0.079 0.18808423,0.18808423 0 0 0 0,-0.079 0.18808423,0.18808423 0 0 0 -0.0792,0 0.18808423,0.18808423 0 0 0 -0.0792,0 0.18808423,0.18808423 0 0 0 -0.0792,0 z"
         style="font-size:medium;font-style:normal;font-variant:normal;font-weight:normal;font-stretch:normal;text-indent:0;text-align:start;text-decoration:none;line-height:normal;letter-spacing:normal;word-spacing:normal;text-transform:none;direction:ltr;block-progression:tb;writing-mode:lr-tb;text-anchor:start;baseline-shift:baseline;color:#000000;fill:#ffffff;fill-opacity:1;stroke:none;stroke-width:0.14810228;marker:none;visibility:visible;display:inline;overflow:visible;enable-background:accumulate;font-family:Sans;-inkscape-font-specification:Sans" />
    </g>
  </g>
</svg>
