<?xml version="1.0" encoding="UTF-8" standalone="no"?>
<!-- Created with Inkscape (http://www.inkscape.org/) -->

<svg
   xmlns:dc="http://purl.org/dc/elements/1.1/"
   xmlns:cc="http://creativecommons.org/ns#"
   xmlns:rdf="http://www.w3.org/1999/02/22-rdf-syntax-ns#"
   xmlns:svg="http://www.w3.org/2000/svg"
   xmlns="http://www.w3.org/2000/svg"
   xmlns:sodipodi="http://sodipodi.sourceforge.net/DTD/sodipodi-0.dtd"
   xmlns:inkscape="http://www.inkscape.org/namespaces/inkscape"
   width="163.24547"
   height="45.930836"
   id="svg3402"
   version="1.1"
   inkscape:version="0.48.3.1 r9886"
   sodipodi:docname="logo_SmartCampus_transparent.svg">
  <defs
     id="defs3404" />
  <sodipodi:namedview
     id="base"
     pagecolor="#ffffff"
     bordercolor="#666666"
     borderopacity="1.0"
     inkscape:pageopacity="0.0"
     inkscape:pageshadow="2"
     inkscape:zoom="1.979899"
     inkscape:cx="17.867629"
     inkscape:cy="22.965414"
     inkscape:document-units="px"
     inkscape:current-layer="layer1"
     showgrid="false"
     inkscape:window-width="1366"
     inkscape:window-height="688"
     inkscape:window-x="0"
     inkscape:window-y="27"
     inkscape:window-maximized="1"
     fit-margin-top="0"
     fit-margin-left="0"
     fit-margin-right="0"
     fit-margin-bottom="0" />
  <metadata
     id="metadata3407">
    <rdf:RDF>
      <cc:Work
         rdf:about="">
        <dc:format>image/svg+xml</dc:format>
        <dc:type
           rdf:resource="http://purl.org/dc/dcmitype/StillImage" />
        <dc:title />
      </cc:Work>
    </rdf:RDF>
  </metadata>
  <g
     inkscape:label="Calque 1"
     inkscape:groupmode="layer"
     id="layer1"
     transform="translate(-293.37726,-509.39676)">
    <path
       style="fill:#000000;fill-opacity:0.35114503;stroke:none"
       d="M 22.28125 6.84375 C 21.51755 6.84375 21.08438 6.87255 20.71875 6.90625 L 20.71875 7.09375 L 19.78125 7.09375 L 19.78125 8.4375 L 20.71875 8.4375 L 20.71875 8.875 L 19.78125 8.875 L 19.78125 10.21875 L 20.71875 10.21875 L 20.71875 10.65625 L 19.78125 10.65625 L 19.78125 12 L 20.71875 12 L 20.71875 12.4375 L 19.78125 12.4375 L 19.78125 13.78125 L 20.71875 13.78125 L 20.71875 14.21875 L 19.78125 14.21875 L 19.78125 15.5625 L 20.71875 15.5625 L 20.71875 16 L 19.78125 16 L 19.78125 17.34375 L 20.71875 17.34375 L 20.71875 17.78125 L 19.78125 17.78125 L 19.78125 19.125 L 20.71875 19.125 L 20.71875 19.5625 L 19.78125 19.5625 L 19.78125 20.21875 L 19.34375 20.21875 L 19.34375 19.5625 L 18 19.5625 L 18 20.21875 L 17.5625 20.21875 L 17.5625 19.5625 L 16.21875 19.5625 L 16.21875 20.21875 L 15.78125 20.21875 L 15.78125 19.5625 L 14.4375 19.5625 L 14.4375 20.21875 L 14 20.21875 L 14 19.5625 L 12.65625 19.5625 L 12.65625 20.21875 L 12.21875 20.21875 L 12.21875 19.5625 L 10.875 19.5625 L 10.875 20.21875 L 10.09375 20.21875 C 10.11315 20.74026 10.1594 21.0809 10.25 21.53125 C 10.57073 23.12589 10.96882 24.09576 12.25 26.375 C 12.67922 27.1386 13.19388 28.08123 13.375 28.46875 C 14.03888 29.88944 14.53849 31.5873 14.75 33.21875 C 14.89044 34.30211 15.05953 34.64132 15.5625 34.84375 C 15.68454 34.89285 18.10922 34.91585 22.375 34.90625 C 28.98014 34.89135 29.0036 34.91039 29.21875 34.75 C 29.57871 34.48167 29.69295 34.16284 29.8125 33.25 C 29.9628 32.10212 30.17664 31.18856 30.53125 30.125 C 30.91082 28.98658 31.31568 28.09277 32.28125 26.375 C 33.92482 23.45111 34.36174 22.11629 34.46875 19.71875 C 34.63033 16.0991 33.40604 12.90732 30.90625 10.40625 C 29.16757 8.66665 27.14139 7.57281 24.625 7.03125 C 23.95884 6.88789 23.61048 6.84375 22.28125 6.84375 z M 19.59375 36.15625 C 17.14892 36.15725 15.92384 36.2087 15.78125 36.25 C 15.43453 36.35057 15.03578 36.76772 14.96875 37.125 C 14.86036 37.70271 15.1503 38.27814 15.65625 38.5 C 15.84587 38.5831 17.11007 38.60737 22.375 38.59375 C 28.78061 38.57705 28.85365 38.56224 29.0625 38.40625 C 29.46368 38.10672 29.59375 37.85846 29.59375 37.375 C 29.59375 36.89152 29.46366 36.6433 29.0625 36.34375 C 28.85387 36.18796 28.76117 36.21008 22.4375 36.1875 C 21.35015 36.1835 20.40872 36.15625 19.59375 36.15625 z M 16.8125 39.84375 C 16.179723 39.854675 15.852545 39.88555 15.78125 39.90625 C 15.43453 40.00683 15.03578 40.42394 14.96875 40.78125 C 14.86036 41.35896 15.1503 41.93439 15.65625 42.15625 C 15.84587 42.23925 17.11007 42.2636 22.375 42.25 C 28.78061 42.2334 28.85365 42.2497 29.0625 42.09375 C 29.46368 41.79422 29.59375 41.54595 29.59375 41.0625 C 29.59375 40.579 29.46366 40.3308 29.0625 40.03125 C 28.85387 39.87546 28.76117 39.86633 22.4375 39.84375 C 21.35015 39.83975 20.40872 39.84375 19.59375 39.84375 C 18.371335 39.84425 17.445277 39.832825 16.8125 39.84375 z M 17.375 43.5 L 17.375 43.6875 C 17.375 44.00666 17.6144 44.62089 17.84375 44.9375 C 18.14107 45.34794 18.51627 45.64324 19 45.8125 C 19.35888 45.93804 19.69774 45.95416 22.40625 45.9375 C 25.26987 45.9199 25.37934 45.9069 25.71875 45.75 C 26.46951 45.40287 27.01673 44.67057 27.125 43.875 L 27.1875 43.5 L 22.28125 43.5 L 17.375 43.5 z "
       transform="translate(293.37726,509.39676)"
       id="path4557" />
    <path
       inkscape:connector-curvature="0"
       style="fill:#000000;fill-opacity:0.35114503;stroke:none"
       d="m 311.37085,527.17473 1.34125,0 0,1.34126 -1.34125,0 z"
       id="path4559" />
    <path
       inkscape:connector-curvature="0"
       style="fill:#000000;fill-opacity:0.35114503;stroke:none"
       d="m 311.37085,525.39445 1.34125,0 0,1.34126 -1.34125,0 z"
       id="path4561" />
    <path
       inkscape:connector-curvature="0"
       style="fill:#000000;fill-opacity:0.35114503;stroke:none"
       d="m 311.37085,523.61416 1.34125,0 0,1.34126 -1.34125,0 z"
       id="path4563" />
    <path
       inkscape:connector-curvature="0"
       style="fill:#000000;fill-opacity:0.35114503;stroke:none"
       d="m 311.37085,521.83387 1.34125,0 0,1.34126 -1.34125,0 z"
       id="path4565" />
    <path
       inkscape:connector-curvature="0"
       style="fill:#000000;fill-opacity:0.35114503;stroke:none"
       d="m 311.37085,520.05359 1.34125,0 0,1.34125 -1.34125,0 z"
       id="path4567" />
    <path
       inkscape:connector-curvature="0"
       style="fill:#000000;fill-opacity:0.35114503;stroke:none"
       d="m 311.37085,518.2733 1.34125,0 0,1.34126 -1.34125,0 z"
       id="path4569" />
    <path
       inkscape:connector-curvature="0"
       style="fill:#000000;fill-opacity:0.35114503;stroke:none"
       d="m 311.37085,516.49302 1.34125,0 0,1.34126 -1.34125,0 z"
       id="path4571" />
    <path
       inkscape:connector-curvature="0"
       style="fill:#000000;fill-opacity:0.35114503;stroke:none"
       d="m 309.59056,527.17473 1.34126,0 0,1.34126 -1.34126,0 z"
       id="path4573" />
    <path
       inkscape:connector-curvature="0"
       style="fill:#000000;fill-opacity:0.35114503;stroke:none"
       d="m 309.59056,525.39445 1.34126,0 0,1.34126 -1.34126,0 z"
       id="path4575" />
    <path
       inkscape:connector-curvature="0"
       style="fill:#000000;fill-opacity:0.35114503;stroke:none"
       d="m 309.59056,523.61416 1.34126,0 0,1.34126 -1.34126,0 z"
       id="path4577" />
    <path
       inkscape:connector-curvature="0"
       style="fill:#000000;fill-opacity:0.35114503;stroke:none"
       d="m 309.59056,521.83387 1.34126,0 0,1.34126 -1.34126,0 z"
       id="path4579" />
    <path
       inkscape:connector-curvature="0"
       style="fill:#000000;fill-opacity:0.35114503;stroke:none"
       d="m 309.59056,520.05359 1.34126,0 0,1.34125 -1.34126,0 z"
       id="path4581" />
    <path
       inkscape:connector-curvature="0"
       style="fill:#000000;fill-opacity:0.35114503;stroke:none"
       d="m 309.59056,518.2733 1.34126,0 0,1.34126 -1.34126,0 z"
       id="path4583" />
    <path
       inkscape:connector-curvature="0"
       style="fill:#000000;fill-opacity:0.35114503;stroke:none"
       d="m 309.11624,516.39215 1.32301,0.2205 -0.2205,1.32301 -1.32301,-0.2205 z"
       id="path4585" />
    <path
       inkscape:connector-curvature="0"
       style="fill:#000000;fill-opacity:0.35114503;stroke:none"
       d="m 307.81028,527.17473 1.34125,0 0,1.34126 -1.34125,0 z"
       id="path4587" />
    <path
       inkscape:connector-curvature="0"
       style="fill:#000000;fill-opacity:0.35114503;stroke:none"
       d="m 307.81028,525.39445 1.34125,0 0,1.34126 -1.34125,0 z"
       id="path4589" />
    <path
       inkscape:connector-curvature="0"
       style="fill:#000000;fill-opacity:0.35114503;stroke:none"
       d="m 306.8817,523.56255 1.34127,0 0,1.34126 -1.34127,0 z"
       id="path4591" />
    <path
       inkscape:connector-curvature="0"
       style="fill:#000000;fill-opacity:0.35114503;stroke:none"
       d="m 307.51357,521.83387 1.34125,0 0,1.34126 -1.34125,0 z"
       id="path4593" />
    <path
       inkscape:connector-curvature="0"
       style="fill:#000000;fill-opacity:0.35114503;stroke:none"
       d="m 307.3124,520.3502 1.24534,-0.49813 0.49813,1.24532 -1.24534,0.49814 z"
       id="path4595" />
    <path
       inkscape:connector-curvature="0"
       style="fill:#000000;fill-opacity:0.35114503;stroke:none"
       d="m 306.62342,518.2733 1.34126,0 0,1.34126 -1.34126,0 z"
       id="path4597" />
    <path
       inkscape:connector-curvature="0"
       style="fill:#000000;fill-opacity:0.35114503;stroke:none"
       d="m 306.03,527.17473 1.34125,0 0,1.34126 -1.34125,0 z"
       id="path4599" />
    <path
       inkscape:connector-curvature="0"
       style="fill:#000000;fill-opacity:0.35114503;stroke:none"
       d="m 305.5785,525.20093 1.34127,0 0,1.34125 -1.34127,0 z"
       id="path4601" />
    <path
       inkscape:connector-curvature="0"
       style="fill:#000000;fill-opacity:0.35114503;stroke:none"
       d="m 305.89359,516.66442 1.3056,-0.3072 0.3072,1.3056 -1.3056,0.3072 z"
       id="path4603" />
    <path
       inkscape:connector-curvature="0"
       style="fill:#000000;fill-opacity:0.35114503;stroke:none"
       d="m 304.24971,527.17473 1.34125,0 0,1.34126 -1.34125,0 z"
       id="path4605" />
    <path
       inkscape:connector-curvature="0"
       style="fill:#000000;fill-opacity:0.35114503;stroke:none"
       d="m 304.47127,523.44996 1.28469,0.38541 -0.3854,1.28469 -1.2847,-0.38541 z"
       id="path4607" />
    <path
       inkscape:connector-curvature="0"
       style="fill:#000000;fill-opacity:0.35114503;stroke:none"
       d="m 304.96724,521.99437 1.26403,-0.44853 0.44853,1.26404 -1.26403,0.44852 z"
       id="path4609" />
    <path
       inkscape:connector-curvature="0"
       style="fill:#000000;fill-opacity:0.35114503;stroke:none"
       d="m 304.40606,519.92704 1.31065,0.28492 -0.28493,1.31065 -1.31064,-0.28492 z"
       id="path4611" />
    <path
       inkscape:connector-curvature="0"
       style="fill:#000000;fill-opacity:0.35114503;stroke:none"
       d="m 304.24971,518.2733 1.34125,0 0,1.34126 -1.34125,0 z"
       id="path4613" />
    <path
       inkscape:connector-curvature="0"
       style="fill:#000000;fill-opacity:0.35114503;stroke:none"
       d="m 304.12546,516.64713 1.31206,-0.27831 0.27831,1.31206 -1.31205,0.27831 z"
       id="path4615" />
    <path
       inkscape:connector-curvature="0"
       style="fill:#000000;fill-opacity:0.35114503;stroke:none"
       d="m 302.32104,525.58726 1.29709,-0.34134 0.34135,1.2971 -1.29709,0.34134 z"
       id="path4617" />
    <path
       inkscape:connector-curvature="0"
       style="fill:#000000;fill-opacity:0.35114503;stroke:none"
       d="m 302.39497,523.41872 1.25186,0.48148 -0.48148,1.25186 -1.25186,-0.48149 z"
       id="path4619" />
    <path
       inkscape:connector-curvature="0"
       style="fill:#000000;fill-opacity:0.35114503;stroke:none"
       d="m 302.83953,521.60446 1.19966,0.59983 -0.59983,1.19966 -1.19965,-0.59983 z"
       id="path4621" />
    <path
       inkscape:connector-curvature="0"
       style="fill:#000000;fill-opacity:0.35114503;stroke:none"
       d="m 301.70488,517.91318 1.279,-0.40389 0.40389,1.279 -1.27899,0.40389 z"
       id="path4623" />
    <path
       inkscape:connector-curvature="0"
       style="fill:#000000;fill-opacity:0.35114503;stroke:none"
       d="m 300.12828,514.49805 1.22565,0.54474 -0.54473,1.22565 -1.22566,-0.54473 z"
       id="path4625" />
    <path
       inkscape:connector-curvature="0"
       style="fill:#000000;fill-opacity:0.35114503;stroke:none"
       d="m 299.74752,523.80296 1.21693,-0.56394 0.56395,1.21693 -1.21693,0.56395 z"
       id="path4627" />
    <path
       inkscape:connector-curvature="0"
       style="fill:#000000;fill-opacity:0.35114503;stroke:none"
       d="m 299.81742,521.91032 0.94842,-0.94842 0.94841,0.94841 -0.94842,0.94842 z"
       id="path4629" />
    <path
       inkscape:connector-curvature="0"
       style="fill:#000000;fill-opacity:0.35114503;stroke:none"
       d="m 299.31289,519.13731 1.2596,-0.46083 0.46083,1.2596 -1.2596,0.46083 z"
       id="path4631" />
    <path
       inkscape:connector-curvature="0"
       style="fill:#000000;fill-opacity:0.35114503;stroke:none"
       d="m 298.70956,516.25617 1.18346,0.63118 -0.63118,1.18346 -1.18346,-0.63118 z"
       id="path4633" />
    <path
       inkscape:connector-curvature="0"
       style="fill:#000000;fill-opacity:0.35114503;stroke:none"
       d="m 298.09603,521.58401 1.21694,-0.56394 0.56394,1.21693 -1.21693,0.56395 z"
       id="path4635" />
    <path
       inkscape:connector-curvature="0"
       style="fill:#000000;fill-opacity:0.35114503;stroke:none"
       d="m 296.1408,515.63802 1.10695,0.75739 -0.75738,1.10694 -1.10695,-0.75738 z"
       id="path4637" />
    <path
       inkscape:connector-curvature="0"
       style="fill:#000000;fill-opacity:0.35114503;stroke:none"
       d="m 308.05594,514.53438 1.27242,0.42415 -0.42414,1.27242 -1.27242,-0.42414 z"
       id="path4639" />
    <path
       inkscape:connector-curvature="0"
       style="fill:#000000;fill-opacity:0.35114503;stroke:none"
       d="m 306.56652,514.44452 1.07301,0.80475 -0.80475,1.073 -1.07301,-0.80475 z"
       id="path4641" />
    <path
       inkscape:connector-curvature="0"
       style="fill:#000000;fill-opacity:0.35114503;stroke:none"
       d="m 301.37608,513.44269 1.32949,0.17726 -0.17727,1.32949 -1.32948,-0.17726 z"
       id="path4643" />
    <path
       inkscape:connector-curvature="0"
       style="fill:#000000;fill-opacity:0.35114503;stroke:none"
       d="m 297.21293,512.07072 1.22881,-0.53761 0.5376,1.22881 -1.22881,0.5376 z"
       id="path4645" />
    <path
       inkscape:connector-curvature="0"
       style="fill:#000000;fill-opacity:0.35114503;stroke:none"
       d="m 304.0816,513.16136 1.28098,-0.39754 0.39755,1.28098 -1.28098,0.39755 z"
       id="path4647" />
    <path
       inkscape:connector-curvature="0"
       style="fill:#000000;fill-opacity:0.35114503;stroke:none"
       d="m 296.26291,510.24609 1.03807,-0.84933 0.84933,1.03807 -1.03807,0.84933 z"
       id="path4649" />
    <path
       inkscape:connector-curvature="0"
       style="fill:#000000;fill-opacity:0.35114503;stroke:none"
       d="m 293.37726,511.12798 1.25856,-0.46368 0.46368,1.25856 -1.25856,0.46368 z"
       id="path4651" />
    <g
       transform="matrix(0.14835711,0,0,0.26270737,355.1882,422.52541)"
       style="font-size:40px;font-style:normal;font-variant:normal;font-weight:normal;font-stretch:normal;text-align:start;line-height:125%;letter-spacing:0px;word-spacing:0px;writing-mode:lr-tb;text-anchor:start;fill:#000000;fill-opacity:0.35114503;stroke:none;font-family:Downlink;-inkscape-font-specification:Downlink"
       id="g4679">
      <path
         inkscape:connector-curvature="0"
         d="m -97.726562,424.81597 c 6.73822,4e-5 12.483657,1.90434 17.236328,5.71289 4.78508,3.80863 7.177656,8.41474 7.177734,13.81836 -7.8e-5,5.40366 -2.392654,10.00978 -7.177734,13.81836 -4.752671,3.8086 -10.498108,5.71289 -17.236328,5.71289 l -50.048828,0 c -2.44141,0 -3.66211,-1.2207 -3.66211,-3.66211 l 0,-2.4414 c 0,-2.4414 1.2207,-3.6621 3.66211,-3.66211 l 50.048828,0 c 3.385359,1e-5 6.266216,-0.944 8.642578,-2.83203 2.376237,-1.92056 3.564387,-4.23176 3.564453,-6.9336 -6.6e-5,-2.7018 -1.188216,-4.99672 -3.564453,-6.88476 -2.376362,-1.92055 -5.257219,-2.88083 -8.642578,-2.88086 l -29.296878,0 c -6.7383,3e-5 -12.50001,-1.90427 -17.28515,-5.71289 -4.75261,-3.80856 -7.12891,-8.41467 -7.12891,-13.81836 0,-5.40359 2.3763,-10.00971 7.12891,-13.81836 4.78514,-3.80853 10.54685,-5.71282 17.28515,-5.71289 l 50.048831,0 c 2.441329,7e-5 3.662031,1.22077 3.662109,3.66211 l 0,2.4414 c -7.8e-5,2.44147 -1.22078,3.66217 -3.662109,3.66211 l -50.048831,0 c -3.38544,6e-5 -6.26629,0.96035 -8.64258,2.88086 -2.37631,1.88808 -3.56446,4.183 -3.56445,6.88477 -1e-5,2.70187 1.18814,5.01306 3.56445,6.93359 2.37629,1.88806 5.25714,2.83207 8.64258,2.83203 l 29.296878,0"
         style="font-size:100px;fill:#000000;fill-opacity:0.35114503"
         id="path4681" />
      <path
         inkscape:connector-curvature="0"
         d="m -26.925781,429.69878 c -3.7e-5,-2.70178 -1.188187,-4.9967 -3.564453,-6.88476 -2.376333,-1.92053 -5.25719,-2.88082 -8.642578,-2.88086 -3.385438,4e-5 -6.266295,0.96033 -8.642579,2.88086 -2.376315,1.88806 -3.564465,4.18298 -3.564453,6.88476 l 0,30.51758 c -1.2e-5,2.44141 -1.220714,3.66211 -3.662109,3.66211 l -4.882813,0 c -2.441407,0 -3.662109,-1.2207 -3.662109,-3.66211 l 0,-30.51758 c 0,-5.4036 2.3763,-10.00972 7.128906,-13.81835 4.785145,-3.80855 10.546858,-5.71284 17.285157,-5.7129 6.73825,6e-5 12.499963,1.90435 17.285156,5.7129 0.358031,0.29301 0.699827,0.58598 1.02539,0.8789 0.325478,-0.29292 0.683551,-0.58589 1.074219,-0.8789 4.752556,-3.80855 10.4979927,-5.71284 17.2363282,-5.7129 6.7382135,6e-5 12.4836505,1.90435 17.2363278,5.7129 4.785074,3.80863 7.177649,8.41475 7.177735,13.81835 l 0,30.51758 c -8.6e-5,2.44141 -1.220788,3.66211 -3.66211,3.66211 l -4.882812,0 c -2.441481,0 -3.6621827,-1.2207 -3.6621095,-3.66211 l 0,-30.51758 c -7.32e-5,-2.70178 -1.1882231,-4.9967 -3.5644531,-6.88476 -2.3763694,-1.92053 -5.2572259,-2.88082 -8.6425782,-2.88086 -3.3854743,4e-5 -6.2663308,0.96033 -8.6425782,2.88086 -2.376352,1.88806 -3.564502,4.18298 -3.564453,6.88476 l 0,30.51758 c -4.9e-5,2.44141 -1.220751,3.66211 -3.662109,3.66211 l -4.882813,0 c -2.441444,0 -3.662146,-1.2207 -3.662109,-3.66211 l 0,-30.51758"
         style="font-size:100px;fill:#000000;fill-opacity:0.35114503"
         id="path4683" />
      <path
         inkscape:connector-curvature="0"
         d="m 51.296875,463.87847 c -5.40366,0 -10.009775,-1.54622 -13.818359,-4.63867 -3.808596,-3.09244 -5.712891,-6.83593 -5.712891,-11.23047 0,-4.39451 1.904295,-8.138 5.712891,-11.23047 3.808584,-3.09241 8.414699,-4.63864 13.818359,-4.63867 l 36.621094,0 0,-2.44141 c -5.6e-5,-2.70178 -1.188206,-4.9967 -3.564453,-6.88476 -2.376353,-1.92053 -5.257209,-2.88082 -8.642579,-2.88086 l -40.283203,0 c -2.441407,4e-5 -3.662109,-1.22066 -3.662109,-3.66211 l 0,-2.44141 c 0,-2.44135 1.220702,-3.66205 3.662109,-3.66211 l 40.283203,0 c 6.738231,6e-5 12.483668,1.90435 17.236329,5.7129 4.78509,3.80863 7.177664,8.41475 7.177734,13.81835 l 0,14.64844 c -7e-5,5.40366 -2.392644,10.00978 -7.177734,13.81836 -4.752661,3.8086 -10.498098,5.71289 -17.236329,5.71289 l -24.414062,0 m 24.414062,-9.76562 c 3.38537,1e-5 6.266226,-0.944 8.642579,-2.83203 2.376247,-1.92056 3.564397,-4.23176 3.564453,-6.9336 l 0,-2.4414 -36.621094,0 c -2.018247,2e-5 -3.743505,0.60223 -5.175781,1.80664 -1.432305,1.17189 -2.14845,2.60418 -2.148438,4.29687 -1.2e-5,1.69272 0.716133,3.14129 2.148438,4.3457 1.432276,1.17189 3.157534,1.75783 5.175781,1.75782 l 24.414062,0"
         style="font-size:100px;fill:#000000;fill-opacity:0.35114503"
         id="path4685" />
      <path
         inkscape:connector-curvature="0"
         d="m 109.89063,429.69878 c 0,-5.4036 2.37629,-10.00972 7.1289,-13.81835 4.78515,-3.80855 10.54686,-5.71284 17.28516,-5.7129 l 10.98633,0 c 2.44136,6e-5 3.66207,1.22076 3.6621,3.66211 l 0,2.44141 c -3e-5,2.44145 -1.22074,3.66215 -3.6621,3.66211 l -10.98633,0 c -3.38544,4e-5 -6.2663,0.96033 -8.64258,2.88086 -2.37632,1.88806 -3.56447,4.18298 -3.56445,6.88476 l 0,30.51758 c -2e-5,2.44141 -1.22072,3.66211 -3.66211,3.66211 l -4.88282,0 c -2.4414,0 -3.6621,-1.2207 -3.6621,-3.66211 l 0,-30.51758"
         style="font-size:100px;fill:#000000;fill-opacity:0.35114503"
         id="path4687" />
      <path
         inkscape:connector-curvature="0"
         d="m 170.92578,419.93316 0,24.41406 c -1e-5,2.70184 1.18814,5.01304 3.56445,6.9336 2.37629,1.88803 5.25714,2.83204 8.64258,2.83203 l 1.22071,0 c 2.44137,1e-5 3.66208,1.22071 3.6621,3.66211 l 0,2.4414 c -2e-5,2.44141 -1.22073,3.66211 -3.6621,3.66211 l -1.22071,0 c -6.7383,0 -12.50001,-1.90429 -17.28515,-5.71289 -4.75261,-3.80858 -7.12891,-8.4147 -7.12891,-13.81836 l 0,-45.16601 c 0,-2.44134 1.2207,-3.66204 3.66211,-3.66211 l 4.88281,0 c 2.4414,7e-5 3.6621,1.22077 3.66211,3.66211 l 0,10.98632 13.42774,0 c 2.44137,6e-5 3.66208,1.22076 3.6621,3.66211 l 0,2.44141 c -2e-5,2.44145 -1.22073,3.66215 -3.6621,3.66211 l -13.42774,0"
         style="font-size:100px;fill:#000000;fill-opacity:0.35114503"
         id="path4689" />
      <path
         inkscape:connector-curvature="0"
         d="m 272.24414,395.5191 c 2.44133,7e-5 3.66203,1.22077 3.66211,3.66211 l 0,2.4414 c -8e-5,2.44147 -1.22078,3.66217 -3.66211,3.66211 l -50.04883,0 c -3.38544,6e-5 -6.26629,0.96035 -8.64258,2.88086 -2.37631,1.88808 -3.56446,4.183 -3.56445,6.88477 l 0,29.29687 c -1e-5,2.70184 1.18814,5.01304 3.56445,6.9336 2.37629,1.88803 5.25714,2.83204 8.64258,2.83203 l 50.04883,0 c 2.44133,1e-5 3.66203,1.22071 3.66211,3.66211 l 0,2.4414 c -8e-5,2.44141 -1.22078,3.66211 -3.66211,3.66211 l -50.04883,0 c -6.7383,0 -12.50001,-1.90429 -17.28515,-5.71289 -4.75261,-3.80858 -7.12891,-8.4147 -7.12891,-13.81836 l 0,-29.29687 c 0,-5.40359 2.3763,-10.00971 7.12891,-13.81836 4.78514,-3.80853 10.54685,-5.71282 17.28515,-5.71289 l 50.04883,0"
         style="font-size:100px;fill:#000000;fill-opacity:0.35114503"
         id="path4691" />
      <path
         inkscape:connector-curvature="0"
         d="m 305.20312,463.87847 c -5.40365,0 -10.00977,-1.54622 -13.81835,-4.63867 -3.8086,-3.09244 -5.7129,-6.83593 -5.7129,-11.23047 0,-4.39451 1.9043,-8.138 5.7129,-11.23047 3.80858,-3.09241 8.4147,-4.63864 13.81835,-4.63867 l 36.6211,0 0,-2.44141 c -6e-5,-2.70178 -1.18821,-4.9967 -3.56445,-6.88476 -2.37636,-1.92053 -5.25721,-2.88082 -8.64258,-2.88086 l -40.28321,0 c -2.4414,4e-5 -3.66211,-1.22066 -3.66211,-3.66211 l 0,-2.44141 c 0,-2.44135 1.22071,-3.66205 3.66211,-3.66211 l 40.28321,0 c 6.73823,6e-5 12.48367,1.90435 17.23633,5.7129 4.78509,3.80863 7.17766,8.41475 7.17773,13.81835 l 0,14.64844 c -7e-5,5.40366 -2.39264,10.00978 -7.17773,13.81836 -4.75266,3.8086 -10.4981,5.71289 -17.23633,5.71289 l -24.41407,0 m 24.41407,-9.76562 c 3.38537,1e-5 6.26622,-0.944 8.64258,-2.83203 2.37624,-1.92056 3.56439,-4.23176 3.56445,-6.9336 l 0,-2.4414 -36.6211,0 c -2.01824,2e-5 -3.7435,0.60223 -5.17578,1.80664 -1.4323,1.17189 -2.14845,2.60418 -2.14843,4.29687 -2e-5,1.69272 0.71613,3.14129 2.14843,4.3457 1.43228,1.17189 3.15754,1.75783 5.17578,1.75782 l 24.41407,0"
         style="font-size:100px;fill:#000000;fill-opacity:0.35114503"
         id="path4693" />
      <path
         inkscape:connector-curvature="0"
         d="m 400.41797,429.69878 c -4e-5,-2.70178 -1.18819,-4.9967 -3.56445,-6.88476 -2.37634,-1.92053 -5.25719,-2.88082 -8.64258,-2.88086 -3.38544,4e-5 -6.2663,0.96033 -8.64258,2.88086 -2.37632,1.88806 -3.56447,4.18298 -3.56445,6.88476 l 0,30.51758 c -2e-5,2.44141 -1.22072,3.66211 -3.66211,3.66211 l -4.88282,0 c -2.4414,0 -3.66211,-1.2207 -3.66211,-3.66211 l 0,-30.51758 c 0,-5.4036 2.3763,-10.00972 7.12891,-13.81835 4.78515,-3.80855 10.54686,-5.71284 17.28516,-5.7129 6.73825,6e-5 12.49996,1.90435 17.28515,5.7129 0.35803,0.29301 0.69983,0.58598 1.02539,0.8789 0.32548,-0.29292 0.68355,-0.58589 1.07422,-0.8789 4.75256,-3.80855 10.498,-5.71284 17.23633,-5.7129 6.73821,6e-5 12.48365,1.90435 17.23633,5.7129 4.78507,3.80863 7.17765,8.41475 7.17773,13.81835 l 0,30.51758 c -8e-5,2.44141 -1.22078,3.66211 -3.66211,3.66211 l -4.88281,0 c -2.44148,0 -3.66218,-1.2207 -3.66211,-3.66211 l 0,-30.51758 c -7e-5,-2.70178 -1.18822,-4.9967 -3.56445,-6.88476 -2.37637,-1.92053 -5.25723,-2.88082 -8.64258,-2.88086 -3.38547,4e-5 -6.26633,0.96033 -8.64258,2.88086 -2.37635,1.88806 -3.5645,4.18298 -3.56445,6.88476 l 0,30.51758 c -5e-5,2.44141 -1.22075,3.66211 -3.66211,3.66211 l -4.88281,0 c -2.44145,0 -3.66215,-1.2207 -3.66211,-3.66211 l 0,-30.51758"
         style="font-size:100px;fill:#000000;fill-opacity:0.35114503"
         id="path4695" />
      <path
         inkscape:connector-curvature="0"
         d="m 471.31641,454.11285 31.73828,0 c 3.38537,1e-5 6.26622,-0.944 8.64258,-2.83203 2.37624,-1.92056 3.56439,-4.23176 3.56445,-6.9336 l 0,-14.64844 c -6e-5,-2.70178 -1.18821,-4.9967 -3.56445,-6.88476 -2.37636,-1.92053 -5.25721,-2.88082 -8.64258,-2.88086 l -19.53125,0 c -3.38544,4e-5 -6.2663,0.96033 -8.64258,2.88086 -2.37632,1.88806 -3.56447,4.18298 -3.56445,6.88476 l 0,24.41407 m 0,20.75195 c -2e-5,2.44139 -1.22072,3.6621 -3.66211,3.66211 l -4.88282,0 c -2.4414,-10e-6 -3.66211,-1.22072 -3.66211,-3.66211 l 0,-45.16602 c 0,-5.4036 2.3763,-10.00972 7.12891,-13.81835 4.78515,-3.80855 10.54686,-5.71284 17.28516,-5.7129 l 19.53125,0 c 6.73823,6e-5 12.48367,1.90435 17.23633,5.7129 4.78509,3.80863 7.17766,8.41475 7.17773,13.81835 l 0,14.64844 c -7e-5,5.40366 -2.39264,10.00978 -7.17773,13.81836 -4.75266,3.8086 -10.4981,5.71289 -17.23633,5.71289 l -31.73828,0.0488 0,10.9375"
         style="font-size:100px;fill:#000000;fill-opacity:0.35114503"
         id="path4697" />
      <path
         inkscape:connector-curvature="0"
         d="m 549.44141,444.34722 c -2e-5,2.70184 1.18813,5.01304 3.56445,6.9336 2.37628,1.88803 5.25714,2.83204 8.64258,2.83203 l 19.53125,0 c 3.38537,1e-5 6.26622,-0.944 8.64258,-2.83203 2.37624,-1.92056 3.56439,-4.23176 3.56445,-6.9336 l 0,-30.51758 c -6e-5,-2.44135 1.22064,-3.66205 3.66211,-3.66211 l 4.88281,0 c 2.44134,6e-5 3.66204,1.22076 3.66211,3.66211 l 0,30.51758 c -7e-5,5.40366 -2.39264,10.00978 -7.17773,13.81836 -4.75266,3.8086 -10.4981,5.71289 -17.23633,5.71289 l -19.53125,0 c -6.7383,0 -12.50001,-1.90429 -17.28516,-5.71289 -4.75261,-3.80858 -7.12891,-8.4147 -7.12891,-13.81836 l 0,-30.51758 c 0,-2.44135 1.22071,-3.66205 3.66211,-3.66211 l 4.88282,0 c 2.44139,6e-5 3.66209,1.22076 3.66211,3.66211 l 0,30.51758"
         style="font-size:100px;fill:#000000;fill-opacity:0.35114503"
         id="path4699" />
      <path
         inkscape:connector-curvature="0"
         d="m 634.89062,410.16753 45.16602,0 c 2.44134,6e-5 3.66204,1.22076 3.66211,3.66211 l 0,2.44141 c -7e-5,2.44145 -1.22077,3.66215 -3.66211,3.66211 l -45.16602,0 c -2.01824,4e-5 -3.7435,0.60226 -5.17578,1.80664 -1.4323,1.17192 -2.14845,2.60421 -2.14843,4.29688 -2e-5,1.69274 0.71613,3.14131 2.14843,4.3457 1.43228,1.17191 3.15754,1.75784 5.17578,1.75781 l 29.29688,0 c 5.40359,3e-5 10.00971,1.54626 13.81836,4.63867 3.80853,3.09247 5.71282,6.83596 5.71289,11.23047 -7e-5,4.39454 -1.90436,8.13803 -5.71289,11.23047 -3.80865,3.09245 -8.41477,4.63867 -13.81836,4.63867 l -45.16602,0 c -2.4414,0 -3.66211,-1.2207 -3.66211,-3.66211 l 0,-2.4414 c 0,-2.4414 1.22071,-3.6621 3.66211,-3.66211 l 45.16602,0 c 2.01818,1e-5 3.74344,-0.58593 5.17578,-1.75782 1.43224,-1.20441 2.14838,-2.65298 2.14844,-4.3457 -6e-5,-1.69269 -0.7162,-3.12498 -2.14844,-4.29687 -1.43234,-1.20441 -3.1576,-1.80662 -5.17578,-1.80664 l -29.29688,0 c -5.40365,2e-5 -10.00977,-1.5462 -13.81835,-4.63868 -3.8086,-3.09241 -5.7129,-6.8359 -5.7129,-11.23046 0,-4.39449 1.9043,-8.13798 5.7129,-11.23047 3.80858,-3.0924 8.4147,-4.63862 13.81835,-4.63868"
         style="font-size:100px;fill:#000000;fill-opacity:0.35114503"
         id="path4701" />
    </g>
  </g>
</svg>
