<?xml version="1.0" encoding="UTF-8" standalone="no"?>
<!-- Created with Inkscape (http://www.inkscape.org/) -->

<svg
   xmlns:dc="http://purl.org/dc/elements/1.1/"
   xmlns:cc="http://creativecommons.org/ns#"
   xmlns:rdf="http://www.w3.org/1999/02/22-rdf-syntax-ns#"
   xmlns:svg="http://www.w3.org/2000/svg"
   xmlns="http://www.w3.org/2000/svg"
   xmlns:sodipodi="http://sodipodi.sourceforge.net/DTD/sodipodi-0.dtd"
   xmlns:inkscape="http://www.inkscape.org/namespaces/inkscape"
   width="34.493198"
   height="45.930832"
   id="svg3402"
   version="1.1"
   inkscape:version="0.48.4 r9939"
   sodipodi:docname="logo_SmartCampus_blue (copie).svg">
  <defs
     id="defs3404" />
  <sodipodi:namedview
     id="base"
     pagecolor="#ffffff"
     bordercolor="#666666"
     borderopacity="1.0"
     inkscape:pageopacity="0.0"
     inkscape:pageshadow="2"
     inkscape:zoom="5.6"
     inkscape:cx="50.115114"
     inkscape:cy="22.965411"
     inkscape:document-units="px"
     inkscape:current-layer="layer1"
     showgrid="false"
     inkscape:window-width="1313"
     inkscape:window-height="744"
     inkscape:window-x="53"
     inkscape:window-y="24"
     inkscape:window-maximized="1"
     fit-margin-top="0"
     fit-margin-left="0"
     fit-margin-right="0"
     fit-margin-bottom="0" />
  <metadata
     id="metadata3407">
    <rdf:RDF>
      <cc:Work
         rdf:about="">
        <dc:format>image/svg+xml</dc:format>
        <dc:type
           rdf:resource="http://purl.org/dc/dcmitype/StillImage" />
        <dc:title></dc:title>
      </cc:Work>
    </rdf:RDF>
  </metadata>
  <g
     inkscape:label="Calque 1"
     inkscape:groupmode="layer"
     id="layer1"
     transform="translate(-293.37726,-509.39676)">
    <path
       id="path4557"
       d="m 315.65393,516.24807 c -0.7637,0 -1.20604,0.008 -1.57167,0.0417 l 0,13.31505 -10.60289,0 c 0.0194,0.52151 0.0624,0.86168 0.153,1.31203 0.32073,1.59464 0.72627,2.57945 2.00745,4.85869 0.42922,0.7636 0.92693,1.70338 1.10805,2.0909 0.66388,1.42069 1.15614,3.12527 1.36765,4.75672 0.14044,1.08336 0.30835,1.42485 0.81132,1.62728 0.12204,0.0491 2.5494,0.0699 6.81518,0.0603 6.60514,-0.0149 6.62782,-0.0158 6.84297,-0.17619 0.35996,-0.26833 0.48778,-0.57999 0.60733,-1.49283 0.1503,-1.14788 0.35936,-2.06585 0.71397,-3.12941 0.37957,-1.13842 0.79617,-2.02362 1.76174,-3.74139 1.64357,-2.92389 2.08125,-4.25998 2.18826,-6.65752 0.16158,-3.61965 -1.06078,-6.82224 -3.56057,-9.32331 -1.73868,-1.7396 -3.77487,-2.83357 -6.29126,-3.37513 -0.66616,-0.14336 -1.0213,-0.1669 -2.35053,-0.1669 z m -2.68436,29.31907 c -2.44483,10e-4 -3.68223,0.0236 -3.82482,0.0649 -0.34672,0.10057 -0.73039,0.51895 -0.79742,0.87623 -0.10839,0.57771 0.18483,1.16436 0.69078,1.38622 0.18962,0.0831 1.43898,0.10172 6.70391,0.0881 6.40561,-0.0167 6.47647,-0.0202 6.68532,-0.17619 0.40118,-0.29953 0.52854,-0.54575 0.52854,-1.02921 0,-0.48348 -0.12738,-0.72505 -0.52854,-1.0246 -0.20863,-0.15579 -0.28284,-0.15822 -6.60651,-0.1808 -1.08735,-0.004 -2.03629,-0.005 -2.85126,-0.005 z m 0,3.6672 c -2.44483,10e-4 -3.68223,0.0235 -3.82482,0.0649 -0.34672,0.10058 -0.73039,0.52355 -0.79742,0.88086 -0.10839,0.57771 0.18483,1.16435 0.69078,1.38621 0.18962,0.083 1.43898,0.0971 6.70391,0.0835 6.40561,-0.0166 6.47647,-0.0156 6.68532,-0.17155 0.40118,-0.29953 0.52854,-0.54576 0.52854,-1.02921 0,-0.4835 -0.12738,-0.7297 -0.52854,-1.02925 -0.20863,-0.15579 -0.28284,-0.15822 -6.60651,-0.1808 -1.08735,-0.004 -2.03629,-0.005 -2.85126,-0.005 z m -2.20681,3.66258 0,0.17616 c 0,0.31916 0.22037,0.9398 0.44972,1.25641 0.29732,0.41044 0.69385,0.70233 1.17758,0.87159 0.35888,0.12554 0.67126,0.1372 3.37977,0.12054 2.86362,-0.0176 2.99399,-0.0239 3.3334,-0.1808 0.75076,-0.34713 1.30575,-1.08673 1.41402,-1.8823 l 0.051,-0.3616 -4.90505,0 -4.90044,0 z"
       style="fill:#000000;fill-opacity:1;stroke:none"
       inkscape:connector-curvature="0" />
    <path
       inkscape:connector-curvature="0"
       style="fill:#000000;fill-opacity:1;stroke:none"
       d="m 311.37085,527.17473 1.34125,0 0,1.34126 -1.34125,0 z"
       id="path4559" />
    <path
       inkscape:connector-curvature="0"
       style="fill:#000000;fill-opacity:1;stroke:none"
       d="m 311.37085,525.39445 1.34125,0 0,1.34126 -1.34125,0 z"
       id="path4561" />
    <path
       inkscape:connector-curvature="0"
       style="fill:#000000;fill-opacity:1;stroke:none"
       d="m 311.37085,523.61416 1.34125,0 0,1.34126 -1.34125,0 z"
       id="path4563" />
    <path
       inkscape:connector-curvature="0"
       style="fill:#000000;fill-opacity:1;stroke:none"
       d="m 311.37085,521.83387 1.34125,0 0,1.34126 -1.34125,0 z"
       id="path4565" />
    <path
       inkscape:connector-curvature="0"
       style="fill:#000000;fill-opacity:1;stroke:none"
       d="m 311.37085,520.05359 1.34125,0 0,1.34125 -1.34125,0 z"
       id="path4567" />
    <path
       inkscape:connector-curvature="0"
       style="fill:#000000;fill-opacity:1;stroke:none"
       d="m 311.37085,518.2733 1.34125,0 0,1.34126 -1.34125,0 z"
       id="path4569" />
    <path
       inkscape:connector-curvature="0"
       style="fill:#000000;fill-opacity:1;stroke:none"
       d="m 311.37085,516.49302 1.34125,0 0,1.34126 -1.34125,0 z"
       id="path4571" />
    <path
       inkscape:connector-curvature="0"
       style="fill:#000000;fill-opacity:1;stroke:none"
       d="m 309.59056,527.17473 1.34126,0 0,1.34126 -1.34126,0 z"
       id="path4573" />
    <path
       inkscape:connector-curvature="0"
       style="fill:#000000;fill-opacity:1;stroke:none"
       d="m 309.59056,525.39445 1.34126,0 0,1.34126 -1.34126,0 z"
       id="path4575" />
    <path
       inkscape:connector-curvature="0"
       style="fill:#000000;fill-opacity:1;stroke:none"
       d="m 309.59056,523.61416 1.34126,0 0,1.34126 -1.34126,0 z"
       id="path4577" />
    <path
       inkscape:connector-curvature="0"
       style="fill:#000000;fill-opacity:1;stroke:none"
       d="m 309.59056,521.83387 1.34126,0 0,1.34126 -1.34126,0 z"
       id="path4579" />
    <path
       inkscape:connector-curvature="0"
       style="fill:#000000;fill-opacity:1;stroke:none"
       d="m 309.59056,520.05359 1.34126,0 0,1.34125 -1.34126,0 z"
       id="path4581" />
    <path
       inkscape:connector-curvature="0"
       style="fill:#000000;fill-opacity:1;stroke:none"
       d="m 309.59056,518.2733 1.34126,0 0,1.34126 -1.34126,0 z"
       id="path4583" />
    <path
       inkscape:connector-curvature="0"
       style="fill:#000000;fill-opacity:1;stroke:none"
       d="m 309.11624,516.39215 1.32301,0.2205 -0.2205,1.32301 -1.32301,-0.2205 z"
       id="path4585" />
    <path
       inkscape:connector-curvature="0"
       style="fill:#000000;fill-opacity:1;stroke:none"
       d="m 307.81028,527.17473 1.34125,0 0,1.34126 -1.34125,0 z"
       id="path4587" />
    <path
       inkscape:connector-curvature="0"
       style="fill:#000000;fill-opacity:1;stroke:none"
       d="m 307.81028,525.39445 1.34125,0 0,1.34126 -1.34125,0 z"
       id="path4589" />
    <path
       inkscape:connector-curvature="0"
       style="fill:#000000;fill-opacity:1;stroke:none"
       d="m 306.8817,523.56255 1.34127,0 0,1.34126 -1.34127,0 z"
       id="path4591" />
    <path
       inkscape:connector-curvature="0"
       style="fill:#000000;fill-opacity:1;stroke:none"
       d="m 307.51357,521.83387 1.34125,0 0,1.34126 -1.34125,0 z"
       id="path4593" />
    <path
       inkscape:connector-curvature="0"
       style="fill:#000000;fill-opacity:1;stroke:none"
       d="m 307.3124,520.3502 1.24534,-0.49813 0.49813,1.24532 -1.24534,0.49814 z"
       id="path4595" />
    <path
       inkscape:connector-curvature="0"
       style="fill:#000000;fill-opacity:1;stroke:none"
       d="m 306.62342,518.2733 1.34126,0 0,1.34126 -1.34126,0 z"
       id="path4597" />
    <path
       inkscape:connector-curvature="0"
       style="fill:#000000;fill-opacity:1;stroke:none"
       d="m 306.03,527.17473 1.34125,0 0,1.34126 -1.34125,0 z"
       id="path4599" />
    <path
       inkscape:connector-curvature="0"
       style="fill:#000000;fill-opacity:1;stroke:none"
       d="m 305.5785,525.20093 1.34127,0 0,1.34125 -1.34127,0 z"
       id="path4601" />
    <path
       inkscape:connector-curvature="0"
       style="fill:#000000;fill-opacity:1;stroke:none"
       d="m 305.89359,516.66442 1.3056,-0.3072 0.3072,1.3056 -1.3056,0.3072 z"
       id="path4603" />
    <path
       inkscape:connector-curvature="0"
       style="fill:#000000;fill-opacity:1;stroke:none"
       d="m 304.24971,527.17473 1.34125,0 0,1.34126 -1.34125,0 z"
       id="path4605" />
    <path
       inkscape:connector-curvature="0"
       style="fill:#000000;fill-opacity:1;stroke:none"
       d="m 304.47127,523.44996 1.28469,0.38541 -0.3854,1.28469 -1.2847,-0.38541 z"
       id="path4607" />
    <path
       inkscape:connector-curvature="0"
       style="fill:#000000;fill-opacity:1;stroke:none"
       d="m 304.96724,521.99437 1.26403,-0.44853 0.44853,1.26404 -1.26403,0.44852 z"
       id="path4609" />
    <path
       inkscape:connector-curvature="0"
       style="fill:#000000;fill-opacity:1;stroke:none"
       d="m 304.40606,519.92704 1.31065,0.28492 -0.28493,1.31065 -1.31064,-0.28492 z"
       id="path4611" />
    <path
       inkscape:connector-curvature="0"
       style="fill:#000000;fill-opacity:1;stroke:none"
       d="m 304.24971,518.2733 1.34125,0 0,1.34126 -1.34125,0 z"
       id="path4613" />
    <path
       inkscape:connector-curvature="0"
       style="fill:#000000;fill-opacity:1;stroke:none"
       d="m 304.12546,516.64713 1.31206,-0.27831 0.27831,1.31206 -1.31205,0.27831 z"
       id="path4615" />
    <path
       inkscape:connector-curvature="0"
       style="fill:#000000;fill-opacity:1;stroke:none"
       d="m 302.32104,525.58726 1.29709,-0.34134 0.34135,1.2971 -1.29709,0.34134 z"
       id="path4617" />
    <path
       inkscape:connector-curvature="0"
       style="fill:#000000;fill-opacity:1;stroke:none"
       d="m 302.39497,523.41872 1.25186,0.48148 -0.48148,1.25186 -1.25186,-0.48149 z"
       id="path4619" />
    <path
       inkscape:connector-curvature="0"
       style="fill:#000000;fill-opacity:1;stroke:none"
       d="m 302.83953,521.60446 1.19966,0.59983 -0.59983,1.19966 -1.19965,-0.59983 z"
       id="path4621" />
    <path
       inkscape:connector-curvature="0"
       style="fill:#000000;fill-opacity:1;stroke:none"
       d="m 301.70488,517.91318 1.279,-0.40389 0.40389,1.279 -1.27899,0.40389 z"
       id="path4623" />
    <path
       inkscape:connector-curvature="0"
       style="fill:#000000;fill-opacity:1;stroke:none"
       d="m 300.12828,514.49805 1.22565,0.54474 -0.54473,1.22565 -1.22566,-0.54473 z"
       id="path4625" />
    <path
       inkscape:connector-curvature="0"
       style="fill:#000000;fill-opacity:1;stroke:none"
       d="m 299.74752,523.80296 1.21693,-0.56394 0.56395,1.21693 -1.21693,0.56395 z"
       id="path4627" />
    <path
       inkscape:connector-curvature="0"
       style="fill:#000000;fill-opacity:1;stroke:none"
       d="m 299.81742,521.91032 0.94842,-0.94842 0.94841,0.94841 -0.94842,0.94842 z"
       id="path4629" />
    <path
       inkscape:connector-curvature="0"
       style="fill:#000000;fill-opacity:1;stroke:none"
       d="m 299.31289,519.13731 1.2596,-0.46083 0.46083,1.2596 -1.2596,0.46083 z"
       id="path4631" />
    <path
       inkscape:connector-curvature="0"
       style="fill:#000000;fill-opacity:1;stroke:none"
       d="m 298.70956,516.25617 1.18346,0.63118 -0.63118,1.18346 -1.18346,-0.63118 z"
       id="path4633" />
    <path
       inkscape:connector-curvature="0"
       style="fill:#000000;fill-opacity:1;stroke:none"
       d="m 298.09603,521.58401 1.21694,-0.56394 0.56394,1.21693 -1.21693,0.56395 z"
       id="path4635" />
    <path
       inkscape:connector-curvature="0"
       style="fill:#000000;fill-opacity:1;stroke:none"
       d="m 296.1408,515.63802 1.10695,0.75739 -0.75738,1.10694 -1.10695,-0.75738 z"
       id="path4637" />
    <path
       inkscape:connector-curvature="0"
       style="fill:#000000;fill-opacity:1;stroke:none"
       d="m 308.05594,514.53438 1.27242,0.42415 -0.42414,1.27242 -1.27242,-0.42414 z"
       id="path4639" />
    <path
       inkscape:connector-curvature="0"
       style="fill:#000000;fill-opacity:1;stroke:none"
       d="m 306.56652,514.44452 1.07301,0.80475 -0.80475,1.073 -1.07301,-0.80475 z"
       id="path4641" />
    <path
       inkscape:connector-curvature="0"
       style="fill:#000000;fill-opacity:1;stroke:none"
       d="m 301.37608,513.44269 1.32949,0.17726 -0.17727,1.32949 -1.32948,-0.17726 z"
       id="path4643" />
    <path
       inkscape:connector-curvature="0"
       style="fill:#000000;fill-opacity:1;stroke:none"
       d="m 297.21293,512.07072 1.22881,-0.53761 0.5376,1.22881 -1.22881,0.5376 z"
       id="path4645" />
    <path
       inkscape:connector-curvature="0"
       style="fill:#000000;fill-opacity:1;stroke:none"
       d="m 304.0816,513.16136 1.28098,-0.39754 0.39755,1.28098 -1.28098,0.39755 z"
       id="path4647" />
    <path
       inkscape:connector-curvature="0"
       style="fill:#000000;fill-opacity:1;stroke:none"
       d="m 296.26291,510.24609 1.03807,-0.84933 0.84933,1.03807 -1.03807,0.84933 z"
       id="path4649" />
    <path
       inkscape:connector-curvature="0"
       style="fill:#000000;fill-opacity:1;stroke:none"
       d="m 293.37726,511.12798 1.25856,-0.46368 0.46368,1.25856 -1.25856,0.46368 z"
       id="path4651" />
    <path
       inkscape:connector-curvature="0"
       style="fill:#000000;fill-opacity:1;stroke:none"
       d="m 313.15113,527.17473 1.34125,0 0,1.34126 -1.34125,0 z"
       id="path4653" />
    <path
       inkscape:connector-curvature="0"
       style="fill:#000000;fill-opacity:1;stroke:none"
       d="m 313.15113,525.39445 1.34125,0 0,1.34126 -1.34125,0 z"
       id="path4655" />
    <path
       inkscape:connector-curvature="0"
       style="fill:#000000;fill-opacity:1;stroke:none"
       d="m 313.15113,523.61416 1.34125,0 0,1.34126 -1.34125,0 z"
       id="path4657" />
    <path
       inkscape:connector-curvature="0"
       style="fill:#000000;fill-opacity:1;stroke:none"
       d="m 313.15113,521.83387 1.34125,0 0,1.34126 -1.34125,0 z"
       id="path4659" />
    <path
       inkscape:connector-curvature="0"
       style="fill:#000000;fill-opacity:1;stroke:none"
       d="m 313.15113,520.05359 1.34125,0 0,1.34125 -1.34125,0 z"
       id="path4661" />
    <path
       inkscape:connector-curvature="0"
       style="fill:#000000;fill-opacity:1;stroke:none"
       d="m 313.15113,518.2733 1.34125,0 0,1.34126 -1.34125,0 z"
       id="path4663" />
    <path
       inkscape:connector-curvature="0"
       style="fill:#000000;fill-opacity:1;stroke:none"
       d="m 313.15113,516.49302 1.34125,0 0,1.34126 -1.34125,0 z"
       id="path4665" />
    <path
       inkscape:connector-curvature="0"
       style="fill:#000000;fill-opacity:1;stroke:none"
       d="m 311.37085,528.95502 1.34125,0 0,1.34125 -1.34125,0 z"
       id="path4667" />
    <path
       inkscape:connector-curvature="0"
       style="fill:#000000;fill-opacity:1;stroke:none"
       d="m 309.59056,528.95502 1.34126,0 0,1.34125 -1.34126,0 z"
       id="path4669" />
    <path
       inkscape:connector-curvature="0"
       style="fill:#000000;fill-opacity:1;stroke:none"
       d="m 307.81028,528.95502 1.34125,0 0,1.34125 -1.34125,0 z"
       id="path4671" />
    <path
       inkscape:connector-curvature="0"
       style="fill:#000000;fill-opacity:1;stroke:none"
       d="m 306.03,528.95502 1.34125,0 0,1.34125 -1.34125,0 z"
       id="path4673" />
    <path
       inkscape:connector-curvature="0"
       style="fill:#000000;fill-opacity:1;stroke:none"
       d="m 304.24971,528.95502 1.34125,0 0,1.34125 -1.34125,0 z"
       id="path4675" />
    <path
       inkscape:connector-curvature="0"
       style="fill:#000000;fill-opacity:1;stroke:none"
       d="m 313.15113,528.95502 1.34125,0 0,1.34125 -1.34125,0 z"
       id="path4677" />
    <g
       transform="matrix(0.14835711,0,0,0.26270737,355.1882,422.52541)"
       style="font-size:40px;font-style:normal;font-variant:normal;font-weight:normal;font-stretch:normal;text-align:start;line-height:125%;letter-spacing:0px;word-spacing:0px;writing-mode:lr-tb;text-anchor:start;fill:#428bce;fill-opacity:1;stroke:none;font-family:Downlink;-inkscape-font-specification:Downlink"
       id="g4679" />
  </g>
</svg>
